NunitoSans-SemiBold.ufo
<glyph name="exclam" format="2">
  <advance width="237.3012048192771"/>
  <unicode hex="0021"/>
  <outline>
    <contour>
      <point x="87.73493975903614" y="195.40963855421688" type="line"/>
      <point x="149.56626506024097" y="195.40963855421688" type="line"/>
      <point x="181.04819277108433" y="705.0" type="line"/>
      <point x="56.25301204819277" y="705.0" type="line"/>
    </contour>
    <contour>
      <point x="58.915662650602414" y="0.0" type="line"/>
      <point x="178.3855421686747" y="0.0" type="line"/>
      <point x="178.3855421686747" y="119.04819277108433" type="line"/>
      <point x="58.915662650602414" y="119.04819277108433" type="line"/>
    </contour>
  </outline>
</glyph>
<glyph name="parenright" format="2">
  <advance width="335.73493975903614"/>
  <unicode hex="0029"/>
  <outline>
    <contour>
      <point x="105.54216867469879" y="-193.55421686746988" type="line"/>
      <point x="196.73493975903614" y="-46.68674698795181"/>
      <point x="234.57831325301203" y="104.86746987951807"/>
      <point x="234.57831325301203" y="263.0" type="curve" smooth="yes"/>
      <point x="234.57831325301203" y="420.8433734939759"/>
      <point x="196.73493975903614" y="571.3975903614457"/>
      <point x="105.54216867469879" y="719.5542168674699" type="curve"/>
      <point x="35.0" y="691.9156626506024" type="line"/>
      <point x="97.86746987951807" y="538.9397590361446"/>
      <point x="126.3132530120482" y="407.578313253012"/>
      <point x="126.3132530120482" y="263.0" type="curve" smooth="yes"/>
      <point x="126.3132530120482" y="118.42168674698794"/>
      <point x="97.86746987951807" y="-12.93975903614458"/>
      <point x="35.0" y="-165.9156626506024" type="curve"/>
    </contour>
  </outline>
</glyph>
<glyph name="two" format="2">
  <advance width="600.0"/>
  <unicode hex="0032"/>
  <outline>
    <contour>
      <point x="85.20481927710844" y="0.0" type="line"/>
      <point x="543.0843373493976" y="0.0" type="line"/>
      <point x="543.0843373493976" y="86.62650602409639" type="line"/>
      <point x="187.9156626506024" y="86.62650602409639" type="line"/>
      <point x="187.9156626506024" y="58.12048192771084" type="line"/>
      <point x="389.2168674698795" y="270.0240963855422" type="line" smooth="yes"/>
      <point x="475.34939759036143" y="360.3132530120482"/>
      <point x="515.2168674698795" y="436.4698795180723"/>
      <point x="515.2168674698795" y="521.4698795180723" type="curve" smooth="yes"/>
      <point x="515.2168674698795" y="644.5783132530121"/>
      <point x="434.5301204819277" y="714.4216867469879"/>
      <point x="289.3132530120482" y="714.4216867469879" type="curve" smooth="yes"/>
      <point x="199.18072289156626" y="714.4216867469879"/>
      <point x="111.91566265060241" y="679.9759036144578"/>
      <point x="58.22891566265061" y="627.8192771084338" type="curve"/>
      <point x="94.57831325301206" y="549.1686746987951" type="line"/>
      <point x="149.86746987951807" y="601.0602409638554"/>
      <point x="210.3132530120482" y="625.7951807228916"/>
      <point x="277.93975903614455" y="625.7951807228916" type="curve" smooth="yes"/>
      <point x="365.4578313253012" y="625.7951807228916"/>
      <point x="412.2168674698795" y="586.4578313253012"/>
      <point x="412.2168674698795" y="511.93975903614455" type="curve" smooth="yes"/>
      <point x="412.2168674698795" y="453.1566265060241"/>
      <point x="385.1927710843373" y="399.66265060240966"/>
      <point x="320.43373493975906" y="329.32530120481925" type="curve" smooth="yes"/>
      <point x="85.20481927710844" y="76.78313253012048" type="line"/>
    </contour>
  </outline>
</glyph>
<glyph name="seven" format="2">
  <advance width="600.0"/>
  <unicode hex="0037"/>
  <outline>
    <contour>
      <point x="100.16867469879519" y="0.0" type="line"/>
      <point x="213.9879518072289" y="0.0" type="line"/>
      <point x="538.7710843373494" y="627.7951807228916" type="line"/>
      <point x="538.7710843373494" y="705.0" type="line"/>
      <point x="61.65060240963855" y="705.0" type="line"/>
      <point x="61.65060240963855" y="617.6626506024096" type="line"/>
      <point x="444.06024096385545" y="617.6626506024096" type="line"/>
      <point x="444.06024096385545" y="657.0361445783133" type="line"/>
    </contour>
  </outline>
</glyph>
<glyph name="nine" format="2">
  <advance width="600.0"/>
  <unicode hex="0039"/>
  <outline>
    <contour>
      <point x="249.18072289156626" y="-9.421686746987952" type="curve" smooth="yes"/>
      <point x="432.3975903614458" y="-9.421686746987952"/>
      <point x="541.6385542168674" y="127.0"/>
      <point x="541.6385542168674" y="367.6024096385542" type="curve" smooth="yes"/>
      <point x="541.6385542168674" y="587.289156626506"/>
      <point x="446.2409638554217" y="714.4216867469879"/>
      <point x="274.86746987951807" y="714.4216867469879" type="curve" smooth="yes"/>
      <point x="141.75903614457832" y="714.4216867469879"/>
      <point x="46.78313253012048" y="617.8674698795181"/>
      <point x="46.78313253012048" y="482.4698795180723" type="curve" smooth="yes"/>
      <point x="46.78313253012048" y="352.04819277108436"/>
      <point x="135.49397590361446" y="258.2048192771084"/>
      <point x="257.8072289156627" y="258.2048192771084" type="curve" smooth="yes"/>
      <point x="361.43373493975906" y="258.2048192771084"/>
      <point x="439.90361445783134" y="325.12048192771084"/>
      <point x="452.7469879518072" y="433.06024096385545" type="curve"/>
      <point x="443.1927710843373" y="433.06024096385545" type="line"/>
      <point x="443.1927710843373" y="347.93975903614455" type="line" smooth="yes"/>
      <point x="443.1927710843373" y="169.87951807228916"/>
      <point x="374.69879518072287" y="79.20481927710843"/>
      <point x="250.18072289156626" y="79.20481927710843" type="curve" smooth="yes"/>
      <point x="190.73493975903614" y="79.20481927710843"/>
      <point x="131.57831325301206" y="103.65060240963855"/>
      <point x="83.28915662650603" y="152.12048192771084" type="curve"/>
      <point x="46.93975903614458" y="73.46987951807229" type="line"/>
      <point x="97.04819277108433" y="22.313253012048193"/>
      <point x="175.6265060240964" y="-9.421686746987952"/>
    </contour>
    <contour>
      <point x="281.71084337349396" y="342.56626506024094" type="curve" smooth="yes"/>
      <point x="200.4578313253012" y="342.56626506024094"/>
      <point x="144.80722891566265" y="400.9277108433735"/>
      <point x="144.80722891566265" y="486.3132530120482" type="curve" smooth="yes"/>
      <point x="144.80722891566265" y="571.6987951807229"/>
      <point x="200.4578313253012" y="630.7710843373494"/>
      <point x="281.71084337349396" y="630.7710843373494" type="curve" smooth="yes"/>
      <point x="362.96385542168673" y="630.7710843373494"/>
      <point x="418.6144578313253" y="571.6987951807229"/>
      <point x="418.6144578313253" y="486.3132530120482" type="curve" smooth="yes"/>
      <point x="418.6144578313253" y="400.9277108433735"/>
      <point x="362.96385542168673" y="342.56626506024094"/>
    </contour>
  </outline>
</glyph>
<glyph name="question" format="2">
  <advance width="450.32530120481925"/>
  <unicode hex="003F"/>
  <outline>
    <contour>
      <point x="182.42168674698794" y="195.40963855421688" type="line"/>
      <point x="245.12048192771084" y="195.40963855421688" type="line"/>
      <point x="248.5421686746988" y="221.67469879518072" type="line" smooth="yes"/>
      <point x="254.25301204819277" y="269.1686746987952"/>
      <point x="274.9879518072289" y="312.34939759036143"/>
      <point x="337.9879518072289" y="374.5542168674699" type="curve" smooth="yes"/>
      <point x="406.4096385542169" y="442.4698795180723"/>
      <point x="430.4096385542169" y="490.1807228915663"/>
      <point x="430.4096385542169" y="553.0481927710844" type="curve" smooth="yes"/>
      <point x="430.4096385542169" y="649.4457831325301"/>
      <point x="349.7469879518072" y="714.4216867469879"/>
      <point x="229.53012048192772" y="714.4216867469879" type="curve" smooth="yes"/>
      <point x="142.95180722891567" y="714.4216867469879"/>
      <point x="55.68674698795181" y="679.9759036144578"/>
      <point x="2.0" y="627.8192771084338" type="curve"/>
      <point x="37.63855421686747" y="549.1686746987951" type="line"/>
      <point x="92.92771084337349" y="600.0602409638554"/>
      <point x="153.3734939759036" y="625.7951807228916"/>
      <point x="224.13253012048193" y="625.7951807228916" type="curve" smooth="yes"/>
      <point x="288.7831325301205" y="625.7951807228916"/>
      <point x="327.4096385542169" y="594.4578313253012"/>
      <point x="327.4096385542169" y="543.8072289156627" type="curve" smooth="yes"/>
      <point x="327.4096385542169" y="501.6024096385542"/>
      <point x="310.96385542168673" y="468.5542168674699"/>
      <point x="264.33734939759034" y="415.1927710843373" type="curve" smooth="yes"/>
      <point x="204.289156626506" y="346.12048192771084"/>
      <point x="182.42168674698794" y="294.51807228915663"/>
      <point x="182.42168674698794" y="229.6265060240964" type="curve" smooth="yes"/>
    </contour>
    <contour>
      <point x="154.18072289156626" y="0.0" type="line"/>
      <point x="273.3614457831325" y="0.0" type="line"/>
      <point x="273.3614457831325" y="119.04819277108433" type="line"/>
      <point x="154.18072289156626" y="119.04819277108433" type="line"/>
    </contour>
  </outline>
</glyph>
<glyph name="A" format="2">
  <advance width="735.9036144578313"/>
  <unicode hex="0041"/>
  <anchor x="368.95180722891564" y="0.0" name="bottom"/>
  <anchor x="697.6385542168674" y="0.0" name="ogonek"/>
  <anchor x="368.95180722891564" y="705.0" name="top"/>
  <outline>
    <contour>
      <point x="10.83132530120482" y="0.0" type="line"/>
      <point x="116.25301204819277" y="0.0" type="line"/>
      <point x="201.12048192771084" y="199.73493975903614" type="line"/>
      <point x="154.63855421686748" y="172.25301204819277" type="line"/>
      <point x="580.6867469879518" y="172.25301204819277" type="line"/>
      <point x="534.4939759036145" y="199.73493975903614" type="line"/>
      <point x="620.3614457831326" y="0.0" type="line"/>
      <point x="725.7831325301205" y="0.0" type="line"/>
      <point x="411.4096385542169" y="705.0" type="line"/>
      <point x="325.2048192771084" y="705.0" type="line"/>
    </contour>
    <contour>
      <point x="366.95180722891564" y="589.710843373494" type="line"/>
      <point x="368.95180722891564" y="589.710843373494" type="line"/>
      <point x="520.9397590361446" y="231.55421686746988" type="line"/>
      <point x="544.4939759036145" y="256.03614457831327" type="line"/>
      <point x="190.8313253012048" y="256.03614457831327" type="line"/>
      <point x="215.67469879518072" y="231.55421686746988" type="line"/>
    </contour>
  </outline>
</glyph>
<glyph name="C" format="2">
  <advance width="675.5301204819277"/>
  <unicode hex="0043"/>
  <anchor x="387.8192771084337" y="0.0" name="bottom"/>
  <anchor x="389.10843373493975" y="705.0" name="top"/>
  <outline>
    <contour>
      <point x="398.06024096385545" y="-9.421686746987952" type="curve" smooth="yes"/>
      <point x="493.9277108433735" y="-9.421686746987952"/>
      <point x="580.9036144578313" y="22.57831325301205"/>
      <point x="636.7710843373494" y="78.46987951807229" type="curve"/>
      <point x="600.5542168674699" y="161.09638554216866" type="line"/>
      <point x="539.6867469879518" y="106.62650602409639"/>
      <point x="477.2409638554217" y="83.46987951807229"/>
      <point x="400.6144578313253" y="83.46987951807229" type="curve" smooth="yes"/>
      <point x="249.2289156626506" y="83.46987951807229"/>
      <point x="167.44578313253012" y="181.27710843373495"/>
      <point x="167.44578313253012" y="353.0" type="curve" smooth="yes"/>
      <point x="167.44578313253012" y="524.433734939759"/>
      <point x="249.2289156626506" y="621.5301204819277"/>
      <point x="400.6144578313253" y="621.5301204819277" type="curve" smooth="yes"/>
      <point x="477.2409638554217" y="621.5301204819277"/>
      <point x="539.6867469879518" y="598.3734939759036"/>
      <point x="600.5542168674699" y="543.9036144578313" type="curve"/>
      <point x="636.7710843373494" y="626.5301204819277" type="line"/>
      <point x="580.9036144578313" y="683.1325301204819"/>
      <point x="493.9277108433735" y="714.4216867469879"/>
      <point x="398.06024096385545" y="714.4216867469879" type="curve" smooth="yes"/>
      <point x="184.42168674698794" y="714.4216867469879"/>
      <point x="57.75903614457832" y="574.5783132530121"/>
      <point x="57.75903614457832" y="353.0" type="curve" smooth="yes"/>
      <point x="57.75903614457832" y="130.42168674698794"/>
      <point x="184.42168674698794" y="-9.421686746987952"/>
    </contour>
  </outline>
</glyph>
<glyph name="E" format="2">
  <advance width="589.1927710843373"/>
  <unicode hex="0045"/>
  <anchor x="325.6867469879518" y="0.0" name="bottom"/>
  <anchor x="495.6867469879518" y="0.0" name="ogonek"/>
  <anchor x="325.6867469879518" y="705.0" name="top"/>
  <anchor x="24.156626506024097" y="705.0" name="topleft"/>
  <outline>
    <contour>
      <point x="82.49397590361446" y="0.0" type="line"/>
      <point x="538.4819277108434" y="0.0" type="line"/>
      <point x="538.4819277108434" y="83.78313253012048" type="line"/>
      <point x="182.0722891566265" y="83.78313253012048" type="line"/>
      <point x="182.0722891566265" y="315.96385542168673" type="line"/>
      <point x="517.0602409638554" y="315.96385542168673" type="line"/>
      <point x="517.0602409638554" y="399.7469879518072" type="line"/>
      <point x="182.0722891566265" y="399.7469879518072" type="line"/>
      <point x="182.0722891566265" y="621.2168674698795" type="line"/>
      <point x="538.4819277108434" y="621.2168674698795" type="line"/>
      <point x="538.4819277108434" y="705.0" type="line"/>
      <point x="82.49397590361446" y="705.0" type="line"/>
    </contour>
  </outline>
</glyph>
<glyph name="J" format="2">
  <advance width="338.2289156626506"/>
  <unicode hex="004A"/>
  <anchor x="204.4578313253012" y="0.0" name="bottom"/>
  <anchor x="203.4578313253012" y="705.0" name="top"/>
  <outline>
    <contour>
      <point x="-2.4457831325301207" y="-8.132530120481928" type="line"/>
      <point x="70.3012048192771" y="-4.132530120481928" type="line" smooth="yes"/>
      <point x="191.9156626506024" y="4.289156626506024"/>
      <point x="255.73493975903614" y="72.13253012048193"/>
      <point x="255.73493975903614" y="192.63855421686748" type="curve" smooth="yes"/>
      <point x="255.73493975903614" y="705.0" type="line"/>
      <point x="152.6024096385542" y="705.0" type="line"/>
      <point x="152.6024096385542" y="192.50602409638554" type="line" smooth="yes"/>
      <point x="152.6024096385542" y="125.144578313253"/>
      <point x="118.8433734939759" y="86.07228915662651"/>
      <point x="55.21686746987952" y="81.49397590361446" type="curve" smooth="yes"/>
      <point x="-10.0" y="77.49397590361446" type="line"/>
    </contour>
  </outline>
</glyph>
<glyph name="K" format="2">
  <advance width="642.6024096385543"/>
  <unicode hex="004B"/>
  <anchor x="323.32530120481925" y="0.0" name="bottom"/>
  <anchor x="323.03614457831327" y="705.0" name="top"/>
  <anchor x="24.156626506024097" y="705.0" name="topleft"/>
  <outline>
    <contour>
      <point x="82.49397590361446" y="0.0" type="line"/>
      <point x="185.6265060240964" y="0.0" type="line"/>
      <point x="185.6265060240964" y="329.4698795180723" type="line"/>
      <point x="187.6265060240964" y="329.4698795180723" type="line"/>
      <point x="532.710843373494" y="0.0" type="line"/>
      <point x="662.9518072289156" y="0.0" type="line"/>
      <point x="261.65060240963857" y="388.9277108433735" type="line"/>
      <point x="260.3614457831325" y="338.4457831325301" type="line"/>
      <point x="643.3493975903614" y="705.0" type="line"/>
      <point x="515.3975903614457" y="705.0" type="line"/>
      <point x="187.6265060240964" y="388.3734939759036" type="line"/>
      <point x="185.6265060240964" y="388.3734939759036" type="line"/>
      <point x="185.6265060240964" y="705.0" type="line"/>
      <point x="82.49397590361446" y="705.0" type="line"/>
    </contour>
  </outline>
</glyph>
<glyph name="O" format="2">
  <advance width="775.1686746987951"/>
  <unicode hex="004F"/>
  <anchor x="387.0843373493976" y="-9.421686746987952" name="Qtail"/>
  <anchor x="387.0843373493976" y="0.0" name="bottom"/>
  <anchor x="388.0843373493976" y="353.0" name="center"/>
  <anchor x="445.6385542168675" y="0.0" name="ogonek"/>
  <anchor x="387.0843373493976" y="705.0" name="top"/>
  <anchor x="26.0" y="705.0" name="topleft"/>
  <anchor x="457.2409638554217" y="705.0" name="topright"/>
  <outline>
    <contour>
      <point x="387.7951807228916" y="-9.421686746987952" type="curve" smooth="yes"/>
      <point x="588.7469879518072" y="-9.421686746987952"/>
      <point x="718.1204819277109" y="132.13253012048193"/>
      <point x="718.1204819277109" y="354.0" type="curve" smooth="yes"/>
      <point x="718.1204819277109" y="574.5783132530121"/>
      <point x="589.0361445783133" y="714.4216867469879"/>
      <point x="387.7951807228916" y="714.4216867469879" type="curve" smooth="yes"/>
      <point x="185.8433734939759" y="714.4216867469879"/>
      <point x="57.75903614457832" y="574.5783132530121"/>
      <point x="57.75903614457832" y="353.0" type="curve" smooth="yes"/>
      <point x="57.75903614457832" y="132.13253012048193"/>
      <point x="187.13253012048193" y="-9.421686746987952"/>
    </contour>
    <contour>
      <point x="387.7951807228916" y="80.62650602409639" type="curve" smooth="yes"/>
      <point x="247.80722891566265" y="80.62650602409639"/>
      <point x="166.02409638554218" y="181.56626506024097"/>
      <point x="166.02409638554218" y="353.0" type="curve" smooth="yes"/>
      <point x="166.02409638554218" y="525.144578313253"/>
      <point x="247.80722891566265" y="624.3734939759036"/>
      <point x="387.7951807228916" y="624.3734939759036" type="curve" smooth="yes"/>
      <point x="529.0722891566265" y="624.3734939759036"/>
      <point x="609.855421686747" y="525.433734939759"/>
      <point x="609.855421686747" y="353.0" type="curve" smooth="yes"/>
      <point x="609.855421686747" y="181.27710843373495"/>
      <point x="528.0722891566265" y="80.62650602409639"/>
    </contour>
  </outline>
</glyph>
<glyph name="R" format="2">
  <advance width="676.7469879518072"/>
  <unicode hex="0052"/>
  <anchor x="344.66265060240966" y="0.0" name="bottom"/>
  <anchor x="343.95180722891564" y="705.0" name="top"/>
  <outline>
    <contour>
      <point x="82.49397590361446" y="0.0" type="line"/>
      <point x="185.6265060240964" y="0.0" type="line"/>
      <point x="185.6265060240964" y="290.67469879518075" type="line"/>
      <point x="298.5542168674699" y="290.67469879518075" type="line" smooth="yes"/>
      <point x="356.65060240963857" y="290.67469879518075"/>
      <point x="390.2530120481928" y="276.51807228915663"/>
      <point x="418.0120481927711" y="225.289156626506" type="curve" smooth="yes"/>
      <point x="540.0120481927711" y="0.0" type="line"/>
      <point x="653.5421686746988" y="0.0" type="line"/>
      <point x="531.7831325301205" y="224.2289156626506" type="line" smooth="yes"/>
      <point x="500.49397590361446" y="282.09638554216866"/>
      <point x="462.2289156626506" y="307.8072289156627"/>
      <point x="409.09638554216866" y="307.8072289156627" type="curve" smooth="yes"/>
      <point x="383.32530120481925" y="307.8072289156627" type="line"/>
      <point x="373.7469879518072" y="293.67469879518075" type="line"/>
      <point x="524.855421686747" y="293.67469879518075"/>
      <point x="611.9879518072289" y="369.3614457831325"/>
      <point x="611.9879518072289" y="498.04819277108436" type="curve" smooth="yes"/>
      <point x="611.9879518072289" y="629.3132530120482"/>
      <point x="526.722891566265" y="705.0"/>
      <point x="373.7469879518072" y="705.0" type="curve" smooth="yes"/>
      <point x="82.49397590361446" y="705.0" type="line"/>
    </contour>
    <contour>
      <point x="185.6265060240964" y="369.48192771084337" type="line"/>
      <point x="185.6265060240964" y="621.9277108433735" type="line"/>
      <point x="356.95180722891564" y="621.9277108433735" type="line" smooth="yes"/>
      <point x="458.7831325301205" y="621.9277108433735"/>
      <point x="511.12048192771084" y="579.3012048192771"/>
      <point x="511.12048192771084" y="496.2048192771084" type="curve" smooth="yes"/>
      <point x="511.12048192771084" y="412.10843373493975"/>
      <point x="458.7831325301205" y="369.48192771084337"/>
      <point x="356.95180722891564" y="369.48192771084337" type="curve" smooth="yes"/>
    </contour>
  </outline>
</glyph>
<glyph name="T" format="2">
  <advance width="610.8795180722891"/>
  <unicode hex="0054"/>
  <anchor x="305.7951807228916" y="0.0" name="bottom"/>
  <anchor x="305.7951807228916" y="358.0" name="center"/>
  <anchor x="305.7951807228916" y="705.0" name="top"/>
  <outline>
    <contour>
      <point x="254.2289156626506" y="0.0" type="line"/>
      <point x="357.3614457831325" y="0.0" type="line"/>
      <point x="357.3614457831325" y="617.6626506024096" type="line"/>
      <point x="607.1686746987951" y="617.6626506024096" type="line"/>
      <point x="607.1686746987951" y="705.0" type="line"/>
      <point x="4.421686746987952" y="705.0" type="line"/>
      <point x="4.421686746987952" y="617.6626506024096" type="line"/>
      <point x="254.2289156626506" y="617.6626506024096" type="line"/>
    </contour>
  </outline>
</glyph>
<glyph name="V" format="2">
  <advance width="699.6987951807229"/>
  <unicode hex="0056"/>
  <anchor x="350.34939759036143" y="0.0" name="bottom"/>
  <anchor x="349.34939759036143" y="705.0" name="top"/>
  <outline>
    <contour>
      <point x="305.3132530120482" y="0.0" type="line"/>
      <point x="394.3855421686747" y="0.0" type="line"/>
      <point x="705.2048192771084" y="705.0" type="line"/>
      <point x="598.6506024096385" y="705.0" type="line"/>
      <point x="333.66265060240966" y="87.97590361445782" type="line"/>
      <point x="370.87951807228916" y="87.97590361445782" type="line"/>
      <point x="104.89156626506023" y="705.0" type="line"/>
      <point x="-5.506024096385541" y="705.0" type="line"/>
    </contour>
  </outline>
</glyph>
<glyph name="W" format="2">
  <advance width="1106.6385542168675"/>
  <unicode hex="0057"/>
  <anchor x="553.8192771084338" y="0.0" name="bottom"/>
  <anchor x="553.5301204819277" y="705.0" name="top"/>
  <outline>
    <contour>
      <point x="274.1807228915663" y="0.0" type="line"/>
      <point x="361.3855421686747" y="0.0" type="line"/>
      <point x="564.9518072289156" y="579.3012048192771" type="line"/>
      <point x="542.8192771084338" y="579.3012048192771" type="line"/>
      <point x="744.6746987951807" y="0.0" type="line"/>
      <point x="832.4578313253012" y="0.0" type="line"/>
      <point x="1081.433734939759" y="705.0" type="line"/>
      <point x="980.144578313253" y="705.0" type="line"/>
      <point x="770.8674698795181" y="95.7710843373494" type="line"/>
      <point x="803.843373493976" y="95.7710843373494" type="line"/>
      <point x="595.277108433735" y="705.0" type="line"/>
      <point x="516.4698795180723" y="705.0" type="line"/>
      <point x="302.9277108433735" y="95.7710843373494" type="line"/>
      <point x="340.03614457831327" y="95.7710843373494" type="line"/>
      <point x="133.18072289156626" y="705.0" type="line"/>
      <point x="26.626506024096386" y="705.0" type="line"/>
    </contour>
  </outline>
</glyph>
<glyph name="Z" format="2">
  <advance width="596.3253012048193"/>
  <unicode hex="005A"/>
  <anchor x="310.2409638554217" y="0.0" name="bottom"/>
  <anchor x="309.2409638554217" y="705.0" name="top"/>
  <outline>
    <contour>
      <point x="47.57831325301205" y="0.0" type="line"/>
      <point x="574.7469879518072" y="0.0" type="line"/>
      <point x="574.7469879518072" y="87.33734939759036" type="line"/>
      <point x="144.1566265060241" y="87.33734939759036" type="line"/>
      <point x="144.1566265060241" y="52.25301204819277" type="line"/>
      <point x="560.0361445783133" y="629.2168674698795" type="line"/>
      <point x="560.0361445783133" y="705.0" type="line"/>
      <point x="47.57831325301205" y="705.0" type="line"/>
      <point x="47.57831325301205" y="617.6626506024096" type="line"/>
      <point x="463.4578313253012" y="617.6626506024096" type="line"/>
      <point x="463.4578313253012" y="653.4578313253012" type="line"/>
      <point x="47.57831325301205" y="75.78313253012048" type="line"/>
    </contour>
  </outline>
</glyph>
<glyph name="a" format="2">
  <advance width="537.4578313253012"/>
  <unicode hex="0061"/>
  <anchor x="271.2409638554217" y="0.0" name="bottom"/>
  <anchor x="444.50602409638554" y="0.0" name="ogonek"/>
  <anchor x="274.95180722891564" y="484.0" name="top"/>
  <outline>
    <contour>
      <point x="227.44578313253012" y="-9.421686746987952" type="curve" smooth="yes"/>
      <point x="308.1807228915663" y="-9.421686746987952"/>
      <point x="366.49397590361446" y="36.024096385542165"/>
      <point x="383.2289156626506" y="108.91566265060241" type="curve"/>
      <point x="374.3614457831325" y="108.91566265060241" type="line"/>
      <point x="374.3614457831325" y="0.0" type="line"/>
      <point x="469.3855421686747" y="0.0" type="line"/>
      <point x="469.3855421686747" y="301.49397590361446" type="line" smooth="yes"/>
      <point x="469.3855421686747" y="435.28915662650604"/>
      <point x="406.0120481927711" y="496.9759036144578"/>
      <point x="272.5542168674699" y="496.9759036144578" type="curve" smooth="yes"/>
      <point x="203.57831325301206" y="496.9759036144578"/>
      <point x="120.07228915662651" y="473.5542168674699"/>
      <point x="69.07228915662651" y="437.5542168674699" type="curve"/>
      <point x="100.44578313253012" y="366.72289156626505" type="line"/>
      <point x="158.1566265060241" y="402.87951807228916"/>
      <point x="213.8433734939759" y="418.87951807228916"/>
      <point x="270.28915662650604" y="418.87951807228916" type="curve" smooth="yes"/>
      <point x="343.04819277108436" y="418.87951807228916"/>
      <point x="372.65060240963857" y="387.5421686746988"/>
      <point x="372.65060240963857" y="312.1566265060241" type="curve" smooth="yes"/>
      <point x="372.65060240963857" y="197.44578313253012" type="line" smooth="yes"/>
      <point x="372.65060240963857" y="119.34939759036145"/>
      <point x="319.3132530120482" y="62.69879518072289"/>
      <point x="246.79518072289156" y="62.69879518072289" type="curve" smooth="yes"/>
      <point x="185.72289156626505" y="62.69879518072289"/>
      <point x="149.09638554216866" y="97.74698795180723"/>
      <point x="149.09638554216866" y="147.53012048192772" type="curve" smooth="yes"/>
      <point x="149.09638554216866" y="206.04819277108433"/>
      <point x="194.27710843373495" y="223.7831325301205"/>
      <point x="340.3855421686747" y="223.7831325301205" type="curve" smooth="yes"/>
      <point x="386.49397590361446" y="223.7831325301205" type="line"/>
      <point x="386.49397590361446" y="285.66265060240966" type="line"/>
      <point x="339.09638554216866" y="285.66265060240966" type="line" smooth="yes"/>
      <point x="123.04819277108433" y="285.66265060240966"/>
      <point x="49.07228915662651" y="249.10843373493975"/>
      <point x="49.07228915662651" y="142.10843373493975" type="curve" smooth="yes"/>
      <point x="49.07228915662651" y="56.42168674698795"/>
      <point x="124.91566265060241" y="-9.421686746987952"/>
    </contour>
  </outline>
</glyph>
<glyph name="c" format="2">
  <advance width="467.0843373493976"/>
  <unicode hex="0063"/>
  <anchor x="280.10843373493975" y="0.0" name="bottom"/>
  <anchor x="280.10843373493975" y="484.0" name="top"/>
  <outline>
    <contour>
      <point x="286.0843373493976" y="-9.421686746987952" type="curve" smooth="yes"/>
      <point x="345.6385542168675" y="-9.421686746987952"/>
      <point x="411.90361445783134" y="13.44578313253012"/>
      <point x="451.32530120481925" y="50.18072289156626" type="curve"/>
      <point x="419.2409638554217" y="122.27710843373494" type="line"/>
      <point x="381.9277108433735" y="87.09638554216868"/>
      <point x="334.06024096385545" y="70.80722891566265"/>
      <point x="293.6144578313253" y="70.80722891566265" type="curve" smooth="yes"/>
      <point x="198.80722891566265" y="70.80722891566265"/>
      <point x="145.75903614457832" y="136.87951807228916"/>
      <point x="145.75903614457832" y="245.710843373494" type="curve" smooth="yes"/>
      <point x="145.75903614457832" y="355.2530120481928"/>
      <point x="198.80722891566265" y="416.7469879518072"/>
      <point x="293.6144578313253" y="416.7469879518072" type="curve" smooth="yes"/>
      <point x="334.7710843373494" y="416.7469879518072"/>
      <point x="381.9277108433735" y="400.4578313253012"/>
      <point x="419.2409638554217" y="365.9879518072289" type="curve"/>
      <point x="451.32530120481925" y="437.3734939759036" type="line"/>
      <point x="411.90361445783134" y="474.8192771084337"/>
      <point x="346.9277108433735" y="496.9759036144578"/>
      <point x="286.0843373493976" y="496.9759036144578" type="curve" smooth="yes"/>
      <point x="136.0" y="496.9759036144578"/>
      <point x="42.33734939759036" y="401.5542168674699"/>
      <point x="42.33734939759036" y="246.710843373494" type="curve" smooth="yes"/>
      <point x="42.33734939759036" y="91.1566265060241"/>
      <point x="136.0" y="-9.421686746987952"/>
    </contour>
  </outline>
</glyph>
<glyph name="e" format="2">
  <advance width="536.5060240963855"/>
  <unicode hex="0065"/>
  <anchor x="281.9759036144578" y="0.0" name="bottom"/>
  <anchor x="362.6144578313253" y="0.0" name="ogonek"/>
  <anchor x="281.9759036144578" y="484.0" name="top"/>
  <outline>
    <contour>
      <point x="300.2168674698795" y="-9.421686746987952" type="curve" smooth="yes"/>
      <point x="370.6385542168675" y="-9.421686746987952"/>
      <point x="445.1927710843373" y="15.156626506024097"/>
      <point x="490.4578313253012" y="55.024096385542165" type="curve"/>
      <point x="459.7951807228916" y="124.56626506024097" type="line"/>
      <point x="412.06024096385545" y="85.67469879518072"/>
      <point x="357.50602409638554" y="69.3855421686747"/>
      <point x="301.06024096385545" y="69.3855421686747" type="curve" smooth="yes"/>
      <point x="195.56626506024097" y="69.3855421686747"/>
      <point x="138.65060240963857" y="129.03614457831324"/>
      <point x="138.65060240963857" y="245.6867469879518" type="curve" smooth="yes"/>
      <point x="138.65060240963857" y="252.10843373493975" type="line" smooth="yes"/>
      <point x="138.65060240963857" y="355.4698795180723"/>
      <point x="190.9879518072289" y="425.566265060241"/>
      <point x="284.5301204819277" y="425.566265060241" type="curve" smooth="yes"/>
      <point x="368.49397590361446" y="425.566265060241"/>
      <point x="413.2530120481928" y="368.6265060240964"/>
      <point x="413.2530120481928" y="268.95180722891564" type="curve"/>
      <point x="429.5421686746988" y="283.0843373493976" type="line"/>
      <point x="121.93975903614458" y="283.0843373493976" type="line"/>
      <point x="121.93975903614458" y="221.20481927710844" type="line"/>
      <point x="498.4578313253012" y="221.20481927710844" type="line"/>
      <point x="498.4578313253012" y="255.02409638554218" type="line" smooth="yes"/>
      <point x="498.4578313253012" y="405.0"/>
      <point x="416.2168674698795" y="496.9759036144578"/>
      <point x="281.26506024096386" y="496.9759036144578" type="curve" smooth="yes"/>
      <point x="141.1566265060241" y="496.9759036144578"/>
      <point x="42.33734939759036" y="393.8433734939759"/>
      <point x="42.33734939759036" y="242.8433734939759" type="curve" smooth="yes"/>
      <point x="42.33734939759036" y="87.42168674698794"/>
      <point x="140.57831325301206" y="-9.421686746987952"/>
    </contour>
  </outline>
</glyph>
<glyph name="f" format="2">
  <advance width="347.2289156626506"/>
  <unicode hex="0066"/>
  <anchor x="150.87951807228916" y="0.0" name="bottom"/>
  <anchor x="150.87951807228916" y="705.0" name="top"/>
  <outline>
    <contour>
      <point x="100.02409638554217" y="0.0" type="line"/>
      <point x="201.02409638554218" y="0.0" type="line"/>
      <point x="201.02409638554218" y="410.3253012048193" type="line"/>
      <point x="337.7831325301205" y="410.3253012048193" type="line"/>
      <point x="337.7831325301205" y="487.5542168674699" type="line"/>
      <point x="187.33734939759034" y="487.5542168674699" type="line"/>
      <point x="201.02409638554218" y="472.13253012048193" type="line"/>
      <point x="201.02409638554218" y="511.4457831325301" type="line" smooth="yes"/>
      <point x="201.02409638554218" y="586.8313253012049"/>
      <point x="233.6265060240964" y="624.7469879518072"/>
      <point x="314.7831325301205" y="630.0361445783133" type="curve" smooth="yes"/>
      <point x="360.7831325301205" y="633.0361445783133" type="line"/>
      <point x="353.65060240963857" y="709.1325301204819" type="line"/>
      <point x="309.855421686747" y="706.4216867469879" type="line" smooth="yes"/>
      <point x="166.97590361445782" y="698.0"/>
      <point x="100.02409638554217" y="631.0240963855422"/>
      <point x="100.02409638554217" y="497.2289156626506" type="curve" smooth="yes"/>
      <point x="100.02409638554217" y="460.9156626506024" type="line"/>
      <point x="128.50602409638554" y="487.5542168674699" type="line"/>
      <point x="5.156626506024097" y="487.5542168674699" type="line"/>
      <point x="5.156626506024097" y="410.3253012048193" type="line"/>
      <point x="100.02409638554217" y="410.3253012048193" type="line"/>
    </contour>
  </outline>
</glyph>
<glyph name="g" format="2">
  <advance width="594.1686746987951"/>
  <unicode hex="0067"/>
  <anchor x="297.95180722891564" y="484.0" name="top"/>
  <outline>
    <contour>
      <point x="292.13253012048193" y="-189.42168674698794" type="curve" smooth="yes"/>
      <point x="443.1686746987952" y="-189.42168674698794"/>
      <point x="523.3855421686746" y="-112.02409638554217"/>
      <point x="523.3855421686746" y="41.19277108433735" type="curve" smooth="yes"/>
      <point x="523.3855421686746" y="487.5542168674699" type="line"/>
      <point x="424.51807228915663" y="487.5542168674699" type="line"/>
      <point x="424.51807228915663" y="378.4578313253012" type="line"/>
      <point x="433.3855421686747" y="378.4578313253012" type="line"/>
      <point x="414.3855421686747" y="450.66265060240966"/>
      <point x="345.2289156626506" y="496.9759036144578"/>
      <point x="260.33734939759034" y="496.9759036144578" type="curve" smooth="yes"/>
      <point x="127.46987951807229" y="496.9759036144578"/>
      <point x="42.33734939759036" y="399.9759036144578"/>
      <point x="42.33734939759036" y="254.8433734939759" type="curve" smooth="yes"/>
      <point x="42.33734939759036" y="109.71084337349397"/>
      <point x="127.46987951807229" y="11.710843373493976"/>
      <point x="260.33734939759034" y="11.710843373493976" type="curve" smooth="yes"/>
      <point x="343.8072289156627" y="11.710843373493976"/>
      <point x="414.3855421686747" y="58.024096385542165"/>
      <point x="434.09638554216866" y="130.93975903614458" type="curve"/>
      <point x="424.8072289156627" y="130.93975903614458" type="line"/>
      <point x="424.8072289156627" y="28.50602409638554" type="line" smooth="yes"/>
      <point x="424.8072289156627" y="-63.27710843373494"/>
      <point x="377.49397590361446" y="-110.6144578313253"/>
      <point x="285.3132530120482" y="-110.6144578313253" type="curve" smooth="yes"/>
      <point x="218.13253012048193" y="-110.6144578313253"/>
      <point x="157.33734939759037" y="-92.90361445783132"/>
      <point x="99.3132530120482" y="-53.01204819277109" type="curve"/>
      <point x="67.93975903614458" y="-124.6867469879518" type="line"/>
      <point x="126.78313253012048" y="-168.55421686746988"/>
      <point x="204.3132530120482" y="-189.42168674698794"/>
    </contour>
    <contour>
      <point x="284.2168674698795" y="90.51807228915662" type="curve" smooth="yes"/>
      <point x="198.5421686746988" y="90.51807228915662"/>
      <point x="144.33734939759034" y="153.87951807228916"/>
      <point x="144.33734939759034" y="254.8433734939759" type="curve" smooth="yes"/>
      <point x="144.33734939759034" y="355.8072289156627"/>
      <point x="198.5421686746988" y="418.1686746987952"/>
      <point x="284.2168674698795" y="418.1686746987952" type="curve" smooth="yes"/>
      <point x="369.89156626506025" y="418.1686746987952"/>
      <point x="424.09638554216866" y="355.8072289156627"/>
      <point x="424.09638554216866" y="254.8433734939759" type="curve" smooth="yes"/>
      <point x="424.09638554216866" y="153.87951807228916"/>
      <point x="369.89156626506025" y="90.51807228915662"/>
    </contour>
  </outline>
</glyph>
<glyph name="h" format="2">
  <advance width="575.7469879518072"/>
  <unicode hex="0068"/>
  <anchor x="289.0843373493976" y="0.0" name="bottom"/>
  <anchor x="289.0843373493976" y="247.13253012048193" name="center"/>
  <anchor x="274.3734939759036" y="352.28915662650604" name="dot"/>
  <anchor x="171.9277108433735" y="585.6867469879518" name="stroke"/>
  <anchor x="289.3734939759036" y="705.0" name="top"/>
  <anchor x="205.25301204819277" y="705.0" name="topright"/>
  <outline>
    <contour>
      <point x="70.78313253012048" y="0.0" type="line"/>
      <point x="171.7831325301205" y="0.0" type="line"/>
      <point x="171.7831325301205" y="275.86746987951807" type="line" smooth="yes"/>
      <point x="171.7831325301205" y="360.5421686746988"/>
      <point x="224.56626506024097" y="416.03614457831327"/>
      <point x="306.2409638554217" y="416.03614457831327" type="curve" smooth="yes"/>
      <point x="375.49397590361446" y="416.03614457831327"/>
      <point x="406.67469879518075" y="378.9879518072289"/>
      <point x="406.67469879518075" y="295.4698795180723" type="curve" smooth="yes"/>
      <point x="406.67469879518075" y="0.0" type="line"/>
      <point x="507.6746987951807" y="0.0" type="line"/>
      <point x="507.6746987951807" y="300.89156626506025" type="line" smooth="yes"/>
      <point x="507.6746987951807" y="432.13253012048193"/>
      <point x="451.3855421686747" y="496.9759036144578"/>
      <point x="334.6746987951807" y="496.9759036144578" type="curve" smooth="yes"/>
      <point x="253.93975903614458" y="496.9759036144578"/>
      <point x="186.49397590361446" y="457.8192771084337"/>
      <point x="158.36144578313252" y="383.7710843373494" type="curve"/>
      <point x="171.7831325301205" y="383.7710843373494" type="line"/>
      <point x="171.7831325301205" y="705.0" type="line"/>
      <point x="70.78313253012048" y="705.0" type="line"/>
    </contour>
  </outline>
</glyph>
<glyph name="k" format="2">
  <advance width="516.3373493975904"/>
  <unicode hex="006B"/>
  <anchor x="258.1686746987952" y="0.0" name="bottom"/>
  <anchor x="289.3734939759036" y="705.0" name="top"/>
  <outline>
    <contour>
      <point x="70.78313253012048" y="0.0" type="line"/>
      <point x="171.7831325301205" y="0.0" type="line"/>
      <point x="171.7831325301205" y="223.49397590361446" type="line"/>
      <point x="173.7831325301205" y="223.49397590361446" type="line"/>
      <point x="403.0240963855422" y="0.0" type="line"/>
      <point x="528.843373493976" y="0.0" type="line"/>
      <point x="253.51807228915663" y="276.95180722891564" type="line"/>
      <point x="253.51807228915663" y="229.57831325301206" type="line"/>
      <point x="511.0843373493976" y="487.5542168674699" type="line"/>
      <point x="386.3975903614458" y="487.5542168674699" type="line"/>
      <point x="173.7831325301205" y="274.9277108433735" type="line"/>
      <point x="171.7831325301205" y="274.9277108433735" type="line"/>
      <point x="171.7831325301205" y="705.0" type="line"/>
      <point x="70.78313253012048" y="705.0" type="line"/>
    </contour>
  </outline>
</glyph>
<glyph name="l" format="2">
  <advance width="306.27710843373495"/>
  <unicode hex="006C"/>
  <anchor x="188.81927710843374" y="0.0" name="bottom"/>
  <anchor x="130.9277108433735" y="357.0" name="center"/>
  <anchor x="292.4698795180723" y="357.0" name="dot"/>
  <anchor x="120.92771084337349" y="705.0" name="top"/>
  <anchor x="214.67469879518072" y="705.0" name="topright"/>
  <outline>
    <contour>
      <point x="229.79518072289156" y="-9.421686746987952" type="curve" smooth="yes"/>
      <point x="251.6144578313253" y="-9.421686746987952"/>
      <point x="272.5903614457831" y="-6.710843373493976"/>
      <point x="294.855421686747" y="-1.2891566265060241" type="curve"/>
      <point x="297.144578313253" y="80.36144578313252" type="line"/>
      <point x="282.855421686747" y="76.36144578313252"/>
      <point x="268.56626506024094" y="75.07228915662651"/>
      <point x="252.9879518072289" y="75.07228915662651" type="curve" smooth="yes"/>
      <point x="198.80722891566265" y="75.07228915662651"/>
      <point x="171.7831325301205" y="108.96385542168674"/>
      <point x="171.7831325301205" y="174.32530120481928" type="curve" smooth="yes"/>
      <point x="171.7831325301205" y="705.0" type="line"/>
      <point x="70.78313253012048" y="705.0" type="line"/>
      <point x="70.78313253012048" y="168.03614457831324" type="line" smooth="yes"/>
      <point x="70.78313253012048" y="52.265060240963855"/>
      <point x="123.04819277108433" y="-9.421686746987952"/>
    </contour>
  </outline>
</glyph>
<glyph name="m" format="2">
  <advance width="865.722891566265"/>
  <unicode hex="006D"/>
  <anchor x="434.2168674698795" y="0.0" name="bottom"/>
  <anchor x="434.2168674698795" y="484.0" name="top"/>
  <outline>
    <contour>
      <point x="72.78313253012048" y="0.0" type="line"/>
      <point x="173.7831325301205" y="0.0" type="line"/>
      <point x="173.7831325301205" y="273.0240963855422" type="line" smooth="yes"/>
      <point x="173.7831325301205" y="361.2530120481928"/>
      <point x="218.56626506024097" y="416.03614457831327"/>
      <point x="292.0843373493976" y="416.03614457831327" type="curve" smooth="yes"/>
      <point x="357.1807228915663" y="416.03614457831327"/>
      <point x="383.3614457831325" y="378.9879518072289"/>
      <point x="383.3614457831325" y="296.1807228915663" type="curve" smooth="yes"/>
      <point x="383.3614457831325" y="0.0" type="line"/>
      <point x="484.3614457831325" y="0.0" type="line"/>
      <point x="484.3614457831325" y="273.0240963855422" type="line" smooth="yes"/>
      <point x="484.3614457831325" y="361.2530120481928"/>
      <point x="529.855421686747" y="416.03614457831327"/>
      <point x="602.6626506024096" y="416.03614457831327" type="curve" smooth="yes"/>
      <point x="668.4698795180723" y="416.03614457831327"/>
      <point x="694.6506024096385" y="378.9879518072289"/>
      <point x="694.6506024096385" y="296.1807228915663" type="curve" smooth="yes"/>
      <point x="694.6506024096385" y="0.0" type="line"/>
      <point x="795.6506024096385" y="0.0" type="line"/>
      <point x="795.6506024096385" y="300.89156626506025" type="line" smooth="yes"/>
      <point x="795.6506024096385" y="433.13253012048193"/>
      <point x="741.6506024096385" y="496.9759036144578"/>
      <point x="632.3855421686746" y="496.9759036144578" type="curve" smooth="yes"/>
      <point x="550.3614457831325" y="496.9759036144578"/>
      <point x="485.0722891566265" y="451.2409638554217"/>
      <point x="459.8072289156627" y="379.2168674698795" type="curve"/>
      <point x="474.09638554216866" y="379.2168674698795" type="line"/>
      <point x="455.5421686746988" y="458.5301204819277"/>
      <point x="403.8313253012048" y="496.9759036144578"/>
      <point x="323.2289156626506" y="496.9759036144578" type="curve" smooth="yes"/>
      <point x="244.36144578313252" y="496.9759036144578"/>
      <point x="185.7831325301205" y="455.10843373493975"/>
      <point x="160.36144578313252" y="383.7710843373494" type="curve"/>
      <point x="171.36144578313252" y="383.7710843373494" type="line"/>
      <point x="171.36144578313252" y="487.5542168674699" type="line"/>
      <point x="72.78313253012048" y="487.5542168674699" type="line"/>
    </contour>
  </outline>
</glyph>
<glyph name="n" format="2">
  <advance width="575.7469879518072"/>
  <unicode hex="006E"/>
  <anchor x="289.0843373493976" y="0.0" name="bottom"/>
  <anchor x="289.0843373493976" y="484.0" name="top"/>
  <outline>
    <contour>
      <point x="70.78313253012048" y="0.0" type="line"/>
      <point x="171.7831325301205" y="0.0" type="line"/>
      <point x="171.7831325301205" y="275.86746987951807" type="line" smooth="yes"/>
      <point x="171.7831325301205" y="360.5421686746988"/>
      <point x="224.56626506024097" y="416.03614457831327"/>
      <point x="306.2409638554217" y="416.03614457831327" type="curve" smooth="yes"/>
      <point x="375.49397590361446" y="416.03614457831327"/>
      <point x="406.67469879518075" y="378.9879518072289"/>
      <point x="406.67469879518075" y="295.4698795180723" type="curve" smooth="yes"/>
      <point x="406.67469879518075" y="0.0" type="line"/>
      <point x="507.6746987951807" y="0.0" type="line"/>
      <point x="507.6746987951807" y="300.89156626506025" type="line" smooth="yes"/>
      <point x="507.6746987951807" y="433.421686746988"/>
      <point x="451.3855421686747" y="496.9759036144578"/>
      <point x="334.6746987951807" y="496.9759036144578" type="curve" smooth="yes"/>
      <point x="253.93975903614458" y="496.9759036144578"/>
      <point x="186.49397590361446" y="457.8192771084337"/>
      <point x="158.36144578313252" y="383.7710843373494" type="curve"/>
      <point x="169.36144578313252" y="383.7710843373494" type="line"/>
      <point x="169.36144578313252" y="487.5542168674699" type="line"/>
      <point x="70.78313253012048" y="487.5542168674699" type="line"/>
    </contour>
  </outline>
</glyph>
<glyph name="q" format="2">
  <advance width="590.7469879518072"/>
  <unicode hex="0071"/>
  <anchor x="294.7951807228916" y="0.0" name="bottom"/>
  <anchor x="294.7951807228916" y="484.0" name="top"/>
  <outline>
    <contour>
      <point x="418.96385542168673" y="-180.0" type="line"/>
      <point x="519.9638554216867" y="-180.0" type="line"/>
      <point x="519.9638554216867" y="487.5542168674699" type="line"/>
      <point x="421.09638554216866" y="487.5542168674699" type="line"/>
      <point x="421.09638554216866" y="377.90361445783134" type="line"/>
      <point x="430.67469879518075" y="377.90361445783134" type="line"/>
      <point x="410.09638554216866" y="449.95180722891564"/>
      <point x="342.51807228915663" y="496.9759036144578"/>
      <point x="257.33734939759034" y="496.9759036144578" type="curve" smooth="yes"/>
      <point x="128.46987951807228" y="496.9759036144578"/>
      <point x="42.33734939759036" y="399.9759036144578"/>
      <point x="42.33734939759036" y="244.13253012048193" type="curve" smooth="yes"/>
      <point x="42.33734939759036" y="88.28915662650603"/>
      <point x="127.46987951807229" y="-9.421686746987952"/>
      <point x="257.33734939759034" y="-9.421686746987952" type="curve" smooth="yes"/>
      <point x="341.8072289156627" y="-9.421686746987952"/>
      <point x="408.67469879518075" y="36.89156626506024"/>
      <point x="429.96385542168673" y="107.51807228915663" type="curve"/>
      <point x="418.96385542168673" y="107.51807228915663" type="line"/>
    </contour>
    <contour>
      <point x="282.50602409638554" y="69.3855421686747" type="curve" smooth="yes"/>
      <point x="198.5421686746988" y="69.3855421686747"/>
      <point x="144.33734939759034" y="130.32530120481928"/>
      <point x="144.33734939759034" y="244.13253012048193" type="curve" smooth="yes"/>
      <point x="144.33734939759034" y="357.93975903614455"/>
      <point x="198.5421686746988" y="418.1686746987952"/>
      <point x="282.50602409638554" y="418.1686746987952" type="curve" smooth="yes"/>
      <point x="365.7590361445783" y="418.1686746987952"/>
      <point x="420.67469879518075" y="357.93975903614455"/>
      <point x="420.67469879518075" y="244.13253012048193" type="curve" smooth="yes"/>
      <point x="420.67469879518075" y="130.32530120481928"/>
      <point x="365.7590361445783" y="69.3855421686747"/>
    </contour>
  </outline>
</glyph>
<glyph name="r" format="2">
  <advance width="373.2048192771084"/>
  <unicode hex="0072"/>
  <anchor x="121.63855421686748" y="0.0" name="bottom"/>
  <anchor x="220.34939759036143" y="484.0" name="top"/>
  <outline>
    <contour>
      <point x="70.78313253012048" y="0.0" type="line"/>
      <point x="173.2048192771084" y="0.0" type="line"/>
      <point x="173.2048192771084" y="270.8072289156627" type="line" smooth="yes"/>
      <point x="173.2048192771084" y="352.30120481927713"/>
      <point x="219.12048192771084" y="399.50602409638554"/>
      <point x="306.03614457831327" y="407.7951807228916" type="curve" smooth="yes"/>
      <point x="367.04819277108436" y="413.9277108433735" type="line"/>
      <point x="359.9156626506024" y="500.26506024096386" type="line"/>
      <point x="326.8313253012048" y="497.5542168674699" type="line" smooth="yes"/>
      <point x="234.96385542168673" y="490.5542168674699"/>
      <point x="179.96385542168673" y="450.71084337349396"/>
      <point x="159.36144578313252" y="371.0" type="curve"/>
      <point x="169.36144578313252" y="371.0" type="line"/>
      <point x="169.36144578313252" y="487.5542168674699" type="line"/>
      <point x="70.78313253012048" y="487.5542168674699" type="line"/>
    </contour>
  </outline>
</glyph>
<glyph name="s" format="2">
  <advance width="484.2409638554217"/>
  <unicode hex="0073"/>
  <anchor x="241.6867469879518" y="0.0" name="bottom"/>
  <anchor x="250.97590361445782" y="484.0" name="top"/>
  <outline>
    <contour>
      <point x="241.6867469879518" y="-9.421686746987952" type="curve" smooth="yes"/>
      <point x="363.06024096385545" y="-9.421686746987952"/>
      <point x="442.5903614457831" y="46.8433734939759"/>
      <point x="442.5903614457831" y="140.2168674698795" type="curve" smooth="yes"/>
      <point x="442.5903614457831" y="210.19277108433735"/>
      <point x="397.7469879518072" y="250.74698795180723"/>
      <point x="311.4578313253012" y="268.1927710843373" type="curve" smooth="yes"/>
      <point x="216.3734939759036" y="287.48192771084337" type="line" smooth="yes"/>
      <point x="170.72289156626505" y="296.7951807228916"/>
      <point x="150.40963855421688" y="317.8192771084337"/>
      <point x="150.40963855421688" y="351.0240963855422" type="curve" smooth="yes"/>
      <point x="150.40963855421688" y="394.3855421686747"/>
      <point x="186.03614457831324" y="423.144578313253"/>
      <point x="255.95180722891567" y="423.144578313253" type="curve" smooth="yes"/>
      <point x="306.3975903614458" y="423.144578313253"/>
      <point x="362.50602409638554" y="403.144578313253"/>
      <point x="401.50602409638554" y="368.8313253012048" type="curve"/>
      <point x="431.4578313253012" y="436.95180722891564" type="line"/>
      <point x="389.34939759036143" y="476.5301204819277"/>
      <point x="323.66265060240966" y="496.9759036144578"/>
      <point x="255.53012048192772" y="496.9759036144578" type="curve" smooth="yes"/>
      <point x="137.73493975903614" y="496.9759036144578"/>
      <point x="57.36144578313253" y="437.71084337349396"/>
      <point x="57.36144578313253" y="346.4698795180723" type="curve" smooth="yes"/>
      <point x="57.36144578313253" y="277.2048192771084"/>
      <point x="99.62650602409639" y="233.36144578313252"/>
      <point x="182.9156626506024" y="216.20481927710844" type="curve" smooth="yes"/>
      <point x="278.0" y="196.9156626506024" type="line" smooth="yes"/>
      <point x="326.2289156626506" y="186.6024096385542"/>
      <point x="349.5421686746988" y="168.289156626506"/>
      <point x="349.5421686746988" y="133.95180722891567" type="curve" smooth="yes"/>
      <point x="349.5421686746988" y="91.59036144578313"/>
      <point x="313.9156626506024" y="64.40963855421687"/>
      <point x="243.26506024096386" y="64.40963855421687" type="curve" smooth="yes"/>
      <point x="183.13253012048193" y="64.40963855421687"/>
      <point x="120.73493975903614" y="82.83132530120481"/>
      <point x="72.02409638554217" y="118.43373493975903" type="curve"/>
      <point x="43.493975903614455" y="50.31325301204819" type="line"/>
      <point x="89.46987951807229" y="12.156626506024097"/>
      <point x="162.73493975903614" y="-9.421686746987952"/>
    </contour>
  </outline>
</glyph>
<glyph name="t" format="2">
  <advance width="365.49397590361446"/>
  <unicode hex="0074"/>
  <anchor x="222.19277108433735" y="0.0" name="bottom"/>
  <anchor x="171.6144578313253" y="264.1807228915663" name="center"/>
  <anchor x="148.16867469879517" y="635.0" name="top"/>
  <anchor x="260.5421686746988" y="705.0" name="topright"/>
  <outline>
    <contour>
      <point x="279.1686746987952" y="-9.421686746987952" type="curve" smooth="yes"/>
      <point x="311.144578313253" y="-9.421686746987952"/>
      <point x="350.69879518072287" y="-0.4216867469879517"/>
      <point x="371.2289156626506" y="11.132530120481928" type="curve"/>
      <point x="354.8313253012048" y="86.65060240963855" type="line"/>
      <point x="335.56626506024094" y="80.65060240963855"/>
      <point x="314.69879518072287" y="75.07228915662651"/>
      <point x="294.2530120481928" y="75.07228915662651" type="curve" smooth="yes"/>
      <point x="226.04819277108433" y="75.07228915662651"/>
      <point x="198.3132530120482" y="111.40963855421687"/>
      <point x="198.3132530120482" y="182.06024096385542" type="curve" smooth="yes"/>
      <point x="198.3132530120482" y="410.3253012048193" type="line"/>
      <point x="349.49397590361446" y="410.3253012048193" type="line"/>
      <point x="349.49397590361446" y="487.5542168674699" type="line"/>
      <point x="198.3132530120482" y="487.5542168674699" type="line"/>
      <point x="198.3132530120482" y="635.0" type="line"/>
      <point x="97.3132530120482" y="635.0" type="line"/>
      <point x="97.3132530120482" y="487.5542168674699" type="line"/>
      <point x="2.4457831325301207" y="487.5542168674699" type="line"/>
      <point x="2.4457831325301207" y="410.3253012048193" type="line"/>
      <point x="97.3132530120482" y="410.3253012048193" type="line"/>
      <point x="97.3132530120482" y="174.48192771084337" type="line" smooth="yes"/>
      <point x="97.3132530120482" y="54.8433734939759"/>
      <point x="156.8433734939759" y="-9.421686746987952"/>
    </contour>
  </outline>
</glyph>
<glyph name="u" format="2">
  <advance width="569.1686746987951"/>
  <unicode hex="0075"/>
  <anchor x="284.3734939759036" y="0.0" name="bottom"/>
  <anchor x="473.50602409638554" y="0.0" name="ogonek"/>
  <anchor x="284.3734939759036" y="485.0" name="top"/>
  <anchor x="420.71084337349396" y="484.0" name="topright"/>
  <outline>
    <contour>
      <point x="245.46987951807228" y="-9.421686746987952" type="curve" smooth="yes"/>
      <point x="324.2048192771084" y="-9.421686746987952"/>
      <point x="386.09638554216866" y="32.024096385542165"/>
      <point x="413.2289156626506" y="107.49397590361446" type="curve"/>
      <point x="399.8072289156627" y="107.49397590361446" type="line"/>
      <point x="399.8072289156627" y="0.0" type="line"/>
      <point x="498.3855421686747" y="0.0" type="line"/>
      <point x="498.3855421686747" y="487.5542168674699" type="line"/>
      <point x="397.3855421686747" y="487.5542168674699" type="line"/>
      <point x="397.3855421686747" y="211.97590361445782" type="line" smooth="yes"/>
      <point x="397.3855421686747" y="127.3012048192771"/>
      <point x="344.6024096385542" y="71.51807228915662"/>
      <point x="268.9277108433735" y="71.51807228915662" type="curve" smooth="yes"/>
      <point x="199.8313253012048" y="71.51807228915662"/>
      <point x="169.0722891566265" y="108.85542168674698"/>
      <point x="169.0722891566265" y="187.3975903614458" type="curve" smooth="yes"/>
      <point x="169.0722891566265" y="487.5542168674699" type="line"/>
      <point x="68.07228915662651" y="487.5542168674699" type="line"/>
      <point x="68.07228915662651" y="187.66265060240963" type="line" smooth="yes"/>
      <point x="68.07228915662651" y="57.42168674698795"/>
      <point x="125.49397590361446" y="-9.421686746987952"/>
    </contour>
  </outline>
</glyph>
<glyph name="v" format="2">
  <advance width="520.3493975903615"/>
  <unicode hex="0076"/>
  <anchor x="261.2409638554217" y="0.0" name="bottom"/>
  <anchor x="261.2409638554217" y="484.0" name="top"/>
  <outline>
    <contour>
      <point x="214.49397590361446" y="0.0" type="line"/>
      <point x="305.144578313253" y="0.0" type="line"/>
      <point x="517.5421686746988" y="487.5542168674699" type="line"/>
      <point x="415.09638554216866" y="487.5542168674699" type="line"/>
      <point x="247.81927710843374" y="82.53012048192771" type="line"/>
      <point x="276.0843373493976" y="82.53012048192771" type="line"/>
      <point x="112.65060240963855" y="487.5542168674699" type="line"/>
      <point x="4.2289156626506035" y="487.5542168674699" type="line"/>
    </contour>
  </outline>
</glyph>
<glyph name="w" format="2">
  <advance width="846.3493975903615"/>
  <unicode hex="0077"/>
  <anchor x="423.5301204819277" y="0.0" name="bottom"/>
  <anchor x="423.5301204819277" y="484.0" name="top"/>
  <outline>
    <contour>
      <point x="202.89156626506025" y="0.0" type="line"/>
      <point x="294.8313253012048" y="0.0" type="line"/>
      <point x="447.6385542168675" y="415.86746987951807" type="line"/>
      <point x="398.1566265060241" y="415.86746987951807" type="line"/>
      <point x="552.2289156626506" y="0.0" type="line"/>
      <point x="643.8795180722891" y="0.0" type="line"/>
      <point x="830.0963855421687" y="487.5542168674699" type="line"/>
      <point x="731.0722891566265" y="487.5542168674699" type="line"/>
      <point x="586.6867469879518" y="84.79518072289156" type="line"/>
      <point x="609.1325301204819" y="84.79518072289156" type="line"/>
      <point x="464.7469879518072" y="487.5542168674699" type="line"/>
      <point x="387.1566265060241" y="487.5542168674699" type="line"/>
      <point x="240.19277108433735" y="84.79518072289156" type="line"/>
      <point x="264.06024096385545" y="84.79518072289156" type="line"/>
      <point x="120.83132530120481" y="487.5542168674699" type="line"/>
      <point x="16.542168674698797" y="487.5542168674699" type="line"/>
    </contour>
  </outline>
</glyph>
<glyph name="x" format="2">
  <advance width="534.433734939759"/>
  <unicode hex="0078"/>
  <anchor x="267.9277108433735" y="0.0" name="bottom"/>
  <anchor x="267.9277108433735" y="484.0" name="top"/>
  <outline>
    <contour>
      <point x="6.2530120481927725" y="0.0" type="line"/>
      <point x="124.78313253012048" y="0.0" type="line"/>
      <point x="284.4578313253012" y="202.12048192771084" type="line"/>
      <point x="249.97590361445782" y="202.12048192771084" type="line"/>
      <point x="410.3614457831325" y="0.0" type="line"/>
      <point x="529.8915662650602" y="0.0" type="line"/>
      <point x="307.2530120481928" y="273.9277108433735" type="line"/>
      <point x="307.2530120481928" y="228.6265060240964" type="line"/>
      <point x="517.4698795180723" y="487.5542168674699" type="line"/>
      <point x="398.93975903614455" y="487.5542168674699" type="line"/>
      <point x="250.26506024096386" y="298.433734939759" type="line"/>
      <point x="285.87951807228916" y="298.433734939759" type="line"/>
      <point x="137.2048192771084" y="487.5542168674699" type="line"/>
      <point x="18.674698795180724" y="487.5542168674699" type="line"/>
      <point x="229.46987951807228" y="227.04819277108433" type="line"/>
      <point x="229.46987951807228" y="276.50602409638554" type="line"/>
    </contour>
  </outline>
</glyph>
<glyph name="y" format="2">
  <advance width="519.6385542168674"/>
  <unicode hex="0079"/>
  <anchor x="398.72289156626505" y="0.0" name="bottom"/>
  <anchor x="260.5301204819277" y="484.0" name="top"/>
  <outline>
    <contour>
      <point x="121.43373493975903" y="-180.0" type="line"/>
      <point x="226.72289156626505" y="-180.0" type="line"/>
      <point x="517.8313253012049" y="487.5542168674699" type="line"/>
      <point x="414.3855421686747" y="487.5542168674699" type="line"/>
      <point x="247.81927710843374" y="82.53012048192771" type="line"/>
      <point x="276.0843373493976" y="82.53012048192771" type="line"/>
      <point x="111.93975903614458" y="487.5542168674699" type="line"/>
      <point x="3.5180722891566276" y="487.5542168674699" type="line"/>
      <point x="217.36144578313252" y="-8.734939759036145" type="line"/>
      <point x="217.36144578313252" y="34.01204819277108" type="line"/>
    </contour>
  </outline>
</glyph>
<glyph name="z" format="2">
  <advance width="468.2168674698795"/>
  <unicode hex="007A"/>
  <anchor x="240.6867469879518" y="0.0" name="bottom"/>
  <anchor x="240.6867469879518" y="484.0" name="top"/>
  <outline>
    <contour>
      <point x="52.18072289156626" y="0.0" type="line"/>
      <point x="440.1927710843373" y="0.0" type="line"/>
      <point x="440.1927710843373" y="77.22891566265059" type="line"/>
      <point x="141.2289156626506" y="77.22891566265059" type="line"/>
      <point x="141.2289156626506" y="49.72289156626506" type="line"/>
      <point x="429.1927710843373" y="421.30120481927713" type="line"/>
      <point x="429.1927710843373" y="487.5542168674699" type="line"/>
      <point x="52.18072289156626" y="487.5542168674699" type="line"/>
      <point x="52.18072289156626" y="410.3253012048193" type="line"/>
      <point x="337.72289156626505" y="410.3253012048193" type="line"/>
      <point x="337.72289156626505" y="435.4096385542169" type="line"/>
      <point x="52.18072289156626" y="66.25301204819277" type="line"/>
    </contour>
  </outline>
</glyph>
<glyph name="braceright" format="2">
  <advance width="369.89156626506025"/>
  <unicode hex="007D"/>
  <outline>
    <contour>
      <point x="9.686746987951807" y="-180.0" type="line"/>
      <point x="115.43373493975903" y="-180.0" type="line" smooth="yes"/>
      <point x="185.7831325301205" y="-180.0"/>
      <point x="225.1566265060241" y="-140.04819277108433"/>
      <point x="225.1566265060241" y="-69.40963855421687" type="curve" smooth="yes"/>
      <point x="225.1566265060241" y="142.80722891566265" type="line" smooth="yes"/>
      <point x="225.1566265060241" y="197.67469879518072"/>
      <point x="243.3132530120482" y="219.25301204819277"/>
      <point x="292.6265060240964" y="222.67469879518072" type="curve" smooth="yes"/>
      <point x="323.71084337349396" y="225.09638554216866" type="line"/>
      <point x="323.71084337349396" y="300.1927710843373" type="line"/>
      <point x="292.6265060240964" y="302.6144578313253" type="line" smooth="yes"/>
      <point x="243.3132530120482" y="306.32530120481925"/>
      <point x="225.1566265060241" y="327.6144578313253"/>
      <point x="225.1566265060241" y="382.48192771084337" type="curve" smooth="yes"/>
      <point x="225.1566265060241" y="594.4096385542168" type="line" smooth="yes"/>
      <point x="225.1566265060241" y="665.0481927710844"/>
      <point x="185.7831325301205" y="705.0"/>
      <point x="115.43373493975903" y="705.0" type="curve" smooth="yes"/>
      <point x="9.686746987951807" y="705.0" type="line"/>
      <point x="9.686746987951807" y="627.4819277108434" type="line"/>
      <point x="81.28915662650603" y="627.4819277108434" type="line" smooth="yes"/>
      <point x="110.57831325301206" y="627.4819277108434"/>
      <point x="124.1566265060241" y="613.1927710843373"/>
      <point x="124.1566265060241" y="582.9036144578313" type="curve" smooth="yes"/>
      <point x="124.1566265060241" y="370.95180722891564" type="line" smooth="yes"/>
      <point x="124.1566265060241" y="309.8192771084337"/>
      <point x="165.55421686746988" y="260.28915662650604"/>
      <point x="217.26506024096386" y="260.28915662650604" type="curve"/>
      <point x="217.26506024096386" y="264.28915662650604" type="line"/>
      <point x="165.55421686746988" y="264.28915662650604"/>
      <point x="124.1566265060241" y="215.46987951807228"/>
      <point x="124.1566265060241" y="154.33734939759037" type="curve" smooth="yes"/>
      <point x="124.1566265060241" y="-57.903614457831324" type="line" smooth="yes"/>
      <point x="124.1566265060241" y="-88.19277108433735"/>
      <point x="110.57831325301206" y="-102.48192771084338"/>
      <point x="81.28915662650603" y="-102.48192771084338" type="curve" smooth="yes"/>
      <point x="9.686746987951807" y="-102.48192771084338" type="line"/>
    </contour>
  </outline>
</glyph>
<glyph name="exclamdown" format="2">
  <advance width="237.3012048192771"/>
  <unicode hex="00A1"/>
  <outline>
    <contour>
      <point x="56.25301204819277" y="-180.0" type="line"/>
      <point x="181.04819277108433" y="-180.0" type="line"/>
      <point x="149.56626506024097" y="292.43373493975906" type="line"/>
      <point x="87.73493975903614" y="292.43373493975906" type="line"/>
    </contour>
    <contour>
      <point x="58.915662650602414" y="368.50602409638554" type="line"/>
      <point x="178.3855421686747" y="368.50602409638554" type="line"/>
      <point x="178.3855421686747" y="487.5542168674699" type="line"/>
      <point x="58.915662650602414" y="487.5542168674699" type="line"/>
    </contour>
  </outline>
</glyph>
<glyph name="cent" format="2">
  <advance width="600.0"/>
  <unicode hex="00A2"/>
  <outline>
    <contour>
      <point x="278.2289156626506" y="-115.0" type="line"/>
      <point x="360.87951807228916" y="-115.0" type="line"/>
      <point x="360.87951807228916" y="15.819277108433734" type="line"/>
      <point x="334.2409638554217" y="-7.710843373493976" type="line"/>
      <point x="402.48192771084337" y="-6.289156626506024"/>
      <point x="469.48192771084337" y="19.42168674698795"/>
      <point x="509.32530120481925" y="57.57831325301205" type="curve"/>
      <point x="478.66265060240966" y="127.96385542168674" type="line"/>
      <point x="441.0843373493976" y="94.36144578313252"/>
      <point x="390.50602409638554" y="75.65060240963855"/>
      <point x="340.48192771084337" y="75.65060240963855" type="curve" smooth="yes"/>
      <point x="246.5421686746988" y="75.65060240963855"/>
      <point x="190.33734939759034" y="143.56626506024097"/>
      <point x="190.33734939759034" y="245.55421686746988" type="curve" smooth="yes"/>
      <point x="190.33734939759034" y="345.2530120481928"/>
      <point x="247.8313253012048" y="413.3253012048193"/>
      <point x="341.48192771084337" y="413.3253012048193" type="curve" smooth="yes"/>
      <point x="391.2168674698795" y="413.3253012048193"/>
      <point x="441.0843373493976" y="394.3253012048193"/>
      <point x="478.66265060240966" y="360.72289156626505" type="curve"/>
      <point x="509.32530120481925" y="431.3975903614458" type="line"/>
      <point x="471.48192771084337" y="469.9759036144578"/>
      <point x="402.34939759036143" y="493.5542168674699"/>
      <point x="336.2409638554217" y="493.5542168674699" type="curve"/>
      <point x="360.87951807228916" y="466.578313253012" type="line"/>
      <point x="360.87951807228916" y="607.5542168674699" type="line"/>
      <point x="278.2289156626506" y="607.5542168674699" type="line"/>
      <point x="278.2289156626506" y="461.6024096385542" type="line"/>
      <point x="294.33734939759034" y="490.71084337349396" type="line"/>
      <point x="168.9156626506024" y="474.3132530120482"/>
      <point x="86.91566265060241" y="374.73493975903614"/>
      <point x="86.91566265060241" y="244.42168674698794" type="curve" smooth="yes"/>
      <point x="86.91566265060241" y="108.39759036144578"/>
      <point x="169.0722891566265" y="9.662650602409638"/>
      <point x="294.6265060240964" y="-5.289156626506024" type="curve"/>
      <point x="278.2289156626506" y="20.08433734939759" type="line"/>
    </contour>
  </outline>
</glyph>
<glyph name="yen" format="2">
  <advance width="600.0"/>
  <unicode hex="00A5"/>
  <outline>
    <contour>
      <point x="248.43373493975903" y="0.0" type="line"/>
      <point x="351.56626506024094" y="0.0" type="line"/>
      <point x="351.56626506024094" y="167.67469879518072" type="line"/>
      <point x="529.6867469879518" y="167.67469879518072" type="line"/>
      <point x="529.6867469879518" y="240.63855421686748" type="line"/>
      <point x="351.56626506024094" y="240.63855421686748" type="line"/>
      <point x="351.56626506024094" y="321.93975903614455" type="line"/>
      <point x="529.6867469879518" y="321.93975903614455" type="line"/>
      <point x="529.6867469879518" y="394.90361445783134" type="line"/>
      <point x="378.9879518072289" y="394.90361445783134" type="line"/>
      <point x="378.9879518072289" y="377.2409638554217" type="line"/>
      <point x="609.9277108433735" y="705.0" type="line"/>
      <point x="496.66265060240966" y="705.0" type="line"/>
      <point x="288.0240963855422" y="403.93975903614455" type="line"/>
      <point x="312.26506024096386" y="403.93975903614455" type="line"/>
      <point x="104.04819277108433" y="705.0" type="line"/>
      <point x="-9.927710843373493" y="705.0" type="line"/>
      <point x="222.3012048192771" y="377.2409638554217" type="line"/>
      <point x="222.3012048192771" y="394.90361445783134" type="line"/>
      <point x="70.3132530120482" y="394.90361445783134" type="line"/>
      <point x="70.3132530120482" y="321.93975903614455" type="line"/>
      <point x="248.43373493975903" y="321.93975903614455" type="line"/>
      <point x="248.43373493975903" y="240.63855421686748" type="line"/>
      <point x="70.3132530120482" y="240.63855421686748" type="line"/>
      <point x="70.3132530120482" y="167.67469879518072" type="line"/>
      <point x="248.43373493975903" y="167.67469879518072" type="line"/>
    </contour>
  </outline>
</glyph>
<glyph name="brokenbar" format="2">
  <advance width="275.9879518072289"/>
  <unicode hex="00A6"/>
  <outline>
    <contour>
      <point x="87.49397590361446" y="372.0" type="line"/>
      <point x="188.49397590361446" y="372.0" type="line"/>
      <point x="188.49397590361446" y="705.0" type="line"/>
      <point x="87.49397590361446" y="705.0" type="line"/>
    </contour>
    <contour>
      <point x="87.49397590361446" y="-180.0" type="line"/>
      <point x="188.49397590361446" y="-180.0" type="line"/>
      <point x="188.49397590361446" y="153.710843373494" type="line"/>
      <point x="87.49397590361446" y="153.710843373494" type="line"/>
    </contour>
  </outline>
</glyph>
<glyph name="section" format="2">
  <advance width="555.6987951807229"/>
  <unicode hex="00A7"/>
  <outline>
    <contour>
      <point x="254.6144578313253" y="-189.42168674698794" type="curve" smooth="yes"/>
      <point x="385.6746987951807" y="-189.42168674698794"/>
      <point x="476.93975903614455" y="-120.86746987951807"/>
      <point x="476.93975903614455" y="-7.602409638554217" type="curve" smooth="yes"/>
      <point x="476.93975903614455" y="35.53012048192771"/>
      <point x="463.3855421686747" y="66.63855421686748"/>
      <point x="444.30120481927713" y="86.74698795180723" type="curve"/>
      <point x="435.7469879518072" y="58.53012048192771" type="line"/>
      <point x="486.09638554216866" y="92.92771084337349"/>
      <point x="517.6506024096385" y="147.63855421686748"/>
      <point x="517.6506024096385" y="206.59036144578312" type="curve" smooth="yes"/>
      <point x="517.6506024096385" y="280.30120481927713"/>
      <point x="482.3855421686747" y="331.27710843373495"/>
      <point x="377.9156626506024" y="379.87951807228916" type="curve" smooth="yes"/>
      <point x="260.87951807228916" y="433.69879518072287" type="line" smooth="yes"/>
      <point x="197.51807228915663" y="463.1686746987952"/>
      <point x="177.49397590361446" y="493.9277108433735"/>
      <point x="177.49397590361446" y="539.0" type="curve" smooth="yes"/>
      <point x="177.49397590361446" y="602.9638554216867"/>
      <point x="227.27710843373495" y="639.5903614457832"/>
      <point x="297.06024096385545" y="639.5903614457832" type="curve" smooth="yes"/>
      <point x="354.7951807228916" y="639.5903614457832"/>
      <point x="420.34939759036143" y="619.0120481927711"/>
      <point x="462.90361445783134" y="585.9879518072289" type="curve"/>
      <point x="493.56626506024094" y="654.1084337349398" type="line"/>
      <point x="451.0120481927711" y="692.2650602409639"/>
      <point x="379.7469879518072" y="714.1325301204819"/>
      <point x="297.9277108433735" y="714.1325301204819" type="curve" smooth="yes"/>
      <point x="170.73493975903614" y="714.1325301204819"/>
      <point x="79.46987951807229" y="645.5783132530121"/>
      <point x="79.46987951807229" y="532.3132530120482" type="curve" smooth="yes"/>
      <point x="79.46987951807229" y="488.4698795180723"/>
      <point x="93.02409638554217" y="458.0722891566265"/>
      <point x="112.10843373493975" y="437.96385542168673" type="curve"/>
      <point x="120.66265060240964" y="466.1807228915663" type="line"/>
      <point x="70.3132530120482" y="431.7831325301205"/>
      <point x="38.75903614457832" y="377.0722891566265"/>
      <point x="38.75903614457832" y="318.12048192771084" type="curve" smooth="yes"/>
      <point x="38.75903614457832" y="244.40963855421688"/>
      <point x="74.02409638554217" y="193.43373493975903"/>
      <point x="178.49397590361446" y="144.83132530120483" type="curve" smooth="yes"/>
      <point x="295.5301204819277" y="91.01204819277109" type="line" smooth="yes"/>
      <point x="358.89156626506025" y="61.5421686746988"/>
      <point x="378.9156626506024" y="30.783132530120483"/>
      <point x="378.9156626506024" y="-14.289156626506024" type="curve" smooth="yes"/>
      <point x="378.9156626506024" y="-78.96385542168674"/>
      <point x="329.13253012048193" y="-114.87951807228916"/>
      <point x="255.48192771084337" y="-114.87951807228916" type="curve" smooth="yes"/>
      <point x="190.90361445783134" y="-114.87951807228916"/>
      <point x="119.79518072289156" y="-91.45783132530121"/>
      <point x="78.66265060240964" y="-57.01204819277109" type="curve"/>
      <point x="48.0" y="-127.26506024096386" type="line"/>
      <point x="92.6867469879518" y="-166.13253012048193"/>
      <point x="167.50602409638554" y="-189.42168674698794"/>
    </contour>
    <contour>
      <point x="129.51807228915663" y="334.33734939759034" type="curve" smooth="yes"/>
      <point x="129.51807228915663" y="365.8072289156627"/>
      <point x="141.96385542168673" y="395.12048192771084"/>
      <point x="165.9879518072289" y="417.69879518072287" type="curve"/>
      <point x="138.4578313253012" y="415.144578313253" type="line"/>
      <point x="155.6144578313253" y="394.67469879518075"/>
      <point x="184.50602409638554" y="371.49397590361446"/>
      <point x="227.3132530120482" y="351.4457831325301" type="curve" smooth="yes"/>
      <point x="328.2168674698795" y="304.6265060240964" type="line" smooth="yes"/>
      <point x="402.3132530120482" y="270.28915662650604"/>
      <point x="426.89156626506025" y="235.8433734939759"/>
      <point x="426.89156626506025" y="190.3734939759036" type="curve" smooth="yes"/>
      <point x="426.89156626506025" y="158.90361445783134"/>
      <point x="414.4457831325301" y="129.59036144578312"/>
      <point x="390.421686746988" y="107.01204819277109" type="curve"/>
      <point x="417.95180722891564" y="109.56626506024097" type="line"/>
      <point x="400.7951807228916" y="130.03614457831324"/>
      <point x="371.90361445783134" y="153.2168674698795"/>
      <point x="329.09638554216866" y="173.26506024096386" type="curve" smooth="yes"/>
      <point x="228.19277108433735" y="220.0843373493976" type="line" smooth="yes"/>
      <point x="154.09638554216866" y="254.42168674698794"/>
      <point x="129.51807228915663" y="288.86746987951807"/>
    </contour>
  </outline>
</glyph>
<glyph name="ordfeminine" format="2">
  <advance width="332.34939759036143"/>
  <unicode hex="00AA"/>
  <outline>
    <contour>
      <point x="135.57831325301206" y="409.4457831325301" type="curve" smooth="yes"/>
      <point x="181.1566265060241" y="409.4457831325301"/>
      <point x="210.02409638554218" y="428.578313253012"/>
      <point x="231.6024096385542" y="469.578313253012" type="curve"/>
      <point x="233.6024096385542" y="469.578313253012" type="line"/>
      <point x="233.6024096385542" y="415.1566265060241" type="line"/>
      <point x="298.1686746987952" y="415.1566265060241" type="line"/>
      <point x="298.1686746987952" y="598.6024096385543" type="line" smooth="yes"/>
      <point x="298.1686746987952" y="675.5783132530121"/>
      <point x="254.48192771084337" y="714.4216867469879"/>
      <point x="165.97590361445782" y="714.4216867469879" type="curve" smooth="yes"/>
      <point x="121.8433734939759" y="714.4216867469879"/>
      <point x="71.02409638554217" y="703.710843373494"/>
      <point x="38.31325301204819" y="683.1325301204819" type="curve"/>
      <point x="56.0" y="633.9397590361446" type="line"/>
      <point x="87.42168674698794" y="652.8072289156627"/>
      <point x="127.26506024096386" y="662.0963855421687"/>
      <point x="162.0" y="662.0963855421687" type="curve" smooth="yes"/>
      <point x="208.73493975903614" y="662.0963855421687"/>
      <point x="231.46987951807228" y="642.7831325301205"/>
      <point x="231.46987951807228" y="601.7349397590361" type="curve" smooth="yes"/>
      <point x="231.46987951807228" y="544.0240963855422" type="line" smooth="yes"/>
      <point x="231.46987951807228" y="490.10843373493975"/>
      <point x="197.57831325301206" y="457.50602409638554"/>
      <point x="151.95180722891567" y="457.50602409638554" type="curve" smooth="yes"/>
      <point x="110.6144578313253" y="457.50602409638554"/>
      <point x="92.87951807228916" y="477.5301204819277"/>
      <point x="92.87951807228916" y="503.13253012048193" type="curve" smooth="yes"/>
      <point x="92.87951807228916" y="533.7349397590361"/>
      <point x="121.92771084337349" y="548.1807228915662"/>
      <point x="185.6867469879518" y="548.1807228915662" type="curve" smooth="yes"/>
      <point x="239.6024096385542" y="548.1807228915662" type="line"/>
      <point x="239.6024096385542" y="587.843373493976" type="line"/>
      <point x="183.26506024096386" y="587.843373493976" type="line" smooth="yes"/>
      <point x="82.62650602409639" y="587.843373493976"/>
      <point x="24.89156626506024" y="562.843373493976"/>
      <point x="24.89156626506024" y="501.71084337349396" type="curve" smooth="yes"/>
      <point x="24.89156626506024" y="448.578313253012"/>
      <point x="70.60240963855422" y="409.4457831325301"/>
    </contour>
  </outline>
</glyph>
<glyph name="paragraph" format="2">
  <advance width="605.0481927710844"/>
  <unicode hex="00B6"/>
  <outline>
    <contour>
      <point x="246.10843373493975" y="-180.0" type="line"/>
      <point x="322.93975903614455" y="-180.0" type="line"/>
      <point x="322.93975903614455" y="630.7469879518072" type="line"/>
      <point x="445.72289156626505" y="630.7469879518072" type="line"/>
      <point x="445.72289156626505" y="-180.0" type="line"/>
      <point x="522.5542168674699" y="-180.0" type="line"/>
      <point x="522.5542168674699" y="705.0" type="line"/>
      <point x="247.81927710843374" y="705.0" type="line" smooth="yes"/>
      <point x="122.44578313253012" y="705.0"/>
      <point x="40.915662650602414" y="621.7349397590361"/>
      <point x="40.915662650602414" y="501.51807228915663" type="curve" smooth="yes"/>
      <point x="40.915662650602414" y="381.30120481927713"/>
      <point x="122.44578313253012" y="297.3253012048193"/>
      <point x="246.10843373493975" y="297.3253012048193" type="curve"/>
    </contour>
  </outline>
</glyph>
<glyph name="ordmasculine" format="2">
  <advance width="345.1927710843373"/>
  <unicode hex="00BA"/>
  <outline>
    <contour>
      <point x="172.95180722891567" y="410.1566265060241" type="curve" smooth="yes"/>
      <point x="259.7710843373494" y="410.1566265060241"/>
      <point x="324.1686746987952" y="469.86746987951807"/>
      <point x="324.1686746987952" y="563.0" type="curve" smooth="yes"/>
      <point x="324.1686746987952" y="655.4216867469879"/>
      <point x="259.7710843373494" y="714.4216867469879"/>
      <point x="172.95180722891567" y="714.4216867469879" type="curve" smooth="yes"/>
      <point x="85.42168674698794" y="714.4216867469879"/>
      <point x="21.02409638554217" y="655.4216867469879"/>
      <point x="21.02409638554217" y="563.0" type="curve" smooth="yes"/>
      <point x="21.02409638554217" y="469.86746987951807"/>
      <point x="85.42168674698794" y="410.1566265060241"/>
    </contour>
    <contour>
      <point x="172.95180722891567" y="463.90361445783134" type="curve" smooth="yes"/>
      <point x="122.32530120481928" y="463.90361445783134"/>
      <point x="90.43373493975903" y="498.0843373493976"/>
      <point x="90.43373493975903" y="563.0" type="curve" smooth="yes"/>
      <point x="90.43373493975903" y="627.9156626506024"/>
      <point x="122.32530120481928" y="661.3855421686746"/>
      <point x="172.95180722891567" y="661.3855421686746" type="curve" smooth="yes"/>
      <point x="222.86746987951807" y="661.3855421686746"/>
      <point x="254.75903614457832" y="627.2048192771084"/>
      <point x="254.75903614457832" y="563.0" type="curve" smooth="yes"/>
      <point x="254.75903614457832" y="498.7951807228916"/>
      <point x="222.86746987951807" y="463.90361445783134"/>
    </contour>
  </outline>
</glyph>
<glyph name="questiondown" format="2">
  <advance width="450.32530120481925"/>
  <unicode hex="00BF"/>
  <outline>
    <contour>
      <point x="220.79518072289156" y="-189.42168674698794" type="curve" smooth="yes"/>
      <point x="308.0843373493976" y="-189.42168674698794"/>
      <point x="395.34939759036143" y="-157.97590361445782"/>
      <point x="449.03614457831327" y="-109.10843373493975" type="curve"/>
      <point x="412.6867469879518" y="-31.168674698795186" type="line"/>
      <point x="357.3975903614458" y="-77.06024096385542"/>
      <point x="296.95180722891564" y="-100.79518072289157"/>
      <point x="226.19277108433735" y="-100.79518072289157" type="curve" smooth="yes"/>
      <point x="161.5421686746988" y="-100.79518072289157"/>
      <point x="123.62650602409639" y="-70.45783132530121"/>
      <point x="123.62650602409639" y="-22.3855421686747" type="curve" smooth="yes"/>
      <point x="123.62650602409639" y="13.662650602409638"/>
      <point x="137.7831325301205" y="43.71084337349397"/>
      <point x="186.6987951807229" y="91.78313253012048" type="curve" smooth="yes"/>
      <point x="248.03614457831324" y="152.56626506024097"/>
      <point x="267.90361445783134" y="202.1686746987952"/>
      <point x="267.90361445783134" y="261.06024096385545" type="curve" smooth="yes"/>
      <point x="267.90361445783134" y="291.855421686747" type="line"/>
      <point x="205.9156626506024" y="291.855421686747" type="line"/>
      <point x="201.7831325301205" y="267.5903614457831" type="line" smooth="yes"/>
      <point x="195.0722891566265" y="223.3855421686747"/>
      <point x="175.33734939759037" y="184.49397590361446"/>
      <point x="112.04819277108433" y="127.86746987951807" type="curve" smooth="yes"/>
      <point x="42.04819277108434" y="65.95180722891567"/>
      <point x="20.626506024096386" y="19.53012048192771"/>
      <point x="20.626506024096386" y="-37.18072289156626" type="curve" smooth="yes"/>
      <point x="20.626506024096386" y="-128.1566265060241"/>
      <point x="100.57831325301206" y="-189.42168674698794"/>
    </contour>
    <contour>
      <point x="177.67469879518072" y="368.50602409638554" type="line"/>
      <point x="296.144578313253" y="368.50602409638554" type="line"/>
      <point x="296.144578313253" y="487.5542168674699" type="line"/>
      <point x="177.67469879518072" y="487.5542168674699" type="line"/>
    </contour>
  </outline>
</glyph>
<glyph name="germandbls" format="2">
  <advance width="632.1807228915662"/>
  <unicode hex="00DF"/>
  <outline>
    <contour>
      <point x="418.0722891566265" y="-9.421686746987952" type="curve" smooth="yes"/>
      <point x="531.156626506024" y="-9.421686746987952"/>
      <point x="606.1325301204819" y="50.975903614457835"/>
      <point x="606.1325301204819" y="141.7710843373494" type="curve" smooth="yes"/>
      <point x="606.1325301204819" y="213.19277108433735"/>
      <point x="565.843373493976" y="257.1686746987952"/>
      <point x="464.81927710843377" y="288.32530120481925" type="curve" smooth="yes"/>
      <point x="386.2168674698795" y="312.48192771084337"/>
      <point x="361.90361445783134" y="333.0843373493976"/>
      <point x="361.90361445783134" y="364.8433734939759" type="curve" smooth="yes"/>
      <point x="361.90361445783134" y="390.1566265060241"/>
      <point x="373.7710843373494" y="408.6024096385542"/>
      <point x="418.7951807228916" y="448.89156626506025" type="curve" smooth="yes"/>
      <point x="471.6867469879518" y="496.04819277108436"/>
      <point x="491.13253012048193" y="532.4698795180723"/>
      <point x="491.13253012048193" y="581.2048192771084" type="curve" smooth="yes"/>
      <point x="491.13253012048193" y="662.4457831325301"/>
      <point x="423.7590361445783" y="714.4216867469879"/>
      <point x="310.72289156626505" y="714.4216867469879" type="curve" smooth="yes"/>
      <point x="157.57831325301206" y="714.4216867469879"/>
      <point x="70.78313253012048" y="625.8915662650602"/>
      <point x="70.78313253012048" y="470.566265060241" type="curve" smooth="yes"/>
      <point x="70.78313253012048" y="0.0" type="line"/>
      <point x="171.7831325301205" y="0.0" type="line"/>
      <point x="171.7831325301205" y="484.3614457831325" type="line" smooth="yes"/>
      <point x="171.7831325301205" y="582.566265060241"/>
      <point x="219.96385542168673" y="638.4578313253012"/>
      <point x="310.5903614457831" y="638.4578313253012" type="curve" smooth="yes"/>
      <point x="365.34939759036143" y="638.4578313253012"/>
      <point x="394.8192771084337" y="613.144578313253"/>
      <point x="394.8192771084337" y="572.5180722891566" type="curve" smooth="yes"/>
      <point x="394.8192771084337" y="541.9156626506024"/>
      <point x="381.3734939759036" y="517.8915662650602"/>
      <point x="342.6144578313253" y="483.1566265060241" type="curve" smooth="yes"/>
      <point x="284.1686746987952" y="430.73493975903614"/>
      <point x="267.433734939759" y="395.3132530120482"/>
      <point x="267.433734939759" y="353.6024096385542" type="curve" smooth="yes"/>
      <point x="267.433734939759" y="289.4698795180723"/>
      <point x="304.433734939759" y="249.20481927710844"/>
      <point x="411.30120481927713" y="216.33734939759037" type="curve" smooth="yes"/>
      <point x="486.7710843373494" y="192.89156626506025"/>
      <point x="512.3734939759036" y="173.0"/>
      <point x="512.3734939759036" y="137.3734939759036" type="curve" smooth="yes"/>
      <point x="512.3734939759036" y="94.3012048192771"/>
      <point x="476.87951807228916" y="67.96385542168674"/>
      <point x="419.49397590361446" y="67.96385542168674" type="curve" smooth="yes"/>
      <point x="370.2048192771084" y="67.96385542168674"/>
      <point x="309.93975903614455" y="85.67469879518072"/>
      <point x="259.8072289156627" y="123.40963855421687" type="curve"/>
      <point x="228.43373493975903" y="53.86746987951807" type="line"/>
      <point x="275.12048192771084" y="13.578313253012048"/>
      <point x="348.3855421686747" y="-9.421686746987952"/>
    </contour>
  </outline>
</glyph>
<glyph name="eth" format="2">
  <advance width="568.722891566265"/>
  <unicode hex="00F0"/>
  <outline>
    <contour>
      <point x="278.95180722891564" y="-9.421686746987952" type="curve" smooth="yes"/>
      <point x="439.30120481927713" y="-9.421686746987952"/>
      <point x="527.0963855421687" y="97.10843373493975"/>
      <point x="527.0963855421687" y="285.9759036144578" type="curve" smooth="yes"/>
      <point x="527.0963855421687" y="424.2289156626506"/>
      <point x="471.51807228915663" y="538.6746987951807"/>
      <point x="371.89156626506025" y="616.3855421686746" type="curve"/>
      <point x="368.18072289156623" y="603.5421686746988" type="line"/>
      <point x="479.3614457831325" y="652.8313253012049" type="line"/>
      <point x="451.855421686747" y="713.5542168674699" type="line"/>
      <point x="302.48192771084337" y="647.0240963855422" type="line"/>
      <point x="330.9879518072289" y="645.3132530120482" type="line"/>
      <point x="288.5903614457831" y="671.156626506024"/>
      <point x="229.50602409638554" y="697.5542168674699"/>
      <point x="157.18072289156626" y="713.5542168674699" type="curve"/>
      <point x="137.36144578313252" y="646.433734939759" type="line"/>
      <point x="180.9156626506024" y="635.855421686747"/>
      <point x="219.04819277108433" y="620.144578313253"/>
      <point x="245.0722891566265" y="607.1204819277109" type="curve"/>
      <point x="242.2289156626506" y="619.9638554216867" type="line"/>
      <point x="109.33734939759036" y="560.9638554216867" type="line"/>
      <point x="136.8433734939759" y="500.2409638554217" type="line"/>
      <point x="312.8192771084337" y="578.6385542168675" type="line"/>
      <point x="292.0843373493976" y="578.7710843373494" type="line"/>
      <point x="374.2289156626506" y="524.1204819277109"/>
      <point x="432.0722891566265" y="430.4457831325301"/>
      <point x="431.0722891566265" y="306.6144578313253" type="curve"/>
      <point x="455.7590361445783" y="306.6144578313253" type="line"/>
      <point x="432.1807228915663" y="411.0843373493976"/>
      <point x="363.33734939759034" y="451.1566265060241"/>
      <point x="272.0" y="451.1566265060241" type="curve" smooth="yes"/>
      <point x="135.73493975903614" y="451.1566265060241"/>
      <point x="42.33734939759036" y="358.73493975903614"/>
      <point x="42.33734939759036" y="222.289156626506" type="curve" smooth="yes"/>
      <point x="42.33734939759036" y="83.71084337349397"/>
      <point x="137.289156626506" y="-9.421686746987952"/>
    </contour>
    <contour>
      <point x="281.50602409638554" y="70.09638554216868" type="curve" smooth="yes"/>
      <point x="195.5421686746988" y="70.09638554216868"/>
      <point x="144.33734939759034" y="126.59036144578313"/>
      <point x="144.33734939759034" y="222.289156626506" type="curve" smooth="yes"/>
      <point x="144.33734939759034" y="314.9879518072289"/>
      <point x="196.8313253012048" y="373.06024096385545"/>
      <point x="281.7951807228916" y="373.06024096385545" type="curve" smooth="yes"/>
      <point x="368.89156626506025" y="373.06024096385545"/>
      <point x="419.96385542168673" y="314.9879518072289"/>
      <point x="419.96385542168673" y="222.289156626506" type="curve" smooth="yes"/>
      <point x="419.96385542168673" y="128.87951807228916"/>
      <point x="367.89156626506025" y="70.09638554216868"/>
    </contour>
  </outline>
</glyph>
<glyph name="thorn" format="2">
  <advance width="590.7469879518072"/>
  <unicode hex="00FE"/>
  <anchor x="295.2168674698795" y="0.0" name="bottom"/>
  <anchor x="295.2168674698795" y="484.0" name="top"/>
  <outline>
    <contour>
      <point x="70.78313253012048" y="-180.0" type="line"/>
      <point x="171.7831325301205" y="-180.0" type="line"/>
      <point x="171.7831325301205" y="107.51807228915663" type="line"/>
      <point x="160.0722891566265" y="107.51807228915663" type="line"/>
      <point x="181.36144578313252" y="36.89156626506024"/>
      <point x="248.93975903614458" y="-9.421686746987952"/>
      <point x="333.4096385542169" y="-9.421686746987952" type="curve" smooth="yes"/>
      <point x="463.27710843373495" y="-9.421686746987952"/>
      <point x="548.4096385542168" y="88.28915662650603"/>
      <point x="548.4096385542168" y="244.13253012048193" type="curve" smooth="yes"/>
      <point x="548.4096385542168" y="399.9759036144578"/>
      <point x="462.27710843373495" y="496.9759036144578"/>
      <point x="333.4096385542169" y="496.9759036144578" type="curve" smooth="yes"/>
      <point x="247.51807228915663" y="496.9759036144578"/>
      <point x="179.93975903614458" y="449.95180722891564"/>
      <point x="159.36144578313252" y="377.90361445783134" type="curve"/>
      <point x="171.7831325301205" y="377.90361445783134" type="line"/>
      <point x="171.7831325301205" y="705.0" type="line"/>
      <point x="70.78313253012048" y="705.0" type="line"/>
    </contour>
    <contour>
      <point x="308.2409638554217" y="69.3855421686747" type="curve" smooth="yes"/>
      <point x="224.27710843373495" y="69.3855421686747"/>
      <point x="170.0722891566265" y="130.32530120481928"/>
      <point x="170.0722891566265" y="244.13253012048193" type="curve" smooth="yes"/>
      <point x="170.0722891566265" y="357.93975903614455"/>
      <point x="224.27710843373495" y="418.1686746987952"/>
      <point x="308.2409638554217" y="418.1686746987952" type="curve" smooth="yes"/>
      <point x="391.49397590361446" y="418.1686746987952"/>
      <point x="446.4096385542169" y="357.93975903614455"/>
      <point x="446.4096385542169" y="244.13253012048193" type="curve" smooth="yes"/>
      <point x="446.4096385542169" y="130.32530120481928"/>
      <point x="391.49397590361446" y="69.3855421686747"/>
    </contour>
  </outline>
</glyph>
<glyph name="dcroat" format="2">
  <advance width="590.7469879518072"/>
  <unicode hex="0111"/>
  <outline>
    <contour>
      <point x="258.04819277108436" y="-9.421686746987952" type="curve" smooth="yes"/>
      <point x="343.2289156626506" y="-9.421686746987952"/>
      <point x="410.8072289156627" y="37.60240963855422"/>
      <point x="431.3855421686747" y="110.36144578313252" type="curve"/>
      <point x="420.3855421686747" y="110.36144578313252" type="line"/>
      <point x="420.3855421686747" y="0.0" type="line"/>
      <point x="520.6746987951807" y="0.0" type="line"/>
      <point x="520.6746987951807" y="549.2048192771084" type="line"/>
      <point x="609.9879518072289" y="549.2048192771084" type="line"/>
      <point x="609.9879518072289" y="622.1686746987951" type="line"/>
      <point x="520.6746987951807" y="622.1686746987951" type="line"/>
      <point x="520.6746987951807" y="705.0" type="line"/>
      <point x="419.67469879518075" y="705.0" type="line"/>
      <point x="419.67469879518075" y="622.1686746987951" type="line"/>
      <point x="228.36144578313252" y="622.1686746987951" type="line"/>
      <point x="228.36144578313252" y="549.2048192771084" type="line"/>
      <point x="419.67469879518075" y="549.2048192771084" type="line"/>
      <point x="419.67469879518075" y="380.7469879518072" type="line"/>
      <point x="430.67469879518075" y="380.7469879518072" type="line"/>
      <point x="409.3855421686747" y="450.66265060240966"/>
      <point x="342.51807228915663" y="496.9759036144578"/>
      <point x="258.04819277108436" y="496.9759036144578" type="curve" smooth="yes"/>
      <point x="128.18072289156626" y="496.9759036144578"/>
      <point x="43.04819277108434" y="399.9759036144578"/>
      <point x="43.04819277108434" y="244.13253012048193" type="curve" smooth="yes"/>
      <point x="43.04819277108434" y="88.28915662650603"/>
      <point x="129.18072289156626" y="-9.421686746987952"/>
    </contour>
    <contour>
      <point x="283.2168674698795" y="69.3855421686747" type="curve" smooth="yes"/>
      <point x="199.25301204819277" y="69.3855421686747"/>
      <point x="145.04819277108433" y="130.32530120481928"/>
      <point x="145.04819277108433" y="244.13253012048193" type="curve" smooth="yes"/>
      <point x="145.04819277108433" y="357.93975903614455"/>
      <point x="199.25301204819277" y="418.1686746987952"/>
      <point x="283.2168674698795" y="418.1686746987952" type="curve" smooth="yes"/>
      <point x="366.4698795180723" y="418.1686746987952"/>
      <point x="421.3855421686747" y="357.93975903614455"/>
      <point x="421.3855421686747" y="244.13253012048193" type="curve" smooth="yes"/>
      <point x="421.3855421686747" y="130.32530120481928"/>
      <point x="366.4698795180723" y="69.3855421686747"/>
    </contour>
  </outline>
</glyph>
<glyph name="Hbar" format="2">
  <advance width="806.5903614457832"/>
  <unicode hex="0126"/>
  <outline>
    <contour>
      <point x="102.46987951807229" y="0.0" type="line"/>
      <point x="205.6024096385542" y="0.0" type="line"/>
      <point x="205.6024096385542" y="306.72289156626505" type="line"/>
      <point x="600.9879518072289" y="306.72289156626505" type="line"/>
      <point x="600.9879518072289" y="0.0" type="line"/>
      <point x="704.1204819277109" y="0.0" type="line"/>
      <point x="704.1204819277109" y="515.6265060240964" type="line"/>
      <point x="792.3012048192771" y="515.6265060240964" type="line"/>
      <point x="792.3012048192771" y="593.433734939759" type="line"/>
      <point x="704.1204819277109" y="593.433734939759" type="line"/>
      <point x="704.1204819277109" y="705.0" type="line"/>
      <point x="600.9879518072289" y="705.0" type="line"/>
      <point x="600.9879518072289" y="593.433734939759" type="line"/>
      <point x="205.6024096385542" y="593.433734939759" type="line"/>
      <point x="205.6024096385542" y="705.0" type="line"/>
      <point x="102.46987951807229" y="705.0" type="line"/>
      <point x="102.46987951807229" y="593.433734939759" type="line"/>
      <point x="14.289156626506024" y="593.433734939759" type="line"/>
      <point x="14.289156626506024" y="515.6265060240964" type="line"/>
      <point x="102.46987951807229" y="515.6265060240964" type="line"/>
    </contour>
    <contour>
      <point x="205.6024096385542" y="394.06024096385545" type="line"/>
      <point x="205.6024096385542" y="515.6265060240964" type="line"/>
      <point x="600.9879518072289" y="515.6265060240964" type="line"/>
      <point x="600.9879518072289" y="394.06024096385545" type="line"/>
    </contour>
  </outline>
</glyph>
<glyph name="hbar" format="2">
  <advance width="575.7469879518072"/>
  <unicode hex="0127"/>
  <outline>
    <contour>
      <point x="70.78313253012048" y="0.0" type="line"/>
      <point x="171.7831325301205" y="0.0" type="line"/>
      <point x="171.7831325301205" y="275.86746987951807" type="line" smooth="yes"/>
      <point x="171.7831325301205" y="360.5421686746988"/>
      <point x="224.56626506024097" y="416.03614457831327"/>
      <point x="306.2409638554217" y="416.03614457831327" type="curve" smooth="yes"/>
      <point x="375.49397590361446" y="416.03614457831327"/>
      <point x="406.67469879518075" y="378.9879518072289"/>
      <point x="406.67469879518075" y="295.4698795180723" type="curve" smooth="yes"/>
      <point x="406.67469879518075" y="0.0" type="line"/>
      <point x="507.6746987951807" y="0.0" type="line"/>
      <point x="507.6746987951807" y="300.89156626506025" type="line" smooth="yes"/>
      <point x="507.6746987951807" y="432.13253012048193"/>
      <point x="451.3855421686747" y="496.9759036144578"/>
      <point x="334.6746987951807" y="496.9759036144578" type="curve" smooth="yes"/>
      <point x="253.93975903614458" y="496.9759036144578"/>
      <point x="186.49397590361446" y="457.8192771084337"/>
      <point x="158.36144578313252" y="383.7710843373494" type="curve"/>
      <point x="171.7831325301205" y="383.7710843373494" type="line"/>
      <point x="171.7831325301205" y="549.2048192771084" type="line"/>
      <point x="363.09638554216866" y="549.2048192771084" type="line"/>
      <point x="363.09638554216866" y="622.1686746987951" type="line"/>
      <point x="171.7831325301205" y="622.1686746987951" type="line"/>
      <point x="171.7831325301205" y="705.0" type="line"/>
      <point x="70.78313253012048" y="705.0" type="line"/>
      <point x="70.78313253012048" y="622.1686746987951" type="line"/>
      <point x="-18.53012048192771" y="622.1686746987951" type="line"/>
      <point x="-18.53012048192771" y="549.2048192771084" type="line"/>
      <point x="70.78313253012048" y="549.2048192771084" type="line"/>
    </contour>
  </outline>
</glyph>
<glyph name="idotless" format="2">
  <advance width="242.56626506024097"/>
  <unicode hex="0131"/>
  <anchor x="120.92771084337349" y="0.0" name="bottom"/>
  <anchor x="153.3012048192771" y="0.0" name="ogonek"/>
  <anchor x="120.92771084337349" y="484.0" name="top"/>
  <outline>
    <contour>
      <point x="70.78313253012048" y="0.0" type="line"/>
      <point x="171.7831325301205" y="0.0" type="line"/>
      <point x="171.7831325301205" y="487.5542168674699" type="line"/>
      <point x="70.78313253012048" y="487.5542168674699" type="line"/>
    </contour>
  </outline>
</glyph>
<glyph name="kgreenlandic" format="2">
  <advance width="516.3373493975904"/>
  <unicode hex="0138"/>
  <anchor x="258.1686746987952" y="0.0" name="bottom"/>
  <anchor x="258.1686746987952" y="484.0" name="top"/>
  <outline>
    <contour>
      <point x="70.78313253012048" y="0.0" type="line"/>
      <point x="171.7831325301205" y="0.0" type="line"/>
      <point x="171.7831325301205" y="223.49397590361446" type="line"/>
      <point x="173.7831325301205" y="223.49397590361446" type="line"/>
      <point x="403.0240963855422" y="0.0" type="line"/>
      <point x="528.843373493976" y="0.0" type="line"/>
      <point x="253.51807228915663" y="276.95180722891564" type="line"/>
      <point x="253.51807228915663" y="229.57831325301206" type="line"/>
      <point x="511.0843373493976" y="487.5542168674699" type="line"/>
      <point x="386.3975903614458" y="487.5542168674699" type="line"/>
      <point x="173.7831325301205" y="274.9277108433735" type="line"/>
      <point x="171.7831325301205" y="274.9277108433735" type="line"/>
      <point x="171.7831325301205" y="487.5542168674699" type="line"/>
      <point x="70.78313253012048" y="487.5542168674699" type="line"/>
    </contour>
  </outline>
</glyph>
<glyph name="Eng" format="2">
  <advance width="743.3734939759036"/>
  <unicode hex="014A"/>
  <anchor x="371.6867469879518" y="0.0" name="bottom"/>
  <anchor x="371.6867469879518" y="705.0" name="top"/>
  <outline>
    <contour>
      <point x="437.49397590361446" y="-193.0" type="line"/>
      <point x="481.2048192771084" y="-190.0" type="line" smooth="yes"/>
      <point x="606.7469879518072" y="-181.1566265060241"/>
      <point x="660.8795180722891" y="-122.57831325301206"/>
      <point x="660.8795180722891" y="0.3253012048192758" type="curve" smooth="yes"/>
      <point x="660.8795180722891" y="705.0" type="line"/>
      <point x="565.0120481927711" y="705.0" type="line"/>
      <point x="565.0120481927711" y="139.3855421686747" type="line"/>
      <point x="589.855421686747" y="139.3855421686747" type="line"/>
      <point x="160.85542168674698" y="705.0" type="line"/>
      <point x="82.49397590361446" y="705.0" type="line"/>
      <point x="82.49397590361446" y="0.0" type="line"/>
      <point x="178.36144578313252" y="0.0" type="line"/>
      <point x="178.36144578313252" y="566.3253012048193" type="line"/>
      <point x="154.51807228915663" y="566.3253012048193" type="line"/>
      <point x="583.5180722891566" y="0.0" type="line"/>
      <point x="565.0120481927711" y="43.48192771084337" type="line"/>
      <point x="565.0120481927711" y="-11.337349397590362" type="line" smooth="yes"/>
      <point x="565.0120481927711" y="-74.27710843373494"/>
      <point x="534.8313253012049" y="-107.19277108433735"/>
      <point x="476.9156626506024" y="-112.90361445783132" type="curve" smooth="yes"/>
      <point x="430.93975903614455" y="-117.32530120481928" type="line"/>
    </contour>
  </outline>
</glyph>
<glyph name="eng" format="2">
  <advance width="575.7469879518072"/>
  <unicode hex="014B"/>
  <outline>
    <contour>
      <point x="284.28915662650604" y="-193.0" type="line"/>
      <point x="328.0" y="-190.0" type="line" smooth="yes"/>
      <point x="453.5421686746988" y="-181.1566265060241"/>
      <point x="507.6746987951807" y="-122.57831325301206"/>
      <point x="507.6746987951807" y="0.3253012048192758" type="curve" smooth="yes"/>
      <point x="507.6746987951807" y="300.89156626506025" type="line" smooth="yes"/>
      <point x="507.6746987951807" y="433.421686746988"/>
      <point x="451.3855421686747" y="496.9759036144578"/>
      <point x="334.6746987951807" y="496.9759036144578" type="curve" smooth="yes"/>
      <point x="253.93975903614458" y="496.9759036144578"/>
      <point x="186.49397590361446" y="457.8192771084337"/>
      <point x="158.36144578313252" y="383.7710843373494" type="curve"/>
      <point x="169.36144578313252" y="383.7710843373494" type="line"/>
      <point x="169.36144578313252" y="487.5542168674699" type="line"/>
      <point x="70.78313253012048" y="487.5542168674699" type="line"/>
      <point x="70.78313253012048" y="0.0" type="line"/>
      <point x="171.7831325301205" y="0.0" type="line"/>
      <point x="171.7831325301205" y="275.86746987951807" type="line" smooth="yes"/>
      <point x="171.7831325301205" y="360.5421686746988"/>
      <point x="224.56626506024097" y="416.03614457831327"/>
      <point x="306.2409638554217" y="416.03614457831327" type="curve" smooth="yes"/>
      <point x="375.49397590361446" y="416.03614457831327"/>
      <point x="406.67469879518075" y="378.9879518072289"/>
      <point x="406.67469879518075" y="295.4698795180723" type="curve" smooth="yes"/>
      <point x="406.67469879518075" y="-11.337349397590362" type="line" smooth="yes"/>
      <point x="406.67469879518075" y="-74.27710843373494"/>
      <point x="378.2048192771084" y="-107.19277108433735"/>
      <point x="321.578313253012" y="-112.90361445783132" type="curve" smooth="yes"/>
      <point x="277.73493975903614" y="-117.32530120481928" type="line"/>
    </contour>
  </outline>
</glyph>
<glyph name="oe" format="2">
  <advance width="911.6867469879518"/>
  <unicode hex="0153"/>
  <anchor x="470.3975903614458" y="0.0" name="bottom"/>
  <anchor x="470.3975903614458" y="484.0" name="top"/>
  <outline>
    <contour>
      <point x="279.66265060240966" y="-9.421686746987952" type="curve" smooth="yes"/>
      <point x="377.6867469879518" y="-9.421686746987952"/>
      <point x="449.5542168674699" y="42.204819277108435"/>
      <point x="483.0843373493976" y="128.72289156626505" type="curve"/>
      <point x="455.8433734939759" y="128.72289156626505" type="line"/>
      <point x="486.5301204819277" y="39.33734939759036"/>
      <point x="567.6626506024096" y="-9.421686746987952"/>
      <point x="677.9759036144578" y="-9.421686746987952" type="curve" smooth="yes"/>
      <point x="747.3975903614457" y="-9.421686746987952"/>
      <point x="820.6626506024096" y="15.156626506024097"/>
      <point x="865.6385542168674" y="55.024096385542165" type="curve"/>
      <point x="834.9759036144578" y="125.27710843373494" type="line"/>
      <point x="787.2409638554217" y="87.67469879518072"/>
      <point x="734.3975903614457" y="69.3855421686747"/>
      <point x="678.8192771084338" y="69.3855421686747" type="curve" smooth="yes"/>
      <point x="571.6144578313254" y="69.3855421686747"/>
      <point x="520.8313253012049" y="131.74698795180723"/>
      <point x="520.8313253012049" y="247.10843373493975" type="curve" smooth="yes"/>
      <point x="520.8313253012049" y="253.81927710843374" type="line" smooth="yes"/>
      <point x="520.8313253012049" y="360.4457831325301"/>
      <point x="572.4578313253012" y="425.566265060241"/>
      <point x="661.0" y="425.566265060241" type="curve" smooth="yes"/>
      <point x="743.6746987951807" y="425.566265060241"/>
      <point x="788.433734939759" y="368.6265060240964"/>
      <point x="788.433734939759" y="271.2409638554217" type="curve"/>
      <point x="804.433734939759" y="283.0843373493976" type="line"/>
      <point x="500.8313253012048" y="283.0843373493976" type="line"/>
      <point x="500.8313253012048" y="221.20481927710844" type="line"/>
      <point x="873.6385542168674" y="221.20481927710844" type="line"/>
      <point x="873.6385542168674" y="255.02409638554218" type="line" smooth="yes"/>
      <point x="873.6385542168674" y="405.0"/>
      <point x="791.3975903614457" y="496.9759036144578"/>
      <point x="660.0240963855422" y="496.9759036144578" type="curve" smooth="yes"/>
      <point x="564.9759036144578" y="496.9759036144578"/>
      <point x="488.5301204819277" y="442.50602409638554"/>
      <point x="458.26506024096386" y="361.51807228915663" type="curve"/>
      <point x="483.66265060240966" y="361.51807228915663" type="line"/>
      <point x="450.13253012048193" y="447.1927710843373"/>
      <point x="377.9759036144578" y="496.9759036144578"/>
      <point x="279.66265060240966" y="496.9759036144578" type="curve" smooth="yes"/>
      <point x="134.86746987951807" y="496.9759036144578"/>
      <point x="42.33734939759036" y="398.9759036144578"/>
      <point x="42.33734939759036" y="244.8433734939759" type="curve" smooth="yes"/>
      <point x="42.33734939759036" y="90.0"/>
      <point x="134.86746987951807" y="-9.421686746987952"/>
    </contour>
    <contour>
      <point x="282.50602409638554" y="69.3855421686747" type="curve" smooth="yes"/>
      <point x="199.25301204819277" y="69.3855421686747"/>
      <point x="144.33734939759034" y="131.03614457831324"/>
      <point x="144.33734939759034" y="244.13253012048193" type="curve" smooth="yes"/>
      <point x="144.33734939759034" y="357.2289156626506"/>
      <point x="198.5421686746988" y="418.1686746987952"/>
      <point x="282.50602409638554" y="418.1686746987952" type="curve" smooth="yes"/>
      <point x="365.7590361445783" y="418.1686746987952"/>
      <point x="420.67469879518075" y="357.2289156626506"/>
      <point x="420.67469879518075" y="244.13253012048193" type="curve" smooth="yes"/>
      <point x="420.67469879518075" y="131.03614457831324"/>
      <point x="366.4698795180723" y="69.3855421686747"/>
    </contour>
  </outline>
</glyph>
<glyph name="Schwa" format="2">
  <advance width="775.1686746987951"/>
  <unicode hex="018F"/>
  <anchor x="386.6385542168675" y="0.0" name="bottom"/>
  <anchor x="386.6385542168675" y="705.0" name="top"/>
  <outline>
    <contour>
      <point x="394.2168674698795" y="-9.421686746987952" type="curve" smooth="yes"/>
      <point x="588.0361445783133" y="-9.421686746987952"/>
      <point x="718.1204819277109" y="130.42168674698794"/>
      <point x="718.1204819277109" y="352.28915662650604" type="curve" smooth="yes"/>
      <point x="718.1204819277109" y="577.0"/>
      <point x="580.0361445783133" y="714.4216867469879"/>
      <point x="365.66265060240966" y="714.4216867469879" type="curve" smooth="yes"/>
      <point x="249.6867469879518" y="714.4216867469879"/>
      <point x="154.44578313253012" y="683.843373493976"/>
      <point x="85.89156626506025" y="627.9518072289156" type="curve"/>
      <point x="123.95180722891567" y="548.1686746987951" type="line"/>
      <point x="190.53012048192772" y="601.2168674698795"/>
      <point x="260.7951807228916" y="624.3734939759036"/>
      <point x="354.71084337349396" y="624.3734939759036" type="curve" smooth="yes"/>
      <point x="519.3614457831326" y="624.3734939759036"/>
      <point x="609.855421686747" y="527.566265060241"/>
      <point x="609.855421686747" y="353.0" type="curve" smooth="yes"/>
      <point x="609.855421686747" y="175.16867469879517"/>
      <point x="528.2048192771084" y="77.78313253012048"/>
      <point x="389.66265060240966" y="77.78313253012048" type="curve" smooth="yes"/>
      <point x="238.80722891566265" y="77.78313253012048"/>
      <point x="163.6024096385542" y="171.59036144578312"/>
      <point x="163.6024096385542" y="353.0" type="curve"/>
      <point x="135.96385542168673" y="312.12048192771084" type="line"/>
      <point x="632.6265060240964" y="312.12048192771084" type="line"/>
      <point x="632.6265060240964" y="397.32530120481925" type="line"/>
      <point x="57.75903614457832" y="397.32530120481925" type="line"/>
      <point x="57.75903614457832" y="355.8192771084337" type="line" smooth="yes"/>
      <point x="57.75903614457832" y="136.97590361445782"/>
      <point x="171.42168674698794" y="-9.421686746987952"/>
    </contour>
  </outline>
</glyph>
<glyph name="Yhook" format="2">
  <advance width="615.5301204819277"/>
  <unicode hex="01B3"/>
  <outline>
    <contour>
      <point x="251.36144578313252" y="0.0" type="line"/>
      <point x="354.49397590361446" y="0.0" type="line"/>
      <point x="354.49397590361446" y="364.1566265060241" type="line"/>
      <point x="333.12048192771084" y="298.144578313253" type="line"/>
      <point x="535.3012048192771" y="587.4578313253012" type="line" smooth="yes"/>
      <point x="561.1686746987951" y="623.6144578313254"/>
      <point x="589.5903614457832" y="636.6144578313254"/>
      <point x="622.1686746987951" y="636.6144578313254" type="curve" smooth="yes"/>
      <point x="642.8795180722891" y="636.6144578313254"/>
      <point x="656.8795180722891" y="634.3253012048193"/>
      <point x="670.5903614457832" y="629.3253012048193" type="curve"/>
      <point x="670.5903614457832" y="703.289156626506" type="line"/>
      <point x="653.5903614457832" y="710.0"/>
      <point x="631.9277108433735" y="713.4216867469879"/>
      <point x="606.6626506024096" y="713.4216867469879" type="curve" smooth="yes"/>
      <point x="538.6265060240964" y="713.4216867469879"/>
      <point x="490.67469879518075" y="686.3132530120482"/>
      <point x="449.27710843373495" y="627.3614457831326" type="curve" smooth="yes"/>
      <point x="293.66265060240966" y="403.5421686746988" type="line"/>
      <point x="316.90361445783134" y="403.5421686746988" type="line"/>
      <point x="101.3132530120482" y="705.0" type="line"/>
      <point x="-18.771084337349397" y="705.0" type="line"/>
      <point x="273.73493975903614" y="298.144578313253" type="line"/>
      <point x="251.36144578313252" y="364.1566265060241" type="line"/>
    </contour>
  </outline>
</glyph>
<glyph name="yhook" format="2">
  <advance width="560.3012048192771"/>
  <unicode hex="01B4"/>
  <outline>
    <contour>
      <point x="374.69879518072287" y="389.2048192771084" type="curve" smooth="yes"/>
      <point x="247.81927710843374" y="82.53012048192771" type="line"/>
      <point x="276.0843373493976" y="82.53012048192771" type="line"/>
      <point x="111.93975903614458" y="487.5542168674699" type="line"/>
      <point x="3.5180722891566276" y="487.5542168674699" type="line"/>
      <point x="217.36144578313252" y="-8.734939759036145" type="line"/>
      <point x="217.36144578313252" y="34.01204819277108" type="line"/>
      <point x="121.43373493975903" y="-180.0" type="line"/>
      <point x="226.72289156626505" y="-180.0" type="line"/>
      <point x="453.48192771084337" y="342.144578313253" type="line" smooth="yes"/>
      <point x="477.6385542168675" y="397.3253012048193"/>
      <point x="502.1927710843373" y="416.3253012048193"/>
      <point x="541.2168674698795" y="416.3253012048193" type="curve" smooth="yes"/>
      <point x="553.6385542168674" y="416.3253012048193"/>
      <point x="567.2168674698795" y="415.03614457831327"/>
      <point x="579.6385542168674" y="410.3253012048193" type="curve"/>
      <point x="593.0361445783133" y="487.13253012048193" type="line"/>
      <point x="577.0361445783133" y="493.5542168674699"/>
      <point x="553.6626506024096" y="496.9759036144578"/>
      <point x="528.3975903614457" y="496.9759036144578" type="curve" smooth="yes"/>
      <point x="446.3614457831325" y="496.9759036144578"/>
      <point x="402.8313253012048" y="457.6024096385542"/>
    </contour>
  </outline>
</glyph>
<glyph name="gstroke" format="2">
  <advance width="594.1686746987951"/>
  <unicode hex="01E5"/>
  <outline>
    <contour>
      <point x="292.13253012048193" y="-189.42168674698794" type="curve" smooth="yes"/>
      <point x="410.34939759036143" y="-189.42168674698794"/>
      <point x="483.72289156626505" y="-142.710843373494"/>
      <point x="511.8313253012048" y="-48.734939759036145" type="curve"/>
      <point x="490.12048192771084" y="-58.734939759036145" type="line"/>
      <point x="586.722891566265" y="-58.734939759036145" type="line"/>
      <point x="586.722891566265" y="7.120481927710841" type="line"/>
      <point x="511.8313253012048" y="7.120481927710841" type="line"/>
      <point x="518.3855421686746" y="-20.228915662650603" type="line"/>
      <point x="521.3855421686746" y="-2.5180722891566276"/>
      <point x="523.3855421686746" y="18.06024096385542"/>
      <point x="523.3855421686746" y="41.19277108433735" type="curve" smooth="yes"/>
      <point x="523.3855421686746" y="487.5542168674699" type="line"/>
      <point x="424.51807228915663" y="487.5542168674699" type="line"/>
      <point x="424.51807228915663" y="380.1927710843373" type="line"/>
      <point x="433.3855421686747" y="380.1927710843373" type="line"/>
      <point x="413.51807228915663" y="452.10843373493975"/>
      <point x="346.3855421686747" y="496.9759036144578"/>
      <point x="261.04819277108436" y="496.9759036144578" type="curve" smooth="yes"/>
      <point x="130.33734939759037" y="496.9759036144578"/>
      <point x="42.33734939759036" y="401.13253012048193"/>
      <point x="42.33734939759036" y="268.3975903614458" type="curve" smooth="yes"/>
      <point x="42.33734939759036" y="135.3734939759036"/>
      <point x="130.33734939759037" y="39.53012048192771"/>
      <point x="261.04819277108436" y="39.53012048192771" type="curve" smooth="yes"/>
      <point x="346.3855421686747" y="39.53012048192771"/>
      <point x="413.51807228915663" y="84.39759036144578"/>
      <point x="433.3855421686747" y="156.6024096385542" type="curve"/>
      <point x="424.8072289156627" y="156.6024096385542" type="line"/>
      <point x="424.8072289156627" y="28.50602409638554" type="line" smooth="yes"/>
      <point x="424.8072289156627" y="11.638554216867469"/>
      <point x="423.51807228915663" y="-1.3855421686747"/>
      <point x="420.51807228915663" y="-15.253012048192772" type="curve"/>
      <point x="429.7831325301205" y="7.120481927710841" type="line"/>
      <point x="297.65060240963857" y="7.120481927710841" type="line"/>
      <point x="297.65060240963857" y="-58.734939759036145" type="line"/>
      <point x="415.87951807228916" y="-58.734939759036145" type="line"/>
      <point x="407.27710843373495" y="-49.1566265060241" type="line"/>
      <point x="386.144578313253" y="-89.40963855421687"/>
      <point x="345.96385542168673" y="-110.32530120481928"/>
      <point x="285.3132530120482" y="-110.32530120481928" type="curve" smooth="yes"/>
      <point x="218.13253012048193" y="-110.32530120481928"/>
      <point x="157.33734939759037" y="-92.90361445783132"/>
      <point x="99.3132530120482" y="-53.01204819277109" type="curve"/>
      <point x="67.93975903614458" y="-124.6867469879518" type="line"/>
      <point x="126.78313253012048" y="-168.55421686746988"/>
      <point x="204.3132530120482" y="-189.42168674698794"/>
    </contour>
    <contour>
      <point x="284.2168674698795" y="118.33734939759036" type="curve" smooth="yes"/>
      <point x="200.67469879518072" y="118.33734939759036"/>
      <point x="144.33734939759034" y="176.8313253012048"/>
      <point x="144.33734939759034" y="268.3975903614458" type="curve" smooth="yes"/>
      <point x="144.33734939759034" y="359.67469879518075"/>
      <point x="199.96385542168673" y="418.1686746987952"/>
      <point x="284.2168674698795" y="418.1686746987952" type="curve" smooth="yes"/>
      <point x="368.7590361445783" y="418.1686746987952"/>
      <point x="423.09638554216866" y="358.67469879518075"/>
      <point x="423.09638554216866" y="268.3975903614458" type="curve" smooth="yes"/>
      <point x="423.09638554216866" y="177.8313253012048"/>
      <point x="368.04819277108436" y="118.33734939759036"/>
    </contour>
  </outline>
</glyph>
<glyph name="jdotless" format="2">
  <advance width="246.27710843373495"/>
  <unicode hex="0237"/>
  <anchor x="124.63855421686748" y="0.0" name="bottom"/>
  <anchor x="124.63855421686748" y="484.0" name="top"/>
  <outline>
    <contour>
      <point x="-47.89156626506024" y="-193.0" type="line"/>
      <point x="-4.891566265060241" y="-190.0" type="line" smooth="yes"/>
      <point x="121.36144578313252" y="-181.1566265060241"/>
      <point x="175.49397590361446" y="-122.57831325301206"/>
      <point x="175.49397590361446" y="0.3253012048192758" type="curve" smooth="yes"/>
      <point x="175.49397590361446" y="487.5542168674699" type="line"/>
      <point x="74.49397590361446" y="487.5542168674699" type="line"/>
      <point x="74.49397590361446" y="-11.337349397590362" type="line" smooth="yes"/>
      <point x="74.49397590361446" y="-74.27710843373494"/>
      <point x="46.024096385542165" y="-107.19277108433735"/>
      <point x="-10.602409638554217" y="-112.90361445783132" type="curve" smooth="yes"/>
      <point x="-55.1566265060241" y="-117.32530120481928" type="line"/>
    </contour>
  </outline>
</glyph>
<glyph name="dhook" format="2">
  <advance width="590.7469879518072"/>
  <unicode hex="0257"/>
  <outline>
    <contour>
      <point x="257.33734939759034" y="-9.421686746987952" type="curve" smooth="yes"/>
      <point x="342.51807228915663" y="-9.421686746987952"/>
      <point x="410.09638554216866" y="37.60240963855422"/>
      <point x="430.67469879518075" y="110.36144578313252" type="curve"/>
      <point x="421.09638554216866" y="110.36144578313252" type="line"/>
      <point x="421.09638554216866" y="0.0" type="line"/>
      <point x="519.9638554216867" y="0.0" type="line"/>
      <point x="519.9638554216867" y="534.0120481927711" type="line" smooth="yes"/>
      <point x="519.9638554216867" y="601.8795180722891"/>
      <point x="553.2530120481928" y="633.0602409638554"/>
      <point x="608.4578313253012" y="633.0602409638554" type="curve" smooth="yes"/>
      <point x="622.1686746987951" y="633.0602409638554"/>
      <point x="630.8795180722891" y="632.0602409638554"/>
      <point x="648.1686746987951" y="627.7710843373494" type="curve"/>
      <point x="659.855421686747" y="705.289156626506" type="line"/>
      <point x="643.433734939759" y="711.0"/>
      <point x="620.1927710843373" y="714.4216867469879"/>
      <point x="600.0602409638554" y="714.4216867469879" type="curve" smooth="yes"/>
      <point x="480.33734939759034" y="714.4216867469879"/>
      <point x="418.96385542168673" y="646.7831325301205"/>
      <point x="418.96385542168673" y="534.144578313253" type="curve" smooth="yes"/>
      <point x="418.96385542168673" y="380.7469879518072" type="line"/>
      <point x="429.96385542168673" y="380.7469879518072" type="line"/>
      <point x="408.67469879518075" y="450.66265060240966"/>
      <point x="341.8072289156627" y="496.9759036144578"/>
      <point x="257.33734939759034" y="496.9759036144578" type="curve" smooth="yes"/>
      <point x="127.46987951807229" y="496.9759036144578"/>
      <point x="42.33734939759036" y="399.9759036144578"/>
      <point x="42.33734939759036" y="244.13253012048193" type="curve" smooth="yes"/>
      <point x="42.33734939759036" y="88.28915662650603"/>
      <point x="128.46987951807228" y="-9.421686746987952"/>
    </contour>
    <contour>
      <point x="282.50602409638554" y="69.3855421686747" type="curve" smooth="yes"/>
      <point x="198.5421686746988" y="69.3855421686747"/>
      <point x="144.33734939759034" y="130.32530120481928"/>
      <point x="144.33734939759034" y="244.13253012048193" type="curve" smooth="yes"/>
      <point x="144.33734939759034" y="357.93975903614455"/>
      <point x="198.5421686746988" y="418.1686746987952"/>
      <point x="282.50602409638554" y="418.1686746987952" type="curve" smooth="yes"/>
      <point x="365.7590361445783" y="418.1686746987952"/>
      <point x="420.67469879518075" y="357.93975903614455"/>
      <point x="420.67469879518075" y="244.13253012048193" type="curve" smooth="yes"/>
      <point x="420.67469879518075" y="130.32530120481928"/>
      <point x="365.7590361445783" y="69.3855421686747"/>
    </contour>
  </outline>
</glyph>
<glyph name="schwa" format="2">
  <advance width="537.2168674698795"/>
  <unicode hex="0259"/>
  <outline>
    <contour>
      <point x="260.5301204819277" y="-9.421686746987952" type="curve" smooth="yes"/>
      <point x="397.6385542168675" y="-9.421686746987952"/>
      <point x="494.87951807228916" y="91.42168674698794"/>
      <point x="494.87951807228916" y="245.710843373494" type="curve" smooth="yes"/>
      <point x="494.87951807228916" y="400.13253012048193"/>
      <point x="396.6385542168675" y="496.9759036144578"/>
      <point x="239.8433734939759" y="496.9759036144578" type="curve" smooth="yes"/>
      <point x="169.42168674698794" y="496.9759036144578"/>
      <point x="95.57831325301206" y="473.8192771084337"/>
      <point x="46.04819277108434" y="433.2409638554217" type="curve"/>
      <point x="76.71084337349397" y="363.27710843373495" type="line"/>
      <point x="128.710843373494" y="400.5903614457831"/>
      <point x="182.55421686746988" y="418.1686746987952"/>
      <point x="238.289156626506" y="418.1686746987952" type="curve" smooth="yes"/>
      <point x="340.93975903614455" y="418.1686746987952"/>
      <point x="398.566265060241" y="357.93975903614455"/>
      <point x="398.566265060241" y="241.57831325301206" type="curve" smooth="yes"/>
      <point x="398.566265060241" y="234.86746987951807" type="line" smooth="yes"/>
      <point x="398.566265060241" y="123.06024096385542"/>
      <point x="343.0722891566265" y="61.98795180722891"/>
      <point x="258.6867469879518" y="61.98795180722891" type="curve" smooth="yes"/>
      <point x="173.43373493975903" y="61.98795180722891"/>
      <point x="127.3855421686747" y="114.92771084337349"/>
      <point x="127.3855421686747" y="219.6024096385542" type="curve"/>
      <point x="107.67469879518072" y="204.46987951807228" type="line"/>
      <point x="415.566265060241" y="204.46987951807228" type="line"/>
      <point x="415.566265060241" y="266.34939759036143" type="line"/>
      <point x="38.04819277108434" y="266.34939759036143" type="line"/>
      <point x="38.04819277108434" y="234.81927710843374" type="line" smooth="yes"/>
      <point x="38.04819277108434" y="78.71084337349397"/>
      <point x="120.86746987951807" y="-9.421686746987952"/>
    </contour>
  </outline>
</glyph>
<glyph name="commaturnedmod" format="2">
  <advance width="500.0"/>
  <unicode hex="02BB"/>
  <anchor x="250.0" y="484.0" name="_top"/>
  <anchor x="250.0" y="685.0" name="top"/>
  <outline>
    <contour>
      <point x="193.67469879518072" y="565.7349397590361" type="line"/>
      <point x="306.03614457831327" y="565.7349397590361" type="line"/>
      <point x="306.03614457831327" y="660.6144578313254" type="line"/>
      <point x="225.89156626506025" y="660.6144578313254" type="line"/>
      <point x="252.0" y="648.2168674698795" type="line"/>
      <point x="252.0" y="674.9277108433735"/>
      <point x="258.13253012048193" y="700.9277108433735"/>
      <point x="287.13253012048193" y="729.3734939759036" type="curve"/>
      <point x="246.20481927710844" y="758.6144578313254" type="line"/>
      <point x="205.80722891566265" y="722.0602409638554"/>
      <point x="193.67469879518072" y="679.7951807228916"/>
      <point x="193.67469879518072" y="629.9759036144578" type="curve" smooth="yes"/>
    </contour>
  </outline>
</glyph>
<glyph name="apostrophemod" format="2">
  <advance width="335.5421686746988"/>
  <unicode hex="02BC"/>
  <outline>
    <contour>
      <point x="171.56626506024097" y="569.3132530120482" type="line"/>
      <point x="211.96385542168673" y="605.8674698795181"/>
      <point x="224.09638554216866" y="647.4216867469879"/>
      <point x="224.09638554216866" y="697.9518072289156" type="curve" smooth="yes"/>
      <point x="224.09638554216866" y="761.4819277108434" type="line"/>
      <point x="111.73493975903614" y="761.4819277108434" type="line"/>
      <point x="111.73493975903614" y="666.6024096385543" type="line"/>
      <point x="191.87951807228916" y="666.6024096385543" type="line"/>
      <point x="165.7710843373494" y="679.0" type="line"/>
      <point x="165.7710843373494" y="652.289156626506"/>
      <point x="159.63855421686748" y="626.289156626506"/>
      <point x="130.63855421686748" y="597.843373493976" type="curve"/>
    </contour>
  </outline>
</glyph>
<glyph name="verticallinemod" format="2">
  <advance width="500.0"/>
  <unicode hex="02C8"/>
  <outline>
    <contour>
      <point x="215.49397590361446" y="594.5783132530121" type="line"/>
      <point x="284.50602409638554" y="594.5783132530121" type="line"/>
      <point x="284.50602409638554" y="796.1325301204819" type="line"/>
      <point x="215.49397590361446" y="796.1325301204819" type="line"/>
    </contour>
  </outline>
</glyph>
<glyph name="firsttonechinese" format="2">
  <advance width="500.0"/>
  <unicode hex="02C9"/>
  <anchor x="250.0" y="484.0" name="_top"/>
  <anchor x="250.0" y="685.0" name="top"/>
  <outline>
    <contour>
      <point x="97.91566265060241" y="620.9156626506024" type="line"/>
      <point x="402.7951807228916" y="620.9156626506024" type="line"/>
      <point x="402.7951807228916" y="684.5060240963855" type="line"/>
      <point x="97.91566265060241" y="684.5060240963855" type="line"/>
    </contour>
  </outline>
</glyph>
<glyph name="acutecomb" format="2">
  <unicode hex="0301"/>
  <anchor x="0.0" y="484.0" name="_top"/>
  <anchor x="0.0" y="685.0" name="top"/>
  <outline>
    <contour>
      <point x="-35.06024096385542" y="552.5542168674699" type="line"/>
      <point x="35.06024096385542" y="552.5542168674699" type="line"/>
      <point x="171.27710843373495" y="754.6867469879518" type="line"/>
      <point x="68.2289156626506" y="754.6867469879518" type="line"/>
    </contour>
  </outline>
</glyph>
<glyph name="tildecomb" format="2">
  <unicode hex="0303"/>
  <anchor x="0.0" y="484.0" name="_top"/>
  <anchor x="0.0" y="685.0" name="top"/>
  <outline>
    <contour>
      <point x="-133.1566265060241" y="587.1807228915662" type="line"/>
      <point x="-125.1566265060241" y="637.4939759036145"/>
      <point x="-104.86746987951807" y="662.0963855421687"/>
      <point x="-70.57831325301206" y="662.0963855421687" type="curve" smooth="yes"/>
      <point x="-52.57831325301205" y="662.0963855421687"/>
      <point x="-37.57831325301205" y="653.5180722891566"/>
      <point x="-10.0" y="630.4939759036145" type="curve" smooth="yes"/>
      <point x="25.42168674698795" y="601.3373493975904"/>
      <point x="46.71084337349397" y="590.6024096385543"/>
      <point x="74.42168674698794" y="590.6024096385543" type="curve" smooth="yes"/>
      <point x="137.79518072289156" y="590.6024096385543"/>
      <point x="179.90361445783134" y="643.1325301204819"/>
      <point x="186.48192771084337" y="730.7951807228916" type="curve"/>
      <point x="133.1566265060241" y="734.2168674698795" type="line"/>
      <point x="125.86746987951807" y="684.6144578313254"/>
      <point x="105.57831325301206" y="659.3012048192771"/>
      <point x="71.28915662650603" y="659.3012048192771" type="curve" smooth="yes"/>
      <point x="54.28915662650603" y="659.3012048192771"/>
      <point x="39.0" y="666.8795180722891"/>
      <point x="10.0" y="690.9036144578313" type="curve" smooth="yes"/>
      <point x="-22.0" y="717.2168674698795"/>
      <point x="-43.28915662650603" y="730.7951807228916"/>
      <point x="-73.42168674698794" y="730.7951807228916" type="curve" smooth="yes"/>
      <point x="-137.0843373493976" y="730.7951807228916"/>
      <point x="-179.19277108433735" y="678.2650602409639"/>
      <point x="-186.48192771084337" y="590.6024096385543" type="curve"/>
    </contour>
  </outline>
</glyph>
<glyph name="hookabovecomb" format="2">
  <unicode hex="0309"/>
  <anchor x="0.0" y="484.0" name="_top"/>
  <anchor x="0.0" y="685.0" name="top"/>
  <outline>
    <contour>
      <point x="-32.21686746987952" y="552.5542168674699" type="line"/>
      <point x="32.21686746987952" y="552.5542168674699" type="line"/>
      <point x="32.21686746987952" y="568.2650602409639" type="line" smooth="yes"/>
      <point x="32.21686746987952" y="623.0"/>
      <point x="106.63855421686748" y="624.4216867469879"/>
      <point x="106.63855421686748" y="691.843373493976" type="curve" smooth="yes"/>
      <point x="106.63855421686748" y="736.3975903614457"/>
      <point x="68.66265060240964" y="761.8192771084338"/>
      <point x="4.843373493975903" y="761.8192771084338" type="curve" smooth="yes"/>
      <point x="-34.39759036144578" y="761.8192771084338"/>
      <point x="-67.79518072289156" y="754.3975903614457"/>
      <point x="-93.7710843373494" y="738.9759036144578" type="curve"/>
      <point x="-77.66265060240964" y="691.3373493975904" type="line"/>
      <point x="-55.506024096385545" y="702.6265060240964"/>
      <point x="-36.92771084337349" y="706.6265060240964"/>
      <point x="-16.216867469879517" y="706.6265060240964" type="curve" smooth="yes"/>
      <point x="12.674698795180724" y="706.6265060240964"/>
      <point x="27.253012048192772" y="697.7590361445783"/>
      <point x="27.253012048192772" y="679.8915662650602" type="curve" smooth="yes"/>
      <point x="27.253012048192772" y="642.5783132530121"/>
      <point x="-32.21686746987952" y="632.156626506024"/>
      <point x="-32.21686746987952" y="573.2650602409639" type="curve" smooth="yes"/>
    </contour>
  </outline>
</glyph>
<glyph name="ringcomb" format="2">
  <unicode hex="030A"/>
  <anchor x="0.0" y="484.0" name="_top"/>
  <anchor x="0.0" y="685.0" name="top"/>
  <outline>
    <contour>
      <point x="0.0" y="546.289156626506" type="curve" smooth="yes"/>
      <point x="68.6867469879518" y="546.289156626506"/>
      <point x="121.95180722891567" y="598.843373493976"/>
      <point x="121.95180722891567" y="665.5301204819277" type="curve" smooth="yes"/>
      <point x="121.95180722891567" y="732.2168674698795"/>
      <point x="68.6867469879518" y="784.0602409638554"/>
      <point x="0.0" y="784.0602409638554" type="curve" smooth="yes"/>
      <point x="-68.6867469879518" y="784.0602409638554"/>
      <point x="-121.95180722891567" y="732.2168674698795"/>
      <point x="-121.95180722891567" y="665.5301204819277" type="curve" smooth="yes"/>
      <point x="-121.95180722891567" y="598.843373493976"/>
      <point x="-68.6867469879518" y="546.289156626506"/>
    </contour>
    <contour>
      <point x="0.0" y="596.0602409638554" type="curve" smooth="yes"/>
      <point x="-39.60240963855422" y="596.0602409638554"/>
      <point x="-68.75903614457832" y="625.7951807228916"/>
      <point x="-68.75903614457832" y="665.5301204819277" type="curve" smooth="yes"/>
      <point x="-68.75903614457832" y="704.5542168674699"/>
      <point x="-39.60240963855422" y="734.289156626506"/>
      <point x="0.0" y="734.289156626506" type="curve" smooth="yes"/>
      <point x="40.31325301204819" y="734.289156626506"/>
      <point x="68.75903614457832" y="704.5542168674699"/>
      <point x="68.75903614457832" y="665.5301204819277" type="curve" smooth="yes"/>
      <point x="68.75903614457832" y="625.7951807228916"/>
      <point x="40.31325301204819" y="596.0602409638554"/>
    </contour>
  </outline>
</glyph>
<glyph name="caroncomb" format="2">
  <unicode hex="030C"/>
  <anchor x="0.0" y="484.0" name="_top"/>
  <anchor x="0.0" y="685.0" name="top"/>
  <outline>
    <contour>
      <point x="-46.036144578313255" y="552.5542168674699" type="line"/>
      <point x="46.036144578313255" y="552.5542168674699" type="line"/>
      <point x="155.74698795180723" y="754.6867469879518" type="line"/>
      <point x="88.75903614457832" y="754.6867469879518" type="line"/>
      <point x="0.0" y="614.3012048192771" type="line"/>
      <point x="-88.75903614457832" y="754.6867469879518" type="line"/>
      <point x="-155.74698795180723" y="754.6867469879518" type="line"/>
    </contour>
  </outline>
</glyph>
<glyph name="dblgravecomb" format="2">
  <unicode hex="030F"/>
  <anchor x="0.0" y="484.0" name="_top"/>
  <anchor x="0.0" y="685.0" name="top"/>
  <outline>
    <contour>
      <point x="42.42168674698795" y="552.5542168674699" type="line"/>
      <point x="97.144578313253" y="552.5542168674699" type="line"/>
      <point x="45.54216867469879" y="754.6867469879518" type="line"/>
      <point x="-42.975903614457835" y="754.6867469879518" type="line"/>
    </contour>
    <contour>
      <point x="-94.3012048192771" y="552.5542168674699" type="line"/>
      <point x="-39.57831325301205" y="552.5542168674699" type="line"/>
      <point x="-91.89156626506025" y="754.6867469879518" type="line"/>
      <point x="-180.40963855421688" y="754.6867469879518" type="line"/>
    </contour>
  </outline>
</glyph>
<glyph name="breveinvertedcomb" format="2">
  <unicode hex="0311"/>
  <anchor x="0.0" y="484.0" name="_top"/>
  <anchor x="0.0" y="685.0" name="top"/>
  <outline>
    <contour>
      <point x="-99.62650602409639" y="549.843373493976" type="line"/>
      <point x="-94.62650602409639" y="634.6265060240964"/>
      <point x="-58.89156626506024" y="682.8072289156627"/>
      <point x="0.0" y="682.8072289156627" type="curve" smooth="yes"/>
      <point x="58.89156626506024" y="682.8072289156627"/>
      <point x="94.62650602409639" y="634.6265060240964"/>
      <point x="99.62650602409639" y="549.843373493976" type="curve"/>
      <point x="159.63855421686748" y="555.2650602409639" type="line"/>
      <point x="155.48192771084337" y="673.6867469879518"/>
      <point x="93.66265060240964" y="747.2409638554217"/>
      <point x="0.0" y="747.2409638554217" type="curve" smooth="yes"/>
      <point x="-92.95180722891567" y="747.2409638554217"/>
      <point x="-154.7710843373494" y="673.6867469879518"/>
      <point x="-159.63855421686748" y="555.2650602409639" type="curve"/>
    </contour>
  </outline>
</glyph>
<glyph name="commaturnedabovecomb" format="2">
  <unicode hex="0312"/>
  <anchor x="0.0" y="484.0" name="_top"/>
  <anchor x="0.0" y="685.0" name="top"/>
  <outline>
    <contour>
      <point x="-56.325301204819276" y="565.7349397590361" type="line"/>
      <point x="56.325301204819276" y="565.7349397590361" type="line"/>
      <point x="56.325301204819276" y="657.0361445783133" type="line"/>
      <point x="-22.819277108433734" y="657.0361445783133" type="line"/>
      <point x="0.7108433734939759" y="644.3493975903615" type="line"/>
      <point x="0.7108433734939759" y="675.9277108433735"/>
      <point x="9.132530120481928" y="702.2168674698795"/>
      <point x="38.71084337349397" y="732.9518072289156" type="curve"/>
      <point x="-2.216867469879517" y="761.4819277108434" type="line"/>
      <point x="-40.325301204819276" y="725.9277108433735"/>
      <point x="-56.325301204819276" y="681.0843373493976"/>
      <point x="-56.325301204819276" y="628.9759036144578" type="curve" smooth="yes"/>
    </contour>
  </outline>
</glyph>
<glyph name="cedillacomb" format="2">
  <unicode hex="0327"/>
  <anchor x="0.0" y="0.0" name="_bottom"/>
  <outline>
    <contour>
      <point x="2.1566265060240966" y="-193.55421686746988" type="curve" smooth="yes"/>
      <point x="70.13253012048193" y="-193.55421686746988"/>
      <point x="117.39759036144578" y="-160.13253012048193"/>
      <point x="117.39759036144578" y="-109.57831325301206" type="curve" smooth="yes"/>
      <point x="117.39759036144578" y="-65.73493975903614"/>
      <point x="81.6867469879518" y="-39.60240963855422"/>
      <point x="30.156626506024097" y="-39.60240963855422" type="curve" smooth="yes"/>
      <point x="16.156626506024097" y="-39.60240963855422"/>
      <point x="0.4457831325301207" y="-42.60240963855422"/>
      <point x="-15.55421686746988" y="-47.31325301204819" type="curve"/>
      <point x="12.397590361445783" y="-55.71084337349397" type="line"/>
      <point x="25.397590361445783" y="20.0" type="line"/>
      <point x="-33.21686746987952" y="20.0" type="line"/>
      <point x="-46.795180722891565" y="-71.73493975903614" type="line"/>
      <point x="-28.951807228915662" y="-88.28915662650603" type="line"/>
      <point x="-10.506024096385541" y="-82.42168674698794"/>
      <point x="1.361445783132531" y="-81.13253012048193"/>
      <point x="14.93975903614458" y="-81.13253012048193" type="curve" smooth="yes"/>
      <point x="40.93975903614458" y="-81.13253012048193"/>
      <point x="52.51807228915663" y="-90.28915662650603"/>
      <point x="52.51807228915663" y="-106.73493975903614" type="curve" smooth="yes"/>
      <point x="52.51807228915663" y="-129.04819277108433"/>
      <point x="31.49397590361446" y="-140.49397590361446"/>
      <point x="-3.7951807228915655" y="-140.49397590361446" type="curve" smooth="yes"/>
      <point x="-32.95180722891566" y="-140.49397590361446"/>
      <point x="-53.21686746987952" y="-135.0722891566265"/>
      <point x="-77.50602409638554" y="-123.78313253012048" type="curve"/>
      <point x="-92.90361445783132" y="-173.42168674698794" type="line"/>
      <point x="-69.92771084337349" y="-186.55421686746988"/>
      <point x="-34.53012048192771" y="-193.55421686746988"/>
    </contour>
  </outline>
</glyph>
<glyph name="ogonekcomb" format="2">
  <unicode hex="0328"/>
  <anchor x="0.0" y="0.0" name="_ogonek"/>
  <outline>
    <contour>
      <point x="-19.843373493975903" y="-193.55421686746988" type="curve" smooth="yes"/>
      <point x="13.289156626506024" y="-193.55421686746988"/>
      <point x="39.28915662650603" y="-187.97590361445782"/>
      <point x="61.81927710843374" y="-176.55421686746988" type="curve"/>
      <point x="47.39759036144578" y="-123.93975903614458" type="line"/>
      <point x="28.397590361445783" y="-131.51807228915663"/>
      <point x="12.108433734939759" y="-135.51807228915663"/>
      <point x="-6.313253012048193" y="-135.51807228915663" type="curve" smooth="yes"/>
      <point x="-38.60240963855422" y="-135.51807228915663"/>
      <point x="-63.46987951807229" y="-118.2289156626506"/>
      <point x="-63.46987951807229" y="-81.91566265060241" type="curve" smooth="yes"/>
      <point x="-63.46987951807229" y="-43.86746987951807"/>
      <point x="-32.13253012048193" y="-13.710843373493976"/>
      <point x="0.0" y="0.0" type="curve"/>
      <point x="-32.373493975903614" y="38.81927710843374" type="line"/>
      <point x="-92.92771084337349" y="11.662650602409638"/>
      <point x="-130.90361445783134" y="-38.75903614457832"/>
      <point x="-130.90361445783134" y="-93.02409638554217" type="curve" smooth="yes"/>
      <point x="-130.90361445783134" y="-154.710843373494"/>
      <point x="-88.34939759036145" y="-193.55421686746988"/>
    </contour>
  </outline>
</glyph>
<glyph name="slashlongcomb" format="2">
  <unicode hex="0338"/>
  <anchor x="0.0" y="245.710843373494" name="_center"/>
  <outline>
    <contour>
      <point x="-134.89156626506025" y="-51.63855421686747" type="line"/>
      <point x="192.6144578313253" y="509.13253012048193" type="line"/>
      <point x="134.89156626506025" y="543.0602409638554" type="line"/>
      <point x="-192.6144578313253" y="-17.710843373493976" type="line"/>
    </contour>
  </outline>
</glyph>
<glyph name="Delta" format="2">
  <advance width="735.9036144578313"/>
  <unicode hex="0394"/>
  <outline>
    <contour>
      <point x="42.31325301204819" y="0.0" type="line"/>
      <point x="694.3012048192771" y="0.0" type="line"/>
      <point x="694.3012048192771" y="59.566265060240966" type="line"/>
      <point x="411.4096385542169" y="705.0" type="line"/>
      <point x="325.2048192771084" y="705.0" type="line"/>
      <point x="42.31325301204819" y="59.566265060240966" type="line"/>
    </contour>
    <contour>
      <point x="366.95180722891564" y="589.4216867469879" type="line"/>
      <point x="368.95180722891564" y="589.4216867469879" type="line"/>
      <point x="600.3012048192771" y="47.80722891566265" type="line"/>
      <point x="600.3012048192771" y="83.78313253012048" type="line"/>
      <point x="136.3132530120482" y="83.78313253012048" type="line"/>
      <point x="136.3132530120482" y="47.80722891566265" type="line"/>
    </contour>
  </outline>
</glyph>
<glyph name="Sigma" format="2">
  <advance width="600.0"/>
  <unicode hex="03A3"/>
  <outline>
    <contour>
      <point x="40.78313253012048" y="-180.0" type="line"/>
      <point x="559.2168674698795" y="-180.0" type="line"/>
      <point x="559.2168674698795" y="-93.37349397590361" type="line"/>
      <point x="151.18072289156626" y="-93.37349397590361" type="line"/>
      <point x="151.18072289156626" y="-117.6144578313253" type="line"/>
      <point x="404.72289156626505" y="233.20481927710844" type="line"/>
      <point x="404.72289156626505" y="291.7951807228916" type="line"/>
      <point x="151.18072289156626" y="642.6144578313254" type="line"/>
      <point x="151.18072289156626" y="618.3734939759036" type="line"/>
      <point x="559.2168674698795" y="618.3734939759036" type="line"/>
      <point x="559.2168674698795" y="705.0" type="line"/>
      <point x="40.78313253012048" y="705.0" type="line"/>
      <point x="40.78313253012048" y="632.0602409638554" type="line"/>
      <point x="321.12048192771084" y="245.6024096385542" type="line"/>
      <point x="321.12048192771084" y="280.10843373493975" type="line"/>
      <point x="40.78313253012048" y="-107.06024096385542" type="line"/>
    </contour>
  </outline>
</glyph>
<glyph name="mu" format="2">
  <advance width="569.1686746987951"/>
  <unicode hex="03BC"/>
  <outline>
    <contour>
      <point x="68.07228915662651" y="-180.0" type="line"/>
      <point x="169.0722891566265" y="-180.0" type="line"/>
      <point x="160.80722891566265" y="59.674698795180724" type="line"/>
      <point x="150.9156626506024" y="59.674698795180724" type="line"/>
      <point x="172.93975903614458" y="7.734939759036145"/>
      <point x="213.0120481927711" y="-9.421686746987952"/>
      <point x="266.7951807228916" y="-9.421686746987952" type="curve" smooth="yes"/>
      <point x="331.3132530120482" y="-9.421686746987952"/>
      <point x="387.51807228915663" y="32.024096385542165"/>
      <point x="406.12048192771084" y="107.49397590361446" type="curve"/>
      <point x="399.8072289156627" y="107.49397590361446" type="line"/>
      <point x="399.8072289156627" y="0.0" type="line"/>
      <point x="498.3855421686747" y="0.0" type="line"/>
      <point x="498.3855421686747" y="487.5542168674699" type="line"/>
      <point x="397.3855421686747" y="487.5542168674699" type="line"/>
      <point x="397.3855421686747" y="212.6867469879518" type="line" smooth="yes"/>
      <point x="397.3855421686747" y="128.0120481927711"/>
      <point x="344.6024096385542" y="72.22891566265059"/>
      <point x="268.9277108433735" y="72.22891566265059" type="curve" smooth="yes"/>
      <point x="199.8313253012048" y="72.22891566265059"/>
      <point x="169.0722891566265" y="109.56626506024097"/>
      <point x="169.0722891566265" y="188.10843373493975" type="curve" smooth="yes"/>
      <point x="169.0722891566265" y="487.5542168674699" type="line"/>
      <point x="68.07228915662651" y="487.5542168674699" type="line"/>
    </contour>
  </outline>
</glyph>
<glyph name="pi" format="2">
  <advance width="601.2289156626506"/>
  <unicode hex="03C0"/>
  <outline>
    <contour>
      <point x="521.6987951807229" y="-6.554216867469879" type="curve" smooth="yes"/>
      <point x="540.8313253012049" y="-6.554216867469879"/>
      <point x="561.9638554216867" y="-4.554216867469879"/>
      <point x="587.2289156626506" y="-0.5542168674698793" type="curve"/>
      <point x="591.3614457831325" y="83.22891566265059" type="line"/>
      <point x="574.2048192771084" y="79.93975903614458"/>
      <point x="558.3373493975904" y="77.93975903614458"/>
      <point x="544.4698795180723" y="77.93975903614458" type="curve" smooth="yes"/>
      <point x="475.1566265060241" y="77.93975903614458"/>
      <point x="448.0" y="114.25301204819277"/>
      <point x="448.0" y="192.27710843373495" type="curve" smooth="yes"/>
      <point x="448.0" y="410.3253012048193" type="line"/>
      <point x="562.2048192771084" y="410.3253012048193" type="line"/>
      <point x="562.2048192771084" y="487.5542168674699" type="line"/>
      <point x="4.289156626506024" y="487.5542168674699" type="line"/>
      <point x="4.289156626506024" y="410.3253012048193" type="line"/>
      <point x="101.44578313253012" y="410.3253012048193" type="line"/>
      <point x="99.44578313253012" y="265.04819277108436"/>
      <point x="78.0" y="135.63855421686748"/>
      <point x="32.71084337349397" y="0.0" type="curve"/>
      <point x="138.0" y="0.0" type="line"/>
      <point x="179.289156626506" y="115.57831325301206"/>
      <point x="199.44578313253012" y="243.3855421686747"/>
      <point x="201.73493975903614" y="410.3253012048193" type="curve"/>
      <point x="347.0" y="410.3253012048193" type="line"/>
      <point x="347.0" y="184.74698795180723" type="line" smooth="yes"/>
      <point x="347.0" y="66.39759036144578"/>
      <point x="397.95180722891564" y="-6.554216867469879"/>
    </contour>
  </outline>
</glyph>
<glyph name="Dje-cy" format="2">
  <advance width="854.6746987951807"/>
  <unicode hex="0402"/>
  <outline>
    <contour>
      <point x="583.6385542168674" y="-189.42168674698794" type="curve" smooth="yes"/>
      <point x="716.433734939759" y="-189.42168674698794"/>
      <point x="799.7831325301205" y="-103.02409638554217"/>
      <point x="799.7831325301205" y="55.084337349397586" type="curve" smooth="yes"/>
      <point x="799.7831325301205" y="146.0" type="line" smooth="yes"/>
      <point x="799.7831325301205" y="341.5301204819277"/>
      <point x="699.9879518072289" y="438.2409638554217"/>
      <point x="513.3253012048193" y="438.2409638554217" type="curve" smooth="yes"/>
      <point x="453.27710843373495" y="438.2409638554217"/>
      <point x="392.3855421686747" y="425.0843373493976"/>
      <point x="357.3614457831325" y="405.48192771084337" type="curve"/>
      <point x="357.3614457831325" y="617.6626506024096" type="line"/>
      <point x="607.1686746987951" y="617.6626506024096" type="line"/>
      <point x="607.1686746987951" y="705.0" type="line"/>
      <point x="4.421686746987952" y="705.0" type="line"/>
      <point x="4.421686746987952" y="617.6626506024096" type="line"/>
      <point x="254.2289156626506" y="617.6626506024096" type="line"/>
      <point x="254.2289156626506" y="0.0" type="line"/>
      <point x="357.3614457831325" y="0.0" type="line"/>
      <point x="357.3614457831325" y="313.27710843373495" type="line"/>
      <point x="397.2530120481928" y="336.7469879518072"/>
      <point x="446.433734939759" y="348.1927710843373"/>
      <point x="503.0843373493976" y="348.1927710843373" type="curve" smooth="yes"/>
      <point x="630.9156626506024" y="348.1927710843373"/>
      <point x="696.6506024096385" y="283.8313253012048"/>
      <point x="696.6506024096385" y="140.0" type="curve" smooth="yes"/>
      <point x="696.6506024096385" y="51.24096385542168" type="line" smooth="yes"/>
      <point x="696.6506024096385" y="-51.87951807228916"/>
      <point x="652.0481927710844" y="-105.63855421686748"/>
      <point x="573.3975903614457" y="-105.63855421686748" type="curve" smooth="yes"/>
      <point x="538.6626506024096" y="-105.63855421686748"/>
      <point x="507.7951807228916" y="-100.06024096385542"/>
      <point x="483.2168674698795" y="-90.19277108433735" type="curve"/>
      <point x="464.10843373493975" y="-168.42168674698794" type="line"/>
      <point x="494.3734939759036" y="-181.13253012048193"/>
      <point x="537.5060240963855" y="-189.42168674698794"/>
    </contour>
  </outline>
</glyph>
<glyph name="Lje-cy" format="2">
  <advance width="1130.9759036144578"/>
  <unicode hex="0409"/>
  <outline>
    <contour>
      <point x="65.43373493975903" y="-15.843373493975903" type="line"/>
      <point x="200.8313253012048" y="51.71084337349397"/>
      <point x="277.65060240963857" y="181.79518072289156"/>
      <point x="277.65060240963857" y="465.8072289156627" type="curve" smooth="yes"/>
      <point x="277.65060240963857" y="617.6626506024096" type="line"/>
      <point x="547.4096385542168" y="617.6626506024096" type="line"/>
      <point x="547.4096385542168" y="0.0" type="line"/>
      <point x="852.5301204819277" y="0.0" type="line" smooth="yes"/>
      <point x="1001.3734939759036" y="0.0"/>
      <point x="1089.0602409638554" y="69.6867469879518"/>
      <point x="1089.0602409638554" y="201.66265060240963" type="curve" smooth="yes"/>
      <point x="1089.0602409638554" y="333.6385542168675"/>
      <point x="1001.3734939759036" y="401.7469879518072"/>
      <point x="852.5301204819277" y="401.7469879518072" type="curve" smooth="yes"/>
      <point x="650.5421686746988" y="401.7469879518072" type="line"/>
      <point x="650.5421686746988" y="705.0" type="line"/>
      <point x="182.20481927710844" y="705.0" type="line"/>
      <point x="182.20481927710844" y="492.1566265060241" type="line" smooth="yes"/>
      <point x="182.20481927710844" y="209.04819277108433"/>
      <point x="121.57831325301206" y="120.65060240963855"/>
      <point x="15.734939759036145" y="62.67469879518072" type="curve"/>
    </contour>
    <contour>
      <point x="650.5421686746988" y="83.78313253012048" type="line"/>
      <point x="650.5421686746988" y="317.96385542168673" type="line"/>
      <point x="840.8674698795181" y="317.96385542168673" type="line" smooth="yes"/>
      <point x="940.4096385542168" y="317.96385542168673"/>
      <point x="988.1927710843373" y="280.6265060240964"/>
      <point x="988.1927710843373" y="201.3734939759036" type="curve" smooth="yes"/>
      <point x="988.1927710843373" y="121.40963855421687"/>
      <point x="940.4096385542168" y="83.78313253012048"/>
      <point x="840.8674698795181" y="83.78313253012048" type="curve" smooth="yes"/>
    </contour>
  </outline>
</glyph>
<glyph name="Tshe-cy" format="2">
  <advance width="856.4578313253012"/>
  <unicode hex="040B"/>
  <outline>
    <contour>
      <point x="254.2289156626506" y="0.0" type="line"/>
      <point x="357.3614457831325" y="0.0" type="line"/>
      <point x="357.3614457831325" y="313.27710843373495" type="line"/>
      <point x="402.69879518072287" y="339.03614457831327"/>
      <point x="457.03614457831327" y="348.1927710843373"/>
      <point x="511.10843373493975" y="348.1927710843373" type="curve" smooth="yes"/>
      <point x="632.0963855421687" y="348.1927710843373"/>
      <point x="698.433734939759" y="285.12048192771084"/>
      <point x="698.433734939759" y="140.0" type="curve" smooth="yes"/>
      <point x="698.433734939759" y="0.0" type="line"/>
      <point x="801.566265060241" y="0.0" type="line"/>
      <point x="801.566265060241" y="146.0" type="line" smooth="yes"/>
      <point x="801.566265060241" y="341.5301204819277"/>
      <point x="702.1686746987951" y="438.2409638554217"/>
      <point x="521.0602409638554" y="438.2409638554217" type="curve" smooth="yes"/>
      <point x="461.30120481927713" y="438.2409638554217"/>
      <point x="396.2530120481928" y="426.3734939759036"/>
      <point x="357.3614457831325" y="405.48192771084337" type="curve"/>
      <point x="357.3614457831325" y="617.6626506024096" type="line"/>
      <point x="607.1686746987951" y="617.6626506024096" type="line"/>
      <point x="607.1686746987951" y="705.0" type="line"/>
      <point x="4.421686746987952" y="705.0" type="line"/>
      <point x="4.421686746987952" y="617.6626506024096" type="line"/>
      <point x="254.2289156626506" y="617.6626506024096" type="line"/>
    </contour>
  </outline>
</glyph>
<glyph name="Dzhe-cy" format="2">
  <advance width="760.9277108433735"/>
  <unicode hex="040F"/>
  <outline>
    <contour>
      <point x="333.8072289156627" y="-160.66265060240963" type="line"/>
      <point x="426.4096385542169" y="-160.66265060240963" type="line"/>
      <point x="426.4096385542169" y="0.0" type="line"/>
      <point x="678.433734939759" y="0.0" type="line"/>
      <point x="678.433734939759" y="705.0" type="line"/>
      <point x="575.3012048192771" y="705.0" type="line"/>
      <point x="575.3012048192771" y="87.33734939759036" type="line"/>
      <point x="185.6265060240964" y="87.33734939759036" type="line"/>
      <point x="185.6265060240964" y="705.0" type="line"/>
      <point x="82.49397590361446" y="705.0" type="line"/>
      <point x="82.49397590361446" y="0.0" type="line"/>
      <point x="333.8072289156627" y="0.0" type="line"/>
    </contour>
  </outline>
</glyph>
<glyph name="Be-cy" format="2">
  <advance width="666.0602409638554"/>
  <unicode hex="0411"/>
  <outline>
    <contour>
      <point x="82.49397590361446" y="0.0" type="line"/>
      <point x="387.6144578313253" y="0.0" type="line" smooth="yes"/>
      <point x="536.4578313253012" y="0.0"/>
      <point x="624.144578313253" y="69.6867469879518"/>
      <point x="624.144578313253" y="201.66265060240963" type="curve" smooth="yes"/>
      <point x="624.144578313253" y="333.6385542168675"/>
      <point x="536.4578313253012" y="401.7469879518072"/>
      <point x="387.6144578313253" y="401.7469879518072" type="curve" smooth="yes"/>
      <point x="182.0722891566265" y="401.7469879518072" type="line"/>
      <point x="182.0722891566265" y="621.2168674698795" type="line"/>
      <point x="556.5903614457832" y="621.2168674698795" type="line"/>
      <point x="556.5903614457832" y="705.0" type="line"/>
      <point x="82.49397590361446" y="705.0" type="line"/>
    </contour>
    <contour>
      <point x="182.0722891566265" y="83.78313253012048" type="line"/>
      <point x="182.0722891566265" y="317.96385542168673" type="line"/>
      <point x="375.95180722891564" y="317.96385542168673" type="line" smooth="yes"/>
      <point x="475.49397590361446" y="317.96385542168673"/>
      <point x="523.277108433735" y="280.6265060240964"/>
      <point x="523.277108433735" y="201.3734939759036" type="curve" smooth="yes"/>
      <point x="523.277108433735" y="121.40963855421687"/>
      <point x="475.49397590361446" y="83.78313253012048"/>
      <point x="375.95180722891564" y="83.78313253012048" type="curve" smooth="yes"/>
    </contour>
  </outline>
</glyph>
<glyph name="De-cy" format="2">
  <advance width="787.722891566265"/>
  <unicode hex="0414"/>
  <outline>
    <contour>
      <point x="15.44578313253012" y="-160.66265060240963" type="line"/>
      <point x="108.04819277108433" y="-160.66265060240963" type="line"/>
      <point x="108.04819277108433" y="0.0" type="line"/>
      <point x="672.8313253012049" y="0.0" type="line"/>
      <point x="672.8313253012049" y="-160.66265060240963" type="line"/>
      <point x="765.433734939759" y="-160.66265060240963" type="line"/>
      <point x="765.433734939759" y="83.78313253012048" type="line"/>
      <point x="665.433734939759" y="83.78313253012048" type="line"/>
      <point x="665.433734939759" y="705.0" type="line"/>
      <point x="183.49397590361446" y="705.0" type="line"/>
      <point x="183.49397590361446" y="522.156626506024" type="line" smooth="yes"/>
      <point x="183.49397590361446" y="309.03614457831327"/>
      <point x="152.04819277108433" y="167.8313253012048"/>
      <point x="84.86746987951807" y="83.78313253012048" type="curve"/>
      <point x="15.44578313253012" y="83.78313253012048" type="line"/>
    </contour>
    <contour>
      <point x="190.86746987951807" y="83.78313253012048" type="line"/>
      <point x="251.49397590361446" y="175.40963855421688"/>
      <point x="279.65060240963857" y="308.90361445783134"/>
      <point x="279.65060240963857" y="513.6265060240964" type="curve" smooth="yes"/>
      <point x="279.65060240963857" y="621.2168674698795" type="line"/>
      <point x="561.5903614457832" y="621.2168674698795" type="line"/>
      <point x="561.5903614457832" y="83.78313253012048" type="line"/>
    </contour>
  </outline>
</glyph>
<glyph name="Ze-cy" format="2">
  <advance width="637.1807228915662"/>
  <unicode hex="0417"/>
  <anchor x="316.0240963855422" y="0.0" name="bottom"/>
  <anchor x="311.4698795180723" y="705.0" name="top"/>
  <outline>
    <contour>
      <point x="308.33734939759034" y="-9.421686746987952" type="curve" smooth="yes"/>
      <point x="492.71084337349396" y="-9.421686746987952"/>
      <point x="579.6867469879518" y="69.97590361445783"/>
      <point x="579.6867469879518" y="195.26506024096386" type="curve" smooth="yes"/>
      <point x="579.6867469879518" y="292.71084337349396"/>
      <point x="519.9518072289156" y="355.0"/>
      <point x="422.0843373493976" y="368.5542168674699" type="curve"/>
      <point x="422.0843373493976" y="353.8433734939759" type="line"/>
      <point x="507.8192771084337" y="373.5542168674699"/>
      <point x="562.9759036144578" y="434.5542168674699"/>
      <point x="562.9759036144578" y="521.4216867469879" type="curve" smooth="yes"/>
      <point x="562.9759036144578" y="636.8674698795181"/>
      <point x="478.8433734939759" y="714.4216867469879"/>
      <point x="311.89156626506025" y="714.4216867469879" type="curve" smooth="yes"/>
      <point x="210.20481927710844" y="714.4216867469879"/>
      <point x="113.49397590361446" y="683.843373493976"/>
      <point x="50.78313253012048" y="628.5301204819277" type="curve"/>
      <point x="85.28915662650603" y="549.8795180722891" type="line"/>
      <point x="144.89156626506025" y="600.9277108433735"/>
      <point x="220.75903614457832" y="625.7951807228916"/>
      <point x="301.93975903614455" y="625.7951807228916" type="curve" smooth="yes"/>
      <point x="408.6144578313253" y="625.7951807228916"/>
      <point x="459.9759036144578" y="580.8795180722891"/>
      <point x="459.9759036144578" y="509.6265060240964" type="curve" smooth="yes"/>
      <point x="459.9759036144578" y="436.2409638554217"/>
      <point x="410.90361445783134" y="398.7469879518072"/>
      <point x="313.65060240963857" y="398.7469879518072" type="curve" smooth="yes"/>
      <point x="158.49397590361446" y="398.7469879518072" type="line"/>
      <point x="158.49397590361446" y="315.67469879518075" type="line"/>
      <point x="330.0722891566265" y="315.67469879518075" type="line" smooth="yes"/>
      <point x="429.6144578313253" y="315.67469879518075"/>
      <point x="477.3975903614458" y="279.33734939759034"/>
      <point x="477.3975903614458" y="202.2168674698795" type="curve" smooth="yes"/>
      <point x="477.3975903614458" y="120.12048192771084"/>
      <point x="422.06024096385545" y="79.9156626506024"/>
      <point x="301.2289156626506" y="79.9156626506024" type="curve" smooth="yes"/>
      <point x="203.89156626506025" y="79.9156626506024"/>
      <point x="130.6024096385542" y="105.78313253012048"/>
      <point x="69.71084337349397" y="158.12048192771084" type="curve"/>
      <point x="35.204819277108435" y="78.75903614457832" type="line"/>
      <point x="97.73493975903614" y="24.02409638554217"/>
      <point x="189.75903614457832" y="-9.421686746987952"/>
    </contour>
  </outline>
</glyph>
<glyph name="U-cy" format="2">
  <advance width="650.7469879518072"/>
  <unicode hex="0423"/>
  <anchor x="328.50602409638554" y="705.0" name="top"/>
  <outline>
    <contour>
      <point x="190.25301204819277" y="0.0" type="line"/>
      <point x="298.09638554216866" y="0.0" type="line"/>
      <point x="658.5421686746988" y="705.0" type="line"/>
      <point x="551.6987951807229" y="705.0" type="line"/>
      <point x="339.421686746988" y="289.7590361445783" type="line"/>
      <point x="359.2409638554217" y="289.7590361445783" type="line"/>
      <point x="103.9156626506024" y="705.0" type="line"/>
      <point x="-7.060240963855421" y="705.0" type="line"/>
      <point x="309.09638554216866" y="195.86746987951807" type="line"/>
      <point x="309.09638554216866" y="231.53012048192772" type="line"/>
    </contour>
  </outline>
</glyph>
<glyph name="Ef-cy" format="2">
  <advance width="863.3132530120482"/>
  <unicode hex="0424"/>
  <outline>
    <contour>
      <point x="379.73493975903614" y="-23.55421686746988" type="line"/>
      <point x="483.578313253012" y="-23.55421686746988" type="line"/>
      <point x="483.578313253012" y="76.6867469879518" type="line"/>
      <point x="456.7831325301205" y="55.57831325301205" type="line"/>
      <point x="482.2048192771084" y="55.57831325301205" type="line" smooth="yes"/>
      <point x="683.4457831325301" y="55.57831325301205"/>
      <point x="805.5542168674699" y="168.89156626506025"/>
      <point x="805.5542168674699" y="358.0" type="curve" smooth="yes"/>
      <point x="805.5542168674699" y="549.1084337349398"/>
      <point x="687.4457831325301" y="660.1325301204819"/>
      <point x="482.2048192771084" y="660.1325301204819" type="curve" smooth="yes"/>
      <point x="456.7831325301205" y="660.1325301204819" type="line"/>
      <point x="483.578313253012" y="639.0240963855422" type="line"/>
      <point x="483.578313253012" y="733.5542168674699" type="line"/>
      <point x="379.73493975903614" y="733.5542168674699" type="line"/>
      <point x="379.73493975903614" y="639.0240963855422" type="line"/>
      <point x="406.5301204819277" y="660.1325301204819" type="line"/>
      <point x="381.10843373493975" y="660.1325301204819" type="line" smooth="yes"/>
      <point x="175.86746987951807" y="660.1325301204819"/>
      <point x="57.75903614457832" y="549.1084337349398"/>
      <point x="57.75903614457832" y="358.0" type="curve" smooth="yes"/>
      <point x="57.75903614457832" y="168.89156626506025"/>
      <point x="179.86746987951807" y="55.57831325301205"/>
      <point x="381.10843373493975" y="55.57831325301205" type="curve" smooth="yes"/>
      <point x="406.5301204819277" y="55.57831325301205" type="line"/>
      <point x="379.73493975903614" y="76.6867469879518" type="line"/>
    </contour>
    <contour>
      <point x="380.4457831325301" y="116.83132530120481" type="line"/>
      <point x="403.6867469879518" y="136.51807228915663" type="line"/>
      <point x="368.9759036144578" y="136.51807228915663" type="line" smooth="yes"/>
      <point x="248.3855421686747" y="136.51807228915663"/>
      <point x="163.89156626506025" y="216.7710843373494"/>
      <point x="163.89156626506025" y="358.0" type="curve" smooth="yes"/>
      <point x="163.89156626506025" y="502.8072289156627"/>
      <point x="245.3855421686747" y="579.1927710843373"/>
      <point x="368.9759036144578" y="579.1927710843373" type="curve" smooth="yes"/>
      <point x="403.6867469879518" y="579.1927710843373" type="line"/>
      <point x="380.4457831325301" y="598.8795180722891" type="line"/>
    </contour>
    <contour>
      <point x="482.86746987951807" y="116.83132530120481" type="line"/>
      <point x="482.86746987951807" y="598.8795180722891" type="line"/>
      <point x="459.6265060240964" y="579.1927710843373" type="line"/>
      <point x="494.33734939759034" y="579.1927710843373" type="line" smooth="yes"/>
      <point x="617.9277108433735" y="579.1927710843373"/>
      <point x="699.4216867469879" y="502.8072289156627"/>
      <point x="699.4216867469879" y="358.0" type="curve" smooth="yes"/>
      <point x="699.4216867469879" y="216.7710843373494"/>
      <point x="614.9277108433735" y="136.51807228915663"/>
      <point x="494.33734939759034" y="136.51807228915663" type="curve" smooth="yes"/>
      <point x="459.6265060240964" y="136.51807228915663" type="line"/>
    </contour>
  </outline>
</glyph>
<glyph name="Hardsign-cy" format="2">
  <advance width="797.3253012048193"/>
  <unicode hex="042A"/>
  <outline>
    <contour>
      <point x="213.75903614457832" y="0.0" type="line"/>
      <point x="518.8795180722891" y="0.0" type="line" smooth="yes"/>
      <point x="668.433734939759" y="0.0"/>
      <point x="755.4096385542168" y="69.6867469879518"/>
      <point x="755.4096385542168" y="201.66265060240963" type="curve" smooth="yes"/>
      <point x="755.4096385542168" y="333.6385542168675"/>
      <point x="668.433734939759" y="401.7469879518072"/>
      <point x="518.8795180722891" y="401.7469879518072" type="curve" smooth="yes"/>
      <point x="317.6024096385542" y="401.7469879518072" type="line"/>
      <point x="317.6024096385542" y="705.0" type="line"/>
      <point x="4.421686746987952" y="705.0" type="line"/>
      <point x="4.421686746987952" y="617.6626506024096" type="line"/>
      <point x="213.75903614457832" y="617.6626506024096" type="line"/>
    </contour>
    <contour>
      <point x="317.6024096385542" y="83.78313253012048" type="line"/>
      <point x="317.6024096385542" y="317.96385542168673" type="line"/>
      <point x="507.9277108433735" y="317.96385542168673" type="line" smooth="yes"/>
      <point x="606.7590361445783" y="317.96385542168673"/>
      <point x="655.2530120481928" y="280.6265060240964"/>
      <point x="655.2530120481928" y="201.3734939759036" type="curve" smooth="yes"/>
      <point x="655.2530120481928" y="121.40963855421687"/>
      <point x="606.7590361445783" y="83.78313253012048"/>
      <point x="507.9277108433735" y="83.78313253012048" type="curve" smooth="yes"/>
    </contour>
  </outline>
</glyph>
<glyph name="Ereversed-cy" format="2">
  <advance width="675.5301204819277"/>
  <unicode hex="042D"/>
  <anchor x="300.5301204819277" y="0.0" name="bottom"/>
  <anchor x="300.5301204819277" y="705.0" name="top"/>
  <outline>
    <contour>
      <point x="277.4698795180723" y="-9.421686746987952" type="curve" smooth="yes"/>
      <point x="491.10843373493975" y="-9.421686746987952"/>
      <point x="617.7710843373494" y="130.42168674698794"/>
      <point x="617.7710843373494" y="353.0" type="curve" smooth="yes"/>
      <point x="617.7710843373494" y="574.5783132530121"/>
      <point x="491.10843373493975" y="714.4216867469879"/>
      <point x="287.4698795180723" y="714.4216867469879" type="curve" smooth="yes"/>
      <point x="191.89156626506025" y="714.4216867469879"/>
      <point x="104.62650602409639" y="683.1325301204819"/>
      <point x="38.75903614457832" y="626.5301204819277" type="curve"/>
      <point x="74.97590361445783" y="543.9036144578313" type="line"/>
      <point x="145.8433734939759" y="599.7951807228916"/>
      <point x="208.289156626506" y="621.5301204819277"/>
      <point x="284.9156626506024" y="621.5301204819277" type="curve" smooth="yes"/>
      <point x="419.90361445783134" y="621.5301204819277"/>
      <point x="502.2409638554217" y="530.1204819277109"/>
      <point x="508.7951807228916" y="373.95180722891564" type="curve"/>
      <point x="540.5903614457832" y="400.4578313253012" type="line"/>
      <point x="169.57831325301206" y="400.4578313253012" type="line"/>
      <point x="169.57831325301206" y="316.67469879518075" type="line"/>
      <point x="542.3012048192771" y="316.67469879518075" type="line"/>
      <point x="509.50602409638554" y="340.6024096385542" type="line"/>
      <point x="503.95180722891564" y="174.16867469879517"/>
      <point x="419.90361445783134" y="83.46987951807229"/>
      <point x="274.9156626506024" y="83.46987951807229" type="curve" smooth="yes"/>
      <point x="198.289156626506" y="83.46987951807229"/>
      <point x="135.8433734939759" y="106.62650602409639"/>
      <point x="74.97590361445783" y="161.09638554216866" type="curve"/>
      <point x="38.75903614457832" y="78.46987951807229" type="line"/>
      <point x="94.62650602409639" y="22.57831325301205"/>
      <point x="181.89156626506025" y="-9.421686746987952"/>
    </contour>
  </outline>
</glyph>
<glyph name="Ia-cy" format="2">
  <advance width="678.8795180722891"/>
  <unicode hex="042F"/>
  <outline>
    <contour>
      <point x="34.626506024096386" y="0.0" type="line"/>
      <point x="148.1566265060241" y="0.0" type="line"/>
      <point x="270.86746987951807" y="225.289156626506" type="line" smooth="yes"/>
      <point x="298.6265060240964" y="276.51807228915663"/>
      <point x="332.2289156626506" y="290.67469879518075"/>
      <point x="389.6144578313253" y="290.67469879518075" type="curve" smooth="yes"/>
      <point x="493.2530120481928" y="290.67469879518075" type="line"/>
      <point x="493.2530120481928" y="0.0" type="line"/>
      <point x="596.3855421686746" y="0.0" type="line"/>
      <point x="596.3855421686746" y="705.0" type="line"/>
      <point x="304.421686746988" y="705.0" type="line" smooth="yes"/>
      <point x="151.44578313253012" y="705.0"/>
      <point x="66.18072289156626" y="629.3132530120482"/>
      <point x="66.18072289156626" y="498.04819277108436" type="curve" smooth="yes"/>
      <point x="66.18072289156626" y="369.3614457831325"/>
      <point x="154.02409638554218" y="293.67469879518075"/>
      <point x="304.421686746988" y="293.67469879518075" type="curve"/>
      <point x="308.73493975903614" y="307.8072289156627" type="line"/>
      <point x="279.7831325301205" y="307.8072289156627" type="line" smooth="yes"/>
      <point x="225.93975903614458" y="307.8072289156627"/>
      <point x="187.67469879518072" y="282.09638554216866"/>
      <point x="156.3855421686747" y="224.2289156626506" type="curve" smooth="yes"/>
    </contour>
    <contour>
      <point x="321.2168674698795" y="369.48192771084337" type="line" smooth="yes"/>
      <point x="219.3855421686747" y="369.48192771084337"/>
      <point x="167.04819277108433" y="412.10843373493975"/>
      <point x="167.04819277108433" y="496.2048192771084" type="curve" smooth="yes"/>
      <point x="167.04819277108433" y="579.3012048192771"/>
      <point x="219.3855421686747" y="621.9277108433735"/>
      <point x="321.2168674698795" y="621.9277108433735" type="curve" smooth="yes"/>
      <point x="493.2530120481928" y="621.9277108433735" type="line"/>
      <point x="493.2530120481928" y="369.48192771084337" type="line"/>
    </contour>
  </outline>
</glyph>
<glyph name="ve-cy" format="2">
  <advance width="556.433734939759"/>
  <unicode hex="0432"/>
  <outline>
    <contour>
      <point x="75.91566265060241" y="0.0" type="line"/>
      <point x="333.1686746987952" y="0.0" type="line" smooth="yes"/>
      <point x="449.2530120481928" y="0.0"/>
      <point x="514.0963855421687" y="52.13253012048193"/>
      <point x="514.0963855421687" y="135.55421686746988" type="curve" smooth="yes"/>
      <point x="514.0963855421687" y="204.8433734939759"/>
      <point x="465.9156626506024" y="253.42168674698794"/>
      <point x="381.51807228915663" y="256.9759036144578" type="curve"/>
      <point x="381.51807228915663" y="243.55421686746988" type="line"/>
      <point x="451.09638554216866" y="251.6867469879518"/>
      <point x="497.6746987951807" y="297.26506024096386"/>
      <point x="497.6746987951807" y="359.5542168674699" type="curve" smooth="yes"/>
      <point x="497.6746987951807" y="441.71084337349396"/>
      <point x="445.09638554216866" y="487.5542168674699"/>
      <point x="325.1686746987952" y="487.5542168674699" type="curve" smooth="yes"/>
      <point x="75.91566265060241" y="487.5542168674699" type="line"/>
    </contour>
    <contour>
      <point x="170.51807228915663" y="65.144578313253" type="line"/>
      <point x="170.51807228915663" y="215.9156626506024" type="line"/>
      <point x="326.50602409638554" y="215.9156626506024" type="line" smooth="yes"/>
      <point x="387.578313253012" y="215.9156626506024"/>
      <point x="420.6265060240964" y="189.73493975903614"/>
      <point x="420.6265060240964" y="140.53012048192772" type="curve" smooth="yes"/>
      <point x="420.6265060240964" y="91.32530120481928"/>
      <point x="387.578313253012" y="65.144578313253"/>
      <point x="326.50602409638554" y="65.144578313253" type="curve" smooth="yes"/>
    </contour>
    <contour>
      <point x="170.51807228915663" y="281.06024096385545" type="line"/>
      <point x="170.51807228915663" y="422.4096385542169" type="line"/>
      <point x="317.7951807228916" y="422.4096385542169" type="line" smooth="yes"/>
      <point x="372.4457831325301" y="422.4096385542169"/>
      <point x="404.2048192771084" y="397.65060240963857"/>
      <point x="404.2048192771084" y="352.4457831325301" type="curve" smooth="yes"/>
      <point x="404.2048192771084" y="307.2409638554217"/>
      <point x="372.4457831325301" y="281.06024096385545"/>
      <point x="317.7951807228916" y="281.06024096385545" type="curve" smooth="yes"/>
    </contour>
  </outline>
</glyph>
<glyph name="de-cy" format="2">
  <advance width="603.8313253012049"/>
  <unicode hex="0434"/>
  <outline>
    <contour>
      <point x="26.289156626506024" y="-130.0" type="line"/>
      <point x="112.62650602409639" y="-130.0" type="line"/>
      <point x="112.62650602409639" y="0.0" type="line"/>
      <point x="492.73493975903614" y="0.0" type="line"/>
      <point x="492.73493975903614" y="-130.0" type="line"/>
      <point x="579.0722891566265" y="-130.0" type="line"/>
      <point x="579.0722891566265" y="80.07228915662651" type="line"/>
      <point x="500.8072289156627" y="80.07228915662651" type="line"/>
      <point x="500.8072289156627" y="487.5542168674699" type="line"/>
      <point x="139.75903614457832" y="487.5542168674699" type="line"/>
      <point x="139.75903614457832" y="345.95180722891564" type="line" smooth="yes"/>
      <point x="139.75903614457832" y="224.48192771084337"/>
      <point x="122.73493975903614" y="144.5421686746988"/>
      <point x="79.6867469879518" y="80.07228915662651" type="curve"/>
      <point x="26.289156626506024" y="80.07228915662651" type="line"/>
    </contour>
    <contour>
      <point x="173.89156626506025" y="80.07228915662651" type="line"/>
      <point x="208.65060240963857" y="141.27710843373495"/>
      <point x="227.67469879518072" y="232.3734939759036"/>
      <point x="227.67469879518072" y="325.33734939759034" type="curve" smooth="yes"/>
      <point x="227.67469879518072" y="408.90361445783134" type="line"/>
      <point x="405.49397590361446" y="408.90361445783134" type="line"/>
      <point x="405.49397590361446" y="80.07228915662651" type="line"/>
    </contour>
  </outline>
</glyph>
<glyph name="zhe-cy" format="2">
  <advance width="803.4457831325301"/>
  <unicode hex="0436"/>
  <anchor x="704.9518072289156" y="0.0" name="bottomright"/>
  <anchor x="401.72289156626505" y="484.0" name="top"/>
  <outline>
    <contour>
      <point x="-2.240963855421686" y="0.0" type="line"/>
      <point x="106.3132530120482" y="0.0" type="line"/>
      <point x="191.49397590361446" y="145.73493975903614" type="line" smooth="yes"/>
      <point x="221.8313253012048" y="197.51807228915663"/>
      <point x="244.27710843373495" y="210.96385542168676"/>
      <point x="294.6385542168675" y="210.96385542168676" type="curve" smooth="yes"/>
      <point x="351.578313253012" y="210.96385542168676" type="line"/>
      <point x="351.578313253012" y="0.0" type="line"/>
      <point x="452.578313253012" y="0.0" type="line"/>
      <point x="452.578313253012" y="210.96385542168676" type="line"/>
      <point x="509.51807228915663" y="210.96385542168676" type="line" smooth="yes"/>
      <point x="559.1686746987951" y="210.96385542168676"/>
      <point x="582.3253012048193" y="197.51807228915663"/>
      <point x="612.6626506024096" y="145.73493975903614" type="curve" smooth="yes"/>
      <point x="697.843373493976" y="0.0" type="line"/>
      <point x="805.6867469879518" y="0.0" type="line"/>
      <point x="705.1325301204819" y="174.48192771084337" type="line" smooth="yes"/>
      <point x="663.9277108433735" y="244.8433734939759"/>
      <point x="631.3975903614457" y="272.66265060240966"/>
      <point x="576.5301204819277" y="279.3734939759036" type="curve"/>
      <point x="599.0843373493976" y="247.46987951807228" type="line"/>
      <point x="781.9518072289156" y="487.5542168674699" type="line"/>
      <point x="672.5301204819277" y="487.5542168674699" type="line"/>
      <point x="521.6987951807229" y="290.32530120481925" type="line"/>
      <point x="452.578313253012" y="290.32530120481925" type="line"/>
      <point x="452.578313253012" y="487.5542168674699" type="line"/>
      <point x="351.578313253012" y="487.5542168674699" type="line"/>
      <point x="351.578313253012" y="290.32530120481925" type="line"/>
      <point x="282.4578313253012" y="290.32530120481925" type="line"/>
      <point x="130.9156626506024" y="487.5542168674699" type="line"/>
      <point x="21.49397590361446" y="487.5542168674699" type="line"/>
      <point x="205.0722891566265" y="247.46987951807228" type="line"/>
      <point x="226.9156626506024" y="279.3734939759036" type="line"/>
      <point x="172.04819277108433" y="272.66265060240966"/>
      <point x="140.2289156626506" y="244.8433734939759"/>
      <point x="99.02409638554217" y="174.48192771084337" type="curve" smooth="yes"/>
    </contour>
  </outline>
</glyph>
<glyph name="ze-cy" format="2">
  <advance width="506.855421686747"/>
  <unicode hex="0437"/>
  <anchor x="254.06024096385542" y="0.0" name="bottom"/>
  <anchor x="249.79518072289156" y="487.5542168674699" name="top"/>
  <outline>
    <contour>
      <point x="245.9277108433735" y="-9.421686746987952" type="curve" smooth="yes"/>
      <point x="389.0120481927711" y="-9.421686746987952"/>
      <point x="464.51807228915663" y="47.28915662650603"/>
      <point x="464.51807228915663" y="135.55421686746988" type="curve" smooth="yes"/>
      <point x="464.51807228915663" y="206.97590361445782"/>
      <point x="413.2048192771084" y="253.42168674698794"/>
      <point x="331.65060240963857" y="256.9759036144578" type="curve"/>
      <point x="331.65060240963857" y="243.55421686746988" type="line"/>
      <point x="401.2289156626506" y="251.6867469879518"/>
      <point x="447.09638554216866" y="297.9759036144578"/>
      <point x="447.09638554216866" y="359.5542168674699" type="curve" smooth="yes"/>
      <point x="447.09638554216866" y="445.9759036144578"/>
      <point x="381.72289156626505" y="496.9759036144578"/>
      <point x="255.06024096385542" y="496.9759036144578" type="curve" smooth="yes"/>
      <point x="167.97590361445782" y="496.9759036144578"/>
      <point x="93.73493975903614" y="476.9759036144578"/>
      <point x="39.024096385542165" y="439.2409638554217" type="curve"/>
      <point x="68.26506024096386" y="371.96385542168673" type="line"/>
      <point x="118.42168674698794" y="404.72289156626505"/>
      <point x="173.13253012048193" y="421.72289156626505"/>
      <point x="240.13253012048193" y="421.72289156626505" type="curve" smooth="yes"/>
      <point x="321.1566265060241" y="421.72289156626505"/>
      <point x="353.6265060240964" y="394.8072289156627"/>
      <point x="353.6265060240964" y="351.0240963855422" type="curve" smooth="yes"/>
      <point x="353.6265060240964" y="308.66265060240966"/>
      <point x="321.421686746988" y="283.90361445783134"/>
      <point x="267.9277108433735" y="283.90361445783134" type="curve" smooth="yes"/>
      <point x="157.1566265060241" y="283.90361445783134" type="line"/>
      <point x="157.1566265060241" y="209.51807228915663" type="line"/>
      <point x="278.7710843373494" y="209.51807228915663" type="line" smooth="yes"/>
      <point x="339.13253012048193" y="209.51807228915663"/>
      <point x="370.7590361445783" y="184.75903614457832"/>
      <point x="370.7590361445783" y="139.10843373493975" type="curve" smooth="yes"/>
      <point x="370.7590361445783" y="90.03614457831326"/>
      <point x="333.0240963855422" y="65.83132530120481"/>
      <point x="243.79518072289156" y="65.83132530120481" type="curve" smooth="yes"/>
      <point x="175.50602409638554" y="65.83132530120481"/>
      <point x="107.6867469879518" y="84.40963855421687"/>
      <point x="60.975903614457835" y="120.3012048192771" type="curve"/>
      <point x="31.734939759036145" y="51.60240963855422" type="line"/>
      <point x="80.26506024096386" y="12.734939759036145"/>
      <point x="160.24096385542168" y="-9.421686746987952"/>
    </contour>
  </outline>
</glyph>
<glyph name="ii-cy" format="2">
  <advance width="593.0120481927711"/>
  <unicode hex="0438"/>
  <anchor x="425.49397590361446" y="0.0" name="bottomright"/>
  <anchor x="296.50602409638554" y="484.0" name="top"/>
  <outline>
    <contour>
      <point x="75.91566265060241" y="0.0" type="line"/>
      <point x="160.8313253012048" y="0.0" type="line"/>
      <point x="451.6265060240964" y="388.0240963855422" type="line"/>
      <point x="425.49397590361446" y="388.0240963855422" type="line"/>
      <point x="425.49397590361446" y="0.0" type="line"/>
      <point x="517.0963855421687" y="0.0" type="line"/>
      <point x="517.0963855421687" y="487.5542168674699" type="line"/>
      <point x="432.1807228915663" y="487.5542168674699" type="line"/>
      <point x="142.09638554216866" y="100.24096385542168" type="line"/>
      <point x="167.51807228915663" y="100.24096385542168" type="line"/>
      <point x="167.51807228915663" y="487.5542168674699" type="line"/>
      <point x="75.91566265060241" y="487.5542168674699" type="line"/>
    </contour>
  </outline>
</glyph>
<glyph name="ka-cy" format="2">
  <advance width="541.0722891566265"/>
  <unicode hex="043A"/>
  <anchor x="441.86746987951807" y="0.0" name="bottomright"/>
  <anchor x="263.4578313253012" y="245.13253012048193" name="center"/>
  <anchor x="297.7469879518072" y="484.0" name="top"/>
  <outline>
    <contour>
      <point x="75.91566265060241" y="0.0" type="line"/>
      <point x="176.9156626506024" y="0.0" type="line"/>
      <point x="176.9156626506024" y="210.96385542168676" type="line"/>
      <point x="246.43373493975903" y="210.96385542168676" type="line" smooth="yes"/>
      <point x="296.7951807228916" y="210.96385542168676"/>
      <point x="319.2409638554217" y="197.51807228915663"/>
      <point x="349.578313253012" y="145.73493975903614" type="curve" smooth="yes"/>
      <point x="434.7590361445783" y="0.0" type="line"/>
      <point x="543.3132530120482" y="0.0" type="line"/>
      <point x="442.04819277108436" y="174.48192771084337" type="line" smooth="yes"/>
      <point x="400.8433734939759" y="244.8433734939759"/>
      <point x="369.0240963855422" y="272.66265060240966"/>
      <point x="314.1566265060241" y="279.3734939759036" type="curve"/>
      <point x="338.8433734939759" y="247.46987951807228" type="line"/>
      <point x="519.5783132530121" y="487.5542168674699" type="line"/>
      <point x="410.1566265060241" y="487.5542168674699" type="line"/>
      <point x="258.6144578313253" y="290.32530120481925" type="line"/>
      <point x="176.9156626506024" y="290.32530120481925" type="line"/>
      <point x="176.9156626506024" y="487.5542168674699" type="line"/>
      <point x="75.91566265060241" y="487.5542168674699" type="line"/>
    </contour>
  </outline>
</glyph>
<glyph name="el-cy" format="2">
  <advance width="584.566265060241"/>
  <unicode hex="043B"/>
  <anchor x="414.04819277108436" y="0.0" name="bottomright"/>
  <outline>
    <contour>
      <point x="55.10843373493976" y="-12.55421686746988" type="line"/>
      <point x="180.59036144578312" y="26.518072289156628"/>
      <point x="230.51807228915663" y="127.33734939759036"/>
      <point x="230.51807228915663" y="347.87951807228916" type="curve" smooth="yes"/>
      <point x="230.51807228915663" y="407.48192771084337" type="line"/>
      <point x="407.65060240963857" y="407.48192771084337" type="line"/>
      <point x="407.65060240963857" y="0.0" type="line"/>
      <point x="508.65060240963857" y="0.0" type="line"/>
      <point x="508.65060240963857" y="487.5542168674699" type="line"/>
      <point x="136.9156626506024" y="487.5542168674699" type="line"/>
      <point x="136.9156626506024" y="351.0120481927711" type="line" smooth="yes"/>
      <point x="136.9156626506024" y="170.48192771084337"/>
      <point x="108.49397590361446" y="102.144578313253"/>
      <point x="21.02409638554217" y="67.36144578313252" type="curve"/>
    </contour>
  </outline>
</glyph>
<glyph name="em-cy" format="2">
  <advance width="670.8313253012049"/>
  <unicode hex="043C"/>
  <anchor x="505.73493975903614" y="0.0" name="bottomright"/>
  <outline>
    <contour>
      <point x="75.91566265060241" y="0.0" type="line"/>
      <point x="165.09638554216866" y="0.0" type="line"/>
      <point x="165.09638554216866" y="371.3132530120482" type="line"/>
      <point x="141.96385542168673" y="371.3132530120482" type="line"/>
      <point x="310.6867469879518" y="79.13253012048193" type="line"/>
      <point x="360.144578313253" y="79.13253012048193" type="line"/>
      <point x="528.8674698795181" y="371.3132530120482" type="line"/>
      <point x="505.73493975903614" y="371.3132530120482" type="line"/>
      <point x="505.73493975903614" y="0.0" type="line"/>
      <point x="594.9156626506024" y="0.0" type="line"/>
      <point x="594.9156626506024" y="487.5542168674699" type="line"/>
      <point x="512.289156626506" y="487.5542168674699" type="line"/>
      <point x="335.7710843373494" y="178.6024096385542" type="line"/>
      <point x="159.25301204819277" y="487.5542168674699" type="line"/>
      <point x="75.91566265060241" y="487.5542168674699" type="line"/>
    </contour>
  </outline>
</glyph>
<glyph name="pe-cy" format="2">
  <advance width="593.433734939759"/>
  <unicode hex="043F"/>
  <anchor x="422.9156626506024" y="0.0" name="bottomright"/>
  <outline>
    <contour>
      <point x="75.91566265060241" y="0.0" type="line"/>
      <point x="176.9156626506024" y="0.0" type="line"/>
      <point x="176.9156626506024" y="407.48192771084337" type="line"/>
      <point x="416.51807228915663" y="407.48192771084337" type="line"/>
      <point x="416.51807228915663" y="0.0" type="line"/>
      <point x="517.5180722891566" y="0.0" type="line"/>
      <point x="517.5180722891566" y="487.5542168674699" type="line"/>
      <point x="75.91566265060241" y="487.5542168674699" type="line"/>
    </contour>
  </outline>
</glyph>
<glyph name="ef-cy" format="2">
  <advance width="814.289156626506"/>
  <unicode hex="0444"/>
  <outline>
    <contour>
      <point x="357.0" y="-180.0" type="line"/>
      <point x="458.0" y="-180.0" type="line"/>
      <point x="458.0" y="100.51807228915663" type="line"/>
      <point x="447.578313253012" y="100.51807228915663" type="line"/>
      <point x="468.71084337349396" y="30.46987951807229"/>
      <point x="518.1325301204819" y="-9.421686746987952"/>
      <point x="586.867469879518" y="-9.421686746987952" type="curve" smooth="yes"/>
      <point x="694.710843373494" y="-9.421686746987952"/>
      <point x="766.1084337349398" y="89.71084337349397"/>
      <point x="766.1084337349398" y="244.13253012048193" type="curve" smooth="yes"/>
      <point x="766.1084337349398" y="399.26506024096386"/>
      <point x="693.710843373494" y="496.9759036144578"/>
      <point x="586.867469879518" y="496.9759036144578" type="curve" smooth="yes"/>
      <point x="517.4216867469879" y="496.9759036144578"/>
      <point x="467.28915662650604" y="456.3734939759036"/>
      <point x="447.578313253012" y="386.7469879518072" type="curve"/>
      <point x="458.0" y="386.7469879518072" type="line"/>
      <point x="458.0" y="705.0" type="line"/>
      <point x="357.0" y="705.0" type="line"/>
      <point x="357.0" y="386.7469879518072" type="line"/>
      <point x="366.71084337349396" y="386.7469879518072" type="line"/>
      <point x="347.0" y="456.3734939759036"/>
      <point x="297.578313253012" y="496.9759036144578"/>
      <point x="227.42168674698794" y="496.9759036144578" type="curve" smooth="yes"/>
      <point x="120.28915662650603" y="496.9759036144578"/>
      <point x="48.18072289156626" y="399.26506024096386"/>
      <point x="48.18072289156626" y="244.13253012048193" type="curve" smooth="yes"/>
      <point x="48.18072289156626" y="89.71084337349397"/>
      <point x="120.57831325301206" y="-9.421686746987952"/>
      <point x="227.42168674698794" y="-9.421686746987952" type="curve" smooth="yes"/>
      <point x="296.86746987951807" y="-9.421686746987952"/>
      <point x="346.28915662650604" y="30.46987951807229"/>
      <point x="366.71084337349396" y="100.51807228915663" type="curve"/>
      <point x="357.0" y="100.51807228915663" type="line"/>
    </contour>
    <contour>
      <point x="254.3012048192771" y="68.3855421686747" type="curve" smooth="yes"/>
      <point x="189.65060240963857" y="68.3855421686747"/>
      <point x="149.18072289156626" y="127.03614457831326"/>
      <point x="149.18072289156626" y="244.13253012048193" type="curve" smooth="yes"/>
      <point x="149.18072289156626" y="359.65060240963857"/>
      <point x="190.65060240963857" y="419.1686746987952"/>
      <point x="254.3012048192771" y="419.1686746987952" type="curve" smooth="yes"/>
      <point x="317.5301204819277" y="419.1686746987952"/>
      <point x="358.71084337349396" y="359.65060240963857"/>
      <point x="358.71084337349396" y="244.13253012048193" type="curve" smooth="yes"/>
      <point x="358.71084337349396" y="127.03614457831326"/>
      <point x="318.2409638554217" y="68.3855421686747"/>
    </contour>
    <contour>
      <point x="559.6987951807229" y="68.3855421686747" type="curve" smooth="yes"/>
      <point x="495.7590361445783" y="68.3855421686747"/>
      <point x="456.28915662650604" y="127.03614457831326"/>
      <point x="456.28915662650604" y="244.13253012048193" type="curve" smooth="yes"/>
      <point x="456.28915662650604" y="359.65060240963857"/>
      <point x="496.04819277108436" y="419.1686746987952"/>
      <point x="559.6987951807229" y="419.1686746987952" type="curve" smooth="yes"/>
      <point x="623.6385542168674" y="419.1686746987952"/>
      <point x="665.1084337349398" y="359.65060240963857"/>
      <point x="665.1084337349398" y="244.13253012048193" type="curve" smooth="yes"/>
      <point x="665.1084337349398" y="127.03614457831326"/>
      <point x="624.3493975903615" y="68.3855421686747"/>
    </contour>
  </outline>
</glyph>
<glyph name="che-cy" format="2">
  <advance width="561.855421686747"/>
  <unicode hex="0447"/>
  <anchor x="391.33734939759034" y="0.0" name="bottomright"/>
  <anchor x="270.9277108433735" y="200.0" name="center"/>
  <anchor x="270.9277108433735" y="484.0" name="top"/>
  <outline>
    <contour>
      <point x="386.3614457831325" y="0.0" type="line"/>
      <point x="485.93975903614455" y="0.0" type="line"/>
      <point x="485.93975903614455" y="487.5542168674699" type="line"/>
      <point x="384.93975903614455" y="487.5542168674699" type="line"/>
      <point x="384.93975903614455" y="270.6385542168675" type="line"/>
      <point x="354.0240963855422" y="248.87951807228916"/>
      <point x="322.26506024096386" y="240.43373493975903"/>
      <point x="279.6144578313253" y="240.43373493975903" type="curve" smooth="yes"/>
      <point x="192.67469879518072" y="240.43373493975903"/>
      <point x="156.6265060240964" y="279.6144578313253"/>
      <point x="156.6265060240964" y="370.6867469879518" type="curve" smooth="yes"/>
      <point x="156.6265060240964" y="487.5542168674699" type="line"/>
      <point x="55.626506024096386" y="487.5542168674699" type="line"/>
      <point x="55.626506024096386" y="362.578313253012" type="line" smooth="yes"/>
      <point x="55.626506024096386" y="225.04819277108433"/>
      <point x="122.73493975903614" y="157.36144578313252"/>
      <point x="264.26506024096386" y="157.36144578313252" type="curve" smooth="yes"/>
      <point x="308.89156626506025" y="157.36144578313252"/>
      <point x="349.49397590361446" y="167.09638554216866"/>
      <point x="386.3614457831325" y="187.6987951807229" type="curve"/>
    </contour>
  </outline>
</glyph>
<glyph name="sha-cy" format="2">
  <advance width="814.0722891566265"/>
  <unicode hex="0448"/>
  <outline>
    <contour>
      <point x="75.91566265060241" y="0.0" type="line"/>
      <point x="738.156626506024" y="0.0" type="line"/>
      <point x="738.156626506024" y="487.5542168674699" type="line"/>
      <point x="642.1325301204819" y="487.5542168674699" type="line"/>
      <point x="642.1325301204819" y="80.07228915662651" type="line"/>
      <point x="455.04819277108436" y="80.07228915662651" type="line"/>
      <point x="455.04819277108436" y="487.5542168674699" type="line"/>
      <point x="359.0240963855422" y="487.5542168674699" type="line"/>
      <point x="359.0240963855422" y="80.07228915662651" type="line"/>
      <point x="171.93975903614458" y="80.07228915662651" type="line"/>
      <point x="171.93975903614458" y="487.5542168674699" type="line"/>
      <point x="75.91566265060241" y="487.5542168674699" type="line"/>
    </contour>
  </outline>
</glyph>
<glyph name="shcha-cy" format="2">
  <advance width="841.1807228915662"/>
  <unicode hex="0449"/>
  <outline>
    <contour>
      <point x="730.0843373493976" y="-130.0" type="line"/>
      <point x="816.4216867469879" y="-130.0" type="line"/>
      <point x="816.4216867469879" y="80.07228915662651" type="line"/>
      <point x="738.156626506024" y="80.07228915662651" type="line"/>
      <point x="738.156626506024" y="487.5542168674699" type="line"/>
      <point x="642.1325301204819" y="487.5542168674699" type="line"/>
      <point x="642.1325301204819" y="80.07228915662651" type="line"/>
      <point x="455.04819277108436" y="80.07228915662651" type="line"/>
      <point x="455.04819277108436" y="487.5542168674699" type="line"/>
      <point x="359.0240963855422" y="487.5542168674699" type="line"/>
      <point x="359.0240963855422" y="80.07228915662651" type="line"/>
      <point x="171.93975903614458" y="80.07228915662651" type="line"/>
      <point x="171.93975903614458" y="487.5542168674699" type="line"/>
      <point x="75.91566265060241" y="487.5542168674699" type="line"/>
      <point x="75.91566265060241" y="0.0" type="line"/>
      <point x="730.0843373493976" y="0.0" type="line"/>
    </contour>
  </outline>
</glyph>
